<?xml version="1.0" encoding="utf-8"?>
<!-- Generator: Adobe Illustrator 24.2.3, SVG Export Plug-In . SVG Version: 6.00 Build 0)  -->
<svg version="1.1" id="Layer_1" xmlns="http://www.w3.org/2000/svg" xmlns:xlink="http://www.w3.org/1999/xlink" x="0px" y="0px"
	 viewBox="0 0 1253.4 657" style="enable-background:new 0 0 1253.4 657;" xml:space="preserve">
<style type="text/css">
	.st0{fill:url(#SVGID_1_);}
	.st1{fill:#D9D9D9;filter:url(#Adobe_OpacityMaskFilter);}
	.st2{opacity:0.4;mask:url(#mask0_1107_196_1_);}
	.st3{opacity:0.3;}
	.st4{opacity:0.2;}
	.st5{fill:url(#SVGID_2_);}
	.st6{fill:url(#SVGID_3_);}
	.st7{fill:url(#SVGID_4_);}
</style>
<linearGradient id="SVGID_1_" gradientUnits="userSpaceOnUse" x1="1405.3538" y1="464.0114" x2="177.2818" y2="222.2565" gradientTransform="matrix(1 0 0 -1 0 657.8898)">
	<stop  offset="1.104040e-02" style="stop-color:#E2E0E0"/>
	<stop  offset="1" style="stop-color:#D0CBCB;stop-opacity:0.1"/>
</linearGradient>
<path class="st0" d="M0,0h1443v657H0V0z"/>
<defs>
	<filter id="Adobe_OpacityMaskFilter" filterUnits="userSpaceOnUse" x="-393.6" y="-188.9" width="854.5" height="1443.6">
		<feColorMatrix  type="matrix" values="1 0 0 0 0  0 1 0 0 0  0 0 1 0 0  0 0 0 1 0"/>
	</filter>
</defs>
<mask maskUnits="userSpaceOnUse" x="-393.6" y="-188.9" width="854.5" height="1443.6" id="mask0_1107_196_1_">
	<rect y="2" class="st1" width="484" height="655"/>
</mask>
<g class="st2">
	<g class="st3">
		<g class="st4">
			<path d="M-386.8,214.1c1.1-0.6,2.3-0.9,3.6-0.9c1.3,0,2.5,0.4,3.5,1.1c1.1,0.7,1.9,1.6,2.5,2.8c0.6,1.1,0.8,2.4,0.7,3.6
				l98.1,17.1c0.2-0.1,0.3-0.2,0.5-0.3c0.8-0.5,1.7-0.7,2.6-0.8l-2.9-168.9c-1.1-0.1-2.3-0.5-3.2-1.1c-1-0.6-1.8-1.5-2.3-2.5
				c-0.4-0.8-0.7-1.7-0.8-2.6c-0.1-0.9,0-1.8,0.2-2.7c0.3-0.9,0.7-1.7,1.2-2.4c0.6-0.7,1.3-1.3,2.1-1.8c0.8-0.4,1.7-0.7,2.6-0.8
				c0.9-0.1,1.8,0,2.7,0.2s1.7,0.7,2.4,1.2c0.7,0.6,1.3,1.3,1.8,2.1c0.7,1.3,1,2.7,0.8,4.2L-156.2,86c0.5-1.7,1.7-3.1,3.3-4
				c1-0.6,2.2-0.9,3.4-0.9s2.3,0.3,3.4,0.9l47-68.9c-0.7-0.5-1.2-1.2-1.7-2c-0.4-0.8-0.7-1.7-0.8-2.6c-0.1-0.9,0-1.8,0.2-2.7
				c0.3-0.9,0.7-1.7,1.2-2.4c0.6-0.7,1.3-1.3,2.1-1.8c0.8-0.4,1.7-0.7,2.6-0.8c0.9-0.1,1.8,0,2.7,0.2c0.9,0.2,1.7,0.7,2.4,1.2
				s1.3,1.3,1.8,2.1c0.5,1,0.8,2,0.9,3.2c0,1.1-0.2,2.2-0.7,3.2l79.6,47.1c0.6-0.8,1.4-1.5,2.2-2c1.4-0.8,3.1-1.1,4.7-0.7
				c1.6,0.3,3.1,1.2,4.1,2.5L78.9,2c-0.9-1.6-1.1-3.5-0.6-5.3c0.5-1.8,1.7-3.2,3.3-4.1c0.8-0.4,1.7-0.7,2.6-0.8
				c0.9-0.1,1.8,0,2.7,0.2c0.9,0.2,1.7,0.7,2.4,1.2s1.3,1.3,1.8,2.1c0.3,0.6,0.6,1.2,0.7,1.8l70.6-7.6c0-1.3,0.3-2.5,0.9-3.6
				c0.6-1.1,1.5-2,2.6-2.6c0.6-0.3,1.2-0.6,1.9-0.7l-13.7-107c-1.3,0-2.5-0.3-3.7-0.9c-1.1-0.6-2-1.6-2.7-2.7
				c-0.4-0.8-0.7-1.7-0.8-2.6c-0.1-0.9,0-1.8,0.2-2.7c0.3-0.9,0.7-1.7,1.2-2.4c0.6-0.7,1.3-1.3,2.1-1.8c1.6-0.9,3.5-1.1,5.3-0.6
				c1.8,0.5,3.3,1.7,4.2,3.3c0.1,0.2,0.3,0.5,0.4,0.7l152.2-46.5c-0.3-1.5-0.1-3,0.5-4.3c0.6-1.3,1.6-2.5,2.9-3.2
				c0.8-0.4,1.7-0.7,2.6-0.8c0.9-0.1,1.8,0,2.7,0.2c0.9,0.3,1.7,0.7,2.4,1.2c0.7,0.6,1.3,1.3,1.8,2.1c0.9,1.6,1.1,3.5,0.6,5.3
				c-0.5,1.8-1.7,3.3-3.3,4.2c-0.9,0.5-2,0.8-3,0.9l-9,232.8c1,0.2,1.9,0.6,2.8,1.2c0.8,0.6,1.5,1.4,2,2.3c0.4,0.8,0.7,1.7,0.8,2.6
				c0.1,0.9,0,1.8-0.2,2.7c-0.2,0.9-0.7,1.7-1.2,2.4c-0.6,0.7-1.3,1.3-2.1,1.8c-1.6,0.9-3.5,1.1-5.3,0.6c-1.8-0.5-3.3-1.7-4.2-3.3
				c-0.2-0.3-0.3-0.7-0.5-1l-80.3,16.2c0.2,1.4-0.1,2.8-0.7,4c-0.6,1.2-1.6,2.3-2.8,3c-0.8,0.5-1.7,0.7-2.6,0.8l-2.3,193.7
				c1.1,0.1,2.2,0.5,3.1,1.1c0.9,0.6,1.7,1.4,2.2,2.4c0.9,1.6,1.1,3.5,0.6,5.3c-0.5,1.8-1.7,3.3-3.3,4.2c-1.6,0.9-3.5,1.1-5.3,0.6
				c-1.8-0.5-3.3-1.7-4.2-3.3c-0.4-0.8-0.7-1.6-0.8-2.4l-89.4,4.3c0,1.2-0.4,2.3-1,3.4c-0.6,1-1.5,1.8-2.5,2.4l0.6-0.3L210.4,509
				c1.5-0.6,3.2-0.5,4.8,0c1.5,0.6,2.8,1.7,3.6,3.1c0.8,1.5,1.1,3.2,0.7,4.9l90.6,29.3c0.6-1.4,1.7-2.6,3-3.3
				c1.6-0.9,3.5-1.1,5.3-0.6c1.8,0.5,3.3,1.7,4.2,3.3c0.4,0.8,0.7,1.7,0.8,2.6c0.1,0.9,0,1.8-0.2,2.7c-0.2,0.9-0.7,1.7-1.2,2.4
				c-0.6,0.7-1.3,1.3-2.1,1.8c-1.3,0.7-2.7,1-4.1,0.8l-28.6,141c1.7,0.5,3.2,1.7,4.1,3.3c0.4,0.8,0.7,1.7,0.8,2.6
				c0.1,0.9,0,1.8-0.2,2.7c-0.3,0.9-0.7,1.7-1.2,2.4c-0.6,0.7-1.3,1.3-2.1,1.8c-1.3,0.8-2.9,1-4.4,0.8l-21,85.6
				c1.6,0.6,3,1.7,3.8,3.2c0.9,1.6,1.1,3.5,0.6,5.3c-0.5,1.8-1.7,3.3-3.3,4.2c-0.3,0.2-0.7,0.4-1.1,0.5l36.1,157.4
				c1.4-0.2,2.7,0.1,4,0.7c1.2,0.6,2.2,1.6,2.9,2.8c0.5,0.9,0.8,1.9,0.9,2.9c0.1,1-0.1,2.1-0.5,3l97.8,52.1c0.6-1,1.5-1.8,2.5-2.4
				c1.6-0.9,3.5-1.1,5.3-0.6c1.8,0.5,3.3,1.7,4.2,3.3c0.4,0.8,0.7,1.7,0.8,2.6c0.1,0.9,0,1.8-0.2,2.7c-0.3,0.9-0.7,1.7-1.2,2.4
				c-0.6,0.7-1.3,1.3-2.1,1.8l-0.1,0l39.5,124.2c1.4-0.2,2.8,0.1,4,0.7c1.2,0.6,2.3,1.6,2.9,2.8c0.9,1.6,1.1,3.5,0.6,5.3
				c-0.5,1.8-1.7,3.3-3.3,4.2c-1.2,0.7-2.7,1-4.1,0.8c-1.4-0.1-2.7-0.7-3.8-1.6l-78.3,61c0,0.1,0.1,0.2,0.2,0.3
				c0.4,0.8,0.7,1.7,0.8,2.6c0.1,0.9,0,1.8-0.2,2.7c-0.3,0.9-0.7,1.7-1.2,2.4c-0.6,0.7-1.3,1.3-2.1,1.8c-1.6,0.9-3.5,1.1-5.3,0.6
				c-1.8-0.5-3.3-1.7-4.2-3.3c-0.4-0.8-0.7-1.6-0.8-2.5l-92.1,7.9c0,1.2-0.3,2.4-1,3.5c-0.6,1.1-1.5,1.9-2.6,2.5
				c-1.6,0.9-3.5,1.1-5.3,0.6c-1.8-0.5-3.3-1.7-4.2-3.3c-0.7-1.3-1-2.7-0.8-4.1c0.1-1.4,0.7-2.8,1.7-3.8l-111.3-116.6
				c-0.3,0.2-0.6,0.4-0.9,0.6c-1.6,0.9-3.5,1.1-5.3,0.6c-1.8-0.5-3.3-1.7-4.2-3.3c-0.9-1.6-1.1-3.5-0.6-5.3c0.5-1.8,1.7-3.3,3.3-4.2
				c0.5-0.3,1.1-0.5,1.7-0.7l-14.1-88.4c-1,0.1-2-0.1-2.9-0.4c-0.9-0.4-1.8-0.9-2.5-1.6c-0.7-0.7-1.2-1.5-1.6-2.5
				c-0.3-0.9-0.5-1.9-0.4-2.9c0.1-1,0.3-1.9,0.8-2.8c0.5-0.9,1.1-1.6,1.9-2.2c0.8-0.6,1.7-1,2.6-1.3s2-0.3,2.9-0.1l27.2-94.5
				c-1.6-0.6-2.9-1.8-3.6-3.3c-0.8-1.5-1-3.2-0.6-4.9l-219.9-75.1c-0.5,1.1-1.3,2.1-2.3,2.8c-1,0.7-2.2,1.2-3.4,1.3
				c-1.2,0.1-2.5-0.1-3.6-0.6c-1.1-0.5-2.1-1.4-2.8-2.4c-0.7-1-1.1-2.2-1.2-3.5s0.2-2.5,0.7-3.6c0.6-1.1,1.4-2,2.4-2.7
				c1-0.7,2.2-1.1,3.5-1.1L-66.7,544c-1.6,0.7-3.5,0.7-5.1,0.1c-1.7-0.6-3-1.9-3.8-3.5c-0.8-1.6-0.9-3.4-0.4-5.1
				c0.5-1.7,1.7-3.1,3.2-4c0.3-0.2,0.6-0.3,0.9-0.4l-27.3-99.6c-1.4,0.3-2.9,0.1-4.2-0.6c-1.3-0.6-2.4-1.6-3.1-2.9
				c-0.7-1.3-1-2.8-0.8-4.2L-235,396.1l0.4,1.7l-1.7-2l-0.8-0.2l0.3-0.4l-142.8-169.4c-0.2,0.1-0.4,0.3-0.6,0.4
				c-0.8,0.4-1.7,0.7-2.6,0.8c-0.9,0.1-1.8,0-2.7-0.2c-0.9-0.3-1.7-0.7-2.4-1.2c-0.7-0.6-1.3-1.3-1.8-2.1c-0.4-0.8-0.7-1.7-0.8-2.6
				c-0.1-0.9,0-1.8,0.2-2.7c0.2-0.9,0.7-1.7,1.2-2.4C-388.3,215.2-387.6,214.6-386.8,214.1z M-73.8,828l103.3-50.5
				c-0.6-1.6-0.6-3.3,0-4.9c0.6-1.6,1.7-2.9,3.1-3.7L4.5,705.3l-79.9,120.9C-74.8,826.7-74.2,827.3-73.8,828z M450.6,1163.1
				c0.4-0.2,0.8-0.4,1.3-0.5l-17.8-55.8l-21.7-68.2c-0.6,0.2-1.3,0.3-2,0.4l-28,127.6l64.6,2.1c0.1-1.2,0.5-2.3,1.1-3.2
				C448.7,1164.4,449.6,1163.6,450.6,1163.1z M278.4,704.9c-0.3-1.7,0-3.4,0.8-4.8l-53.4-38.4l-58.6,72.1c0.5,0.5,0.9,1,1.2,1.6
				c0.2,0.3,0.3,0.6,0.4,0.9L278.4,704.9z M206.6,518.9c-0.5-0.9-0.8-1.9-0.9-2.9l-105.1-2.1l97.4,15.6l9.3-9.4
				C207.1,519.7,206.8,519.3,206.6,518.9z M207.8,287.7L96.2,195.9l-56.7,52.7c0.2,0.3,0.4,0.6,0.6,0.9c0.7,1.3,1,2.8,0.8,4.2
				l166.1,35.9C207.1,288.9,207.4,288.3,207.8,287.7L207.8,287.7z M304.7,59.5L251.9-6.9l-33,84.8c1.2,0.6,2.2,1.6,2.9,2.8
				c0.2,0.4,0.4,0.8,0.5,1.2l80.3-16.2c-0.2-1.1-0.1-2.3,0.3-3.4S303.9,60.3,304.7,59.5z M251-8.1l-93.3-117.5
				c-0.1,0.1-0.3,0.2-0.4,0.3c-0.3,0.1-0.6,0.3-0.9,0.4l58.2,202.1c1-0.2,2.1-0.1,3.1,0.2L251-8.1z M313.3-178.5
				c-0.1-0.2-0.3-0.5-0.4-0.8l-152.2,46.5c0.2,1.2,0.2,2.4-0.2,3.5c-0.4,1.1-1,2.1-1.8,3L251.6-9.4l64.7-166.2
				C315-176.3,313.9-177.3,313.3-178.5z M-103.2,418.2c1.2-0.5,2.6-0.7,4-0.5l25.5-97.1l-90.4-20.2c-0.5,1.5-1.4,2.7-2.7,3.6
				L-103.2,418.2z M144.5,1117.8c0.8,1.4,1.1,3.2,0.7,4.8l127.9,38.6c0.2-0.6,0.5-1.1,0.9-1.6L151.7,1047l-11.5,67.4
				c0.9,0.2,1.8,0.7,2.5,1.2C143.4,1116.2,144.1,1116.9,144.5,1117.8z M161.2,1021.4l114.5,136.7c0.2-0.1,0.4-0.2,0.6-0.4
				c1.1-0.6,2.3-0.9,3.5-0.9l14.1-131l-130.7-8.2C162.9,1019,162.2,1020.4,161.2,1021.4z M272.8,1156.6l-112.6-134.4
				c-0.2,0.1-0.4,0.2-0.6,0.4c-1.2,0.7-2.6,1-3.9,0.8l-3.8,22.1L272.8,1156.6z M162.3,1013.1c0.1,0.3,0.3,0.5,0.4,0.8l130.5-39
				c-0.2-1.2-0.1-2.4,0.2-3.6l-94.6-40.1l-39,79.3C160.9,1011.2,161.7,1012.1,162.3,1013.1z M257.6,808.8c-0.3-0.2-0.5-0.3-0.8-0.5
				l-98.2,98.5c0.3,0.3,0.5,0.7,0.7,1.1c0.5,0.8,0.7,1.7,0.8,2.7c0.1,0.9,0,1.9-0.3,2.8l38.3,16.2L257.6,808.8z M157.7,905.9
				l98.1-98.4c-0.4-0.4-0.8-0.9-1-1.4c-0.6-1-0.9-2.1-0.9-3.2l-93.8-11.7l-5.9,113.2C155.5,904.5,156.7,905.1,157.7,905.9z
				 M161.3,745.7c-1.1-0.2-2.1-0.6-2.9-1.2c-0.9-0.6-1.6-1.4-2.1-2.3c-0.1-0.3-0.3-0.6-0.4-0.9l-113,32.5c0.1,0.5,0.1,1,0.1,1.5
				l116,14.4L161.3,745.7z M103.3,295.9l-65.5-8.4l3.6,51.1c1,0,1.9,0.2,2.8,0.7c0.9,0.4,1.7,1,2.3,1.7l57.5-41.4
				C103.3,298.5,103.1,297.2,103.3,295.9z M-9.3,65.2c-0.2-0.4-0.4-0.9-0.6-1.3l-71.3,12.7l8.3,44.4c0.9-0.1,1.9,0,2.8,0.3
				c0.9,0.3,1.7,0.8,2.4,1.4l59.2-56.3C-8.8,66-9.1,65.6-9.3,65.2z M-94.1,14.6c-1.4,0.1-2.8-0.2-4-0.8l-47,68.9
				c0.7,0.5,1.2,1.2,1.7,2c0.3,0.5,0.5,1,0.6,1.5l60.2-10.7L-94.1,14.6z M-142.7,87.5c0.1,1.1-0.1,2.2-0.5,3.2l65,33.5
				c0.6-1,1.5-1.8,2.5-2.3c0.5-0.3,1-0.5,1.5-0.6l-8.3-44.4L-142.7,87.5z M-94.7,420.7l129.5-72.2c-0.5-1.2-0.7-2.4-0.5-3.7
				l-106.8-23.9L-98,418.1C-96.7,418.5-95.5,419.5-94.7,420.7z M158.9,732.7c0.5-0.3,1-0.5,1.5-0.6l-24.3-130.1
				c-0.6,0.2-1.2,0.2-1.9,0.2l-40.8,72.3l64.1,59.2C158,733.3,158.4,732.9,158.9,732.7z M42.1,771.6c0.2,0.3,0.3,0.6,0.4,0.9
				l23.5-6.8l89.5-25.7c-0.2-1-0.2-1.9,0.1-2.9c0.2-1,0.6-1.8,1.2-2.6l-63.9-58.9L40,769.3C40.8,769.9,41.6,770.7,42.1,771.6z
				 M92.5,673.5l40.3-71.6c-0.9-0.2-1.7-0.6-2.4-1.1l-62.7,27.4l-11.2,4.8c0.4,1.1,0.4,2.2,0.3,3.3c-0.2,1.1-0.6,2.1-1.3,3
				L92.5,673.5z M56.1,632l73.3-32c-0.4-0.4-0.7-0.9-1-1.4c-0.5-0.8-0.7-1.7-0.8-2.7L69.6,579l-16.7,50
				C54.2,629.7,55.3,630.7,56.1,632z M88.2,519.2c-1.2-0.6-2.3-1.6-2.9-2.8c-0.3-0.5-0.5-1-0.6-1.5l-0.1,0l-147.1,22.3
				c0,0.6,0,1.2-0.1,1.7l131.4,38.5L88.2,519.2z M27,254c-0.2-1.1-0.1-2.2,0.2-3.3c0.3-1.1,0.9-2,1.7-2.8l-33-38.8l-52.3,60.3
				c0.4,0.4,0.8,0.9,1.1,1.4c0.1,0.2,0.2,0.3,0.2,0.5L27,254z M35.1,342.3l-91.2-63.5c-0.5,0.6-1.2,1.2-1.9,1.6
				c-1.3,0.7-2.7,1-4.1,0.8l-10.1,38.5l106.7,23.9C34.7,343.1,34.9,342.7,35.1,342.3z M-164.7,294.9c0.2,0.4,0.4,0.8,0.5,1.3
				l35.5-7.8l60.4-13.3c0-0.4-0.1-0.8,0-1.2l-80.9-11.6l-17.5,30.3C-165.9,293.2-165.2,294-164.7,294.9L-164.7,294.9z M-68.1,272.7
				c0.3-1.3,1-2.5,2-3.5c1-0.9,2.2-1.5,3.6-1.8l-9.8-132.5c-1,0-1.9-0.2-2.8-0.6l-73.4,126.9L-68.1,272.7z M-68.9,134
				c-0.7,0.4-1.5,0.6-2.2,0.8l9.9,132.6c1.4,0,2.8,0.5,3.9,1.3l52.4-60.4l-63.4-74.5C-68.5,133.8-68.7,133.9-68.9,134z M-55.2,277.4
				l91,63.8c1.1-1.3,2.5-2.1,4.2-2.4l-3.6-51.4l-91.1-11.6C-54.7,276.4-54.9,276.9-55.2,277.4L-55.2,277.4z M88,506.9l0.3-0.1
				l-27.8-93.7l-18-60.6c-1.4,0.3-2.9,0.1-4.3-0.5l-62,107.5l108.9,50.5C85.8,508.7,86.8,507.6,88,506.9L88,506.9z M-63.4,280.9
				c-1.7-0.5-3.2-1.7-4.1-3.3c-0.2-0.4-0.4-0.8-0.6-1.3l-95.9,21c0.1,0.6,0.1,1.2,0,1.7l90.4,20.2L-63.4,280.9z M-176.6,294.5
				c0.9-1.4,2.3-2.4,3.9-2.9c1.6-0.5,3.3-0.3,4.8,0.4l17.2-29.8l-117.2-16.8c-0.1,0.3-0.2,0.7-0.3,1l56.3,29.6L-176.6,294.5z
				 M-268.2,240.9c0.4,1,0.6,2.1,0.6,3.2l117.7,16.8l73.6-127.4c-0.6-0.4-1.2-1-1.7-1.6L-268.2,240.9z M-67.3,132.8l63.2,74.4
				l43.3-50c-0.4-0.4-0.8-0.9-1.1-1.4c-0.7-1.3-1-2.7-0.8-4.2l-103-21.6C-65.9,131-66.5,132-67.3,132.8z M40.2,158.1l-43.4,50.1
				l33.1,38.9c0.2-0.1,0.4-0.3,0.6-0.4c1.1-0.6,2.3-0.9,3.5-0.9l9-86.6C42,159,41,158.6,40.2,158.1z M27.8,256.2
				c-0.2-0.3-0.3-0.6-0.4-0.9l-82,17.4c0.2,0.6,0.2,1.3,0.2,1.9l90.8,11.6l-1.8-26.3c-1.3,0.1-2.7-0.2-3.9-0.8
				C29.4,258.3,28.5,257.4,27.8,256.2z M89.4,519.7L70,577.8l57.5,16.8c0.1-1.1,0.4-2.1,1-3c0.6-0.9,1.3-1.7,2.3-2.3l-37.2-69.6
				C92.2,520.1,90.8,520.1,89.4,519.7z M38.8,768.7l53-94l-37.1-34.2c-0.4,0.4-0.9,0.7-1.4,1c-1,0.6-2.2,0.9-3.3,0.9L37.3,768.2
				C37.8,768.3,38.4,768.5,38.8,768.7z M46.6,629.3c1.5-0.9,3.4-1.1,5.1-0.7l16.7-50L-63,540.2c-0.2,0.5-0.4,0.9-0.7,1.3l108.8,88.9
				C45.6,630,46.1,629.6,46.6,629.3L46.6,629.3z M-63.4,534.2c0.3,0.5,0.5,1.1,0.7,1.7l147.2-22.3c-0.1-0.8,0-1.7,0.2-2.5l-109-50.6
				l-41.1,71.3C-64.6,532.5-63.9,533.3-63.4,534.2z M37.1,351.4c-0.7-0.5-1.3-1.1-1.7-1.7L-94,421.8c0.7,1.6,0.8,3.5,0.2,5.2l69,32
				L37.1,351.4z M-269,239.5l0.5,0.1l189.9-108.8c-0.6-1.4-0.8-2.9-0.5-4.4l-79.6-26l-111.1,138.3
				C-269.4,238.9-269.2,239.2-269,239.5L-269,239.5z M-79.7,124.8l-64.1-33c-0.6,1-1.5,1.8-2.5,2.3c-1.1,0.6-2.4,0.9-3.6,0.9
				c-1.3,0-2.5-0.4-3.6-1.1l-4.4,5.5L-79.7,124.8z M-91.4,13.8c-0.5,0.3-1,0.5-1.5,0.6l11.4,60.9l71.3-12.7
				c-0.2-1.3,0.1-2.6,0.6-3.8l-79.6-47.1C-89.7,12.6-90.5,13.3-91.4,13.8z M-7.5,67.3L-58.8,116L-1,68.4c-1.1,0.4-2.3,0.4-3.4,0.2
				S-6.6,68-7.5,67.3z M-66.5,124c0.1,0.2,0.2,0.3,0.3,0.5c0.7,1.3,1,2.7,0.8,4.2l103,21.6c0.5-1.7,1.7-3.2,3.3-4
				c1.4-0.8,3-1,4.5-0.8l37-140.4c-1-0.4-1.8-1-2.5-1.7L-66.5,124z M90.5,3c-0.6,0.7-1.3,1.3-2.1,1.8c-1.4,0.8-3.1,1.1-4.8,0.7
				l-37,140.4c0.5,0.2,0.9,0.4,1.3,0.6l87.6-114.2L90.5,3z M49,147.3c0.5,0.5,1,1.1,1.4,1.7c0,0.1,0.1,0.1,0.1,0.2L209,86
				c-0.2-0.9-0.3-1.8-0.2-2.7c0.1-0.9,0.4-1.8,0.9-2.6l-73-47.6L49,147.3z M210.5,79.6c0.5-0.6,1.2-1.1,1.9-1.5L171.9-4.1
				c-1,0.4-2.1,0.5-3.2,0.4c-1.1-0.1-2.1-0.5-3-1L137.5,32L210.5,79.6z M173-4.7l40.3,81.8l-57.8-200.2l13.5,105.6
				c1.3,0,2.5,0.3,3.7,0.9c1.1,0.6,2,1.6,2.7,2.7c0.9,1.6,1.1,3.4,0.7,5.2C175.6-7.1,174.5-5.6,173-4.7z M209.6,87.5
				c-0.1-0.1-0.1-0.2-0.2-0.3L51,150.4c0.3,1,0.4,2,0.2,3c-0.2,1-0.5,2-1.1,2.8l46.1,37.9L210.2,88.3
				C210,88.1,209.8,87.8,209.6,87.5z M49.2,157.3c-0.5,0.5-1,0.9-1.6,1.2c-1.1,0.6-2.2,0.9-3.5,0.9l-9,86.6c1.2,0.2,2.4,0.8,3.3,1.6
				l56.6-52.5L49.2,157.3z M39.7,256.7c-0.6,0.9-1.4,1.7-2.4,2.2c-0.5,0.3-1,0.5-1.5,0.6l1.9,26.8l65.9,8.4c0.1-0.4,0.3-0.8,0.4-1.2
				L39.7,256.7z M104.5,300.8l-57.4,41.4l0.1,0.1c0.9,1.6,1.1,3.5,0.6,5.3c-0.5,1.8-1.7,3.3-3.3,4.2c-0.3,0.1-0.5,0.3-0.8,0.4
				l45.8,154.2c0.5-0.1,0.9-0.2,1.4-0.3l17.7-202.7C107,303.1,105.6,302.1,104.5,300.8L104.5,300.8z M98.1,514.8
				c-0.2,0.9-0.6,1.8-1.2,2.5c-0.6,0.7-1.3,1.4-2.1,1.8l-0.1,0l37.2,69.6c1.1-0.4,2.4-0.6,3.6-0.4c1.2,0.2,2.4,0.7,3.3,1.5
				l58.2-59.2L98.1,514.8z M139.7,590.7c0.3,0.3,0.5,0.7,0.8,1.1c0.2,0.3,0.3,0.7,0.5,1.1l168.7-42.7c-0.1-0.5-0.1-1-0.1-1.5
				l-111-17.8L139.7,590.7z M310.5,552.4c-0.2-0.3-0.3-0.7-0.5-1.1l-168.7,42.7c0.2,1.6-0.1,3.2-0.9,4.6l85.1,61.2L311.7,554
				C311.2,553.5,310.8,553,310.5,552.4z M139.7,599.8c-0.5,0.6-1.2,1.1-1.9,1.5l-0.5,0.2l24.3,130.3c1.6-0.1,3.2,0.3,4.5,1.1
				l58.6-72L139.7,599.8z M167.7,743.1c-0.6,0.7-1.3,1.3-2.1,1.8c-0.9,0.5-2,0.8-3.1,0.9l-2.3,44.1l93.8,11.7
				c0.1-0.7,0.3-1.3,0.6-1.9L167.7,743.1z M258.8,809.3l-59.4,120.8l94.6,40.1c0.6-1.1,1.6-2.1,2.7-2.7c0.4-0.2,0.9-0.4,1.4-0.6
				l-36-157.4C260.9,809.7,259.8,809.6,258.8,809.3z M294,976.9c-0.1-0.3-0.3-0.5-0.4-0.8l-130.5,39c0.1,0.4,0.1,0.8,0.1,1.2
				l130.8,8.3l4.8-44.2c-1-0.2-2-0.6-2.8-1.2C295.2,978.6,294.5,977.8,294,976.9z M281,1157c1.1,0.2,2.2,0.7,3.1,1.5l121.6-121.3
				c-0.6-0.5-1.1-1.1-1.5-1.8c-0.5-0.8-0.7-1.7-0.8-2.6l-108.2-6.8L281,1157z M409.1,1038.8c-0.9-0.1-1.7-0.4-2.4-0.9L285,1159.4
				c0.3,0.3,0.5,0.7,0.7,1c0.5,0.9,0.8,1.9,0.9,3l94.6,3.1L409.1,1038.8z M286.5,1164.7c-0.1,1.2-0.6,2.2-1.2,3.2l75.7,65.7
				c0.3-0.2,0.5-0.4,0.8-0.5c1.5-0.8,3.2-1.1,4.9-0.7l14.2-64.6L286.5,1164.7z M359.7,1234.8c0.1-0.1,0.2-0.2,0.3-0.3l-75.6-65.6
				c-0.4,0.4-0.9,0.8-1.4,1.1c-1.3,0.8-2.9,1-4.4,0.8l-4.8,19.7L359.7,1234.8z M277.3,1170.4c-1.6-0.5-3-1.7-3.8-3.2
				c-0.8-1.5-1.1-3.2-0.7-4.8l-127.8-38.6l127.7,66L277.3,1170.4z M139,1114.2l11.6-68.2l-23.7-21.8c-0.4,0.4-0.8,0.7-1.3,0.9
				c-0.5,0.3-1.1,0.5-1.7,0.7l14.1,88.4C138.3,1114.2,138.6,1114.2,139,1114.2L139,1114.2z M127.7,1023.3l23.1,21.2l3.6-21.3
				c-1.3-0.3-2.5-1-3.4-2c-0.9-1-1.5-2.2-1.7-3.5l-20.2,1.5C129.1,1020.6,128.6,1022.1,127.7,1023.3L127.7,1023.3z M158.7,1010
				l39-79.3l-38.3-16.2c-0.6,1.2-1.6,2.1-2.7,2.8c-0.8,0.4-1.7,0.7-2.6,0.8l2.6,91.4C157.4,1009.6,158.1,1009.8,158.7,1010
				L158.7,1010z M149.9,905.1c0.9-0.5,2-0.8,3.1-0.9l5.9-113.3L42.8,776.5c-0.3,1.3-0.9,2.4-1.8,3.3l108.2,125.7
				C149.5,905.4,149.7,905.3,149.9,905.1L149.9,905.1z M33.8,768.4c0.7-0.2,1.5-0.4,2.3-0.4l12.7-125.9c-0.7-0.1-1.4-0.4-2.1-0.7
				L5.3,704L33.8,768.4z M45.6,640.8c-1.4-1.1-2.3-2.7-2.5-4.4c-0.2-1.8,0.2-3.5,1.2-5l-108.8-88.9c-0.3,0.3-0.7,0.6-1,0.8
				L4.7,702.6L45.6,640.8z M-66.6,531.3l41.1-71.2l-68.9-32c-0.6,1.1-1.5,2-2.6,2.6c-0.3,0.2-0.6,0.3-0.9,0.4l27.3,99.6
				C-69.3,530.5-67.9,530.7-66.6,531.3z M-104.3,418.9l-63.1-113.3l-20.5,27.1l83.2,86.4C-104.6,419.1-104.5,418.9-104.3,418.9z
				 M-168.6,304.9c-1.3,0.4-2.6,0.5-3.9,0.1c-1.3-0.3-2.5-1-3.4-2c-0.9-1-1.5-2.2-1.8-3.5c-0.2-1.3-0.1-2.7,0.4-3.9l-91.5-48.1
				c-0.2,0.2-0.3,0.5-0.5,0.7l80.4,83.6L-168.6,304.9z M-274,236.7c1.2,0.1,2.3,0.5,3.3,1.1L-160,100l-111.4-36.3
				c-0.6,1.4-1.7,2.6-3,3.3c-0.8,0.5-1.7,0.7-2.6,0.8L-274,236.7z M-266,64l106.9,34.9l4.7-5.8c-0.5-0.5-0.9-1-1.2-1.6
				c-0.7-1.3-1-2.7-0.8-4.2L-266,64z M2.9,58.6c0.6,1,0.8,2.2,0.8,3.4c0,1.2-0.3,2.3-0.9,3.3L68.7,11L2.9,58.6z M92-1.6
				c0.1,1.2-0.2,2.4-0.8,3.5l45.2,29.4l28.2-36.8c-0.5-0.5-1-1.1-1.3-1.7c-0.4-0.6-0.6-1.3-0.7-2L92-1.6z M318.4-175
				c-0.3,0-0.7-0.1-1-0.2L252.5-8.3l53.3,67l0.3-0.2c1-0.6,2.2-0.9,3.4-0.9L318.4-175z M215.2,91.1c-1.5-0.1-3-0.7-4.1-1.8L97.1,195
				l111.5,91.7c0.5-0.5,1-0.9,1.6-1.2c0.9-0.5,1.8-0.8,2.8-0.9L215.2,91.1z M206.6,291.4c0-0.2,0-0.4,0-0.5L40.5,254.9
				c-0.1,0.2-0.1,0.4-0.2,0.6l64.4,36.9c0.6-0.7,1.3-1.4,2.1-1.8c0.8-0.4,1.7-0.7,2.6-0.8c0.9-0.1,1.8,0,2.7,0.2
				c0.9,0.3,1.7,0.7,2.4,1.2c0.7,0.6,1.3,1.3,1.8,2.1c0.4,0.7,0.7,1.6,0.8,2.4L206.6,291.4z M113,303c-1,0.4-2,0.6-3.1,0.6
				L92.2,506.1c1.6,0.2,3.1,0.9,4.3,2.1c1.1,1.2,1.8,2.7,1.9,4.3l107.5,2.2c0.1-1.1,0.5-2.1,1.1-3c0.6-0.9,1.4-1.7,2.3-2.2L113,303z
				 M216.1,521.6c-1.2,0.7-2.6,1-4,0.9s-2.7-0.7-3.8-1.5l-8.6,8.8l108.7,17.4l-89.3-28.8C218.5,519.7,217.4,520.9,216.1,521.6
				L216.1,521.6z M314.5,555.7c-0.7-0.2-1.3-0.5-1.9-0.9l-86.1,105.9l53.3,38.4c0.5-0.6,1.2-1.1,1.9-1.5c1.3-0.7,2.7-1,4.1-0.8
				L314.5,555.7z M282.9,710.2c-1.6-0.6-3-1.7-3.8-3.2c-0.2-0.3-0.3-0.6-0.4-0.9l-109.6,31.3c0.3,1.5,0,3.1-0.7,4.5l86.9,56.5
				c0.6-0.8,1.3-1.5,2.2-1.9c1.3-0.7,2.9-1,4.4-0.8L282.9,710.2z M305.9,977.3c-0.6,1-1.5,1.8-2.5,2.4c-1,0.6-2.2,0.9-3.4,0.9
				l-4.8,44.1l108,6.8c0.1-0.7,0.2-1.4,0.5-2L305.9,977.3z M448.5,1173.5c-0.3-0.3-0.5-0.6-0.7-1c-0.5-0.8-0.7-1.7-0.8-2.6
				l-64.9-2.1l-14.2,64.9c0.9,0.4,1.8,1,2.5,1.7L448.5,1173.5z M358.2,1238.7c0.1-1,0.3-2,0.8-2.8l-85.5-44.2l-12,49.5
				c1.6,0.6,3,1.7,3.8,3.2c0.4,0.7,0.6,1.4,0.8,2.2L358.2,1238.7z M254.9,1242.3c0.3-0.2,0.6-0.4,0.9-0.6c1.3-0.8,2.9-1,4.4-0.8
				l12.1-49.8l-128-66.1c-0.2,0.3-0.4,0.6-0.6,0.8L254.9,1242.3z M124.7,1012.6c1.1,0.4,2.1,1.2,2.9,2.1c0.8,0.9,1.3,2.1,1.5,3.2
				l20.2-1.5c0-1.7,0.7-3.3,1.8-4.5c1.1-1.3,2.7-2.1,4.3-2.3l-2.6-91.4c-0.3,0-0.6-0.1-0.9-0.1L124.7,1012.6z M146.9,908.4
				c0.3-0.7,0.8-1.4,1.4-2L40,780.7c-0.2,0.1-0.4,0.3-0.6,0.4c-1.6,0.9-3.4,1.1-5.2,0.6c-1.7-0.5-3.2-1.6-4.2-3.1l-103.3,50.5
				c0.5,1.3,0.6,2.7,0.3,4.1L146.9,908.4z M-76.5,825.5L3.9,703.9l-69.5-157.5l-13.2,278.3C-78,824.8-77.2,825.1-76.5,825.5z
				 M-107,422.5c0.3-0.9,0.8-1.7,1.4-2.4l-83.1-86.3l-46,61.1L-107,422.5z M-235.6,393.8l46-61l-80.6-83.7c-0.3,0.2-0.6,0.5-0.9,0.6
				c-0.3,0.2-0.7,0.3-1.1,0.5L-235.6,393.8z M-237.2,392.7l-36.3-142.2c-1.4,0.2-2.9,0-4.2-0.6c-1.3-0.6-2.4-1.7-3-2.9
				c-0.7-1.3-1-2.7-0.8-4.2c0.2-1.4,0.8-2.8,1.8-3.8l-97-16.9c-0.3,1.2-0.9,2.2-1.8,3.1L-237.2,392.7z"/>
		</g>
		<path d="M-393.5,10.8c0.1-0.7,0.3-1.3,0.7-1.9c0.3-0.6,0.8-1.1,1.3-1.5c0.5-0.4,1.2-0.7,1.8-0.9c0.7-0.2,1.3-0.2,2-0.1
			c1.1,0.2,2.1,0.7,2.9,1.4c0.8,0.8,1.3,1.8,1.5,2.8L-266.6,3c0-0.2,0-0.4,0.1-0.6c0.1-0.7,0.3-1.3,0.7-1.9c0.3-0.6,0.8-1.1,1.3-1.5
			c0.5-0.4,1.2-0.7,1.8-0.9s1.3-0.2,2-0.1c0.7,0.1,1.3,0.3,1.9,0.7c0.6,0.3,1.1,0.8,1.5,1.3s0.7,1.2,0.9,1.8c0.2,0.7,0.2,1.3,0.1,2
			c-0.1,0.9-0.5,1.8-1.1,2.5c-0.6,0.7-1.4,1.3-2.3,1.6l18.5,77.2c0.5-0.1,1-0.1,1.5,0c0.9,0.1,1.8,0.5,2.5,1.1
			c0.7,0.6,1.3,1.4,1.6,2.2l50.5-13.2c-0.1-0.5-0.1-1,0-1.4c0.1-0.7,0.3-1.3,0.7-1.9c0.3-0.6,0.8-1.1,1.3-1.5
			c0.5-0.4,1.2-0.7,1.8-0.9c0.7-0.2,1.3-0.2,2-0.1c1.3,0.2,2.5,0.9,3.3,2c0.8,1.1,1.2,2.4,1,3.8l67.3,18.1c0.4-1.1,1.1-2.1,2.2-2.8
			c1-0.6,2.2-0.9,3.4-0.7c0.7,0.1,1.5,0.4,2.1,0.8l42.5-53.2c-0.6-0.6-1-1.3-1.3-2c-0.3-0.8-0.3-1.6-0.2-2.4
			c0.1-0.7,0.3-1.3,0.7-1.9c0.3-0.6,0.8-1.1,1.3-1.5c0.5-0.4,1.2-0.7,1.8-0.9c0.7-0.2,1.3-0.2,2-0.1c0.7,0.1,1.3,0.3,1.9,0.7
			c0.6,0.3,1.1,0.8,1.5,1.3s0.7,1.2,0.9,1.8c0.2,0.7,0.2,1.3,0.1,2c-0.1,0.6-0.3,1.2-0.6,1.8L0.6,71.6c0.6-0.7,1.3-1.2,2.1-1.5
			c0.8-0.3,1.7-0.4,2.6-0.3c1.3,0.2,2.5,0.9,3.3,1.9L81,25.2c-0.5-1-0.7-2-0.5-3.1c0.1-0.7,0.3-1.3,0.7-1.9s0.8-1.1,1.3-1.5
			c0.5-0.4,1.2-0.7,1.8-0.9c0.7-0.2,1.3-0.2,2-0.1c0.7,0.1,1.3,0.3,1.9,0.7c0.6,0.3,1.1,0.8,1.5,1.3c0.4,0.5,0.7,1.2,0.9,1.8
			c0.2,0.7,0.2,1.3,0.1,2c-0.1,0.8-0.5,1.6-1,2.3c-0.5,0.7-1.2,1.2-1.9,1.6l42,117c0.7-0.2,1.3-0.2,2-0.1c0.1,0,0.3,0,0.4,0.1
			l63-37.4c-0.4-0.9-0.6-1.9-0.4-2.9c0.1-0.7,0.3-1.3,0.7-1.9c0.3-0.6,0.8-1.1,1.3-1.5c0.5-0.4,1.2-0.7,1.8-0.9
			c0.7-0.2,1.3-0.2,2-0.1c0.7,0.1,1.3,0.3,1.9,0.7c0.6,0.3,1.1,0.8,1.5,1.3c0.4,0.5,0.7,1.2,0.9,1.8c0.2,0.7,0.2,1.3,0.1,2
			c-0.2,1.3-0.9,2.6-2,3.4c-1.1,0.8-2.5,1.2-3.8,1c-0.2,0-0.3-0.1-0.5-0.1l-54,153.7l0.3,0.2l-0.5,0.3l-0.6,1.8l-0.1-1.3L63,316.9
			c0.5,1,0.7,2,0.6,3.1c-0.2,1.1-0.6,2-1.4,2.8c-0.7,0.8-1.7,1.3-2.7,1.5l7.2,75.7c0.7,0,1.4,0.1,2,0.4c0.6,0.3,1.2,0.6,1.7,1.1
			c0.5,0.5,0.9,1.1,1.1,1.7c0.3,0.6,0.4,1.3,0.4,2c0,0.7-0.2,1.4-0.4,2c-0.3,0.6-0.7,1.2-1.2,1.7c-0.5,0.5-1.1,0.8-1.8,1.1
			c-0.7,0.2-1.3,0.3-2,0.3l82.4,189.6c0.8-0.3,1.6-0.3,2.3-0.2c0.7,0.1,1.3,0.3,1.9,0.7c0.6,0.3,1.1,0.8,1.5,1.3s0.7,1.2,0.9,1.8
			c0.2,0.7,0.2,1.3,0.1,2c-0.1,0.7-0.3,1.3-0.7,1.9c-0.3,0.6-0.8,1.1-1.3,1.5c-0.5,0.4-1.2,0.7-1.8,0.9c-0.7,0.2-1.3,0.2-2,0.1
			c-1.1-0.2-2.1-0.7-2.9-1.5L15.2,717.3c0.7,1,1,2.3,0.9,3.5c-0.2,1.2-0.8,2.4-1.7,3.2l43.4,57.9c0.6-0.4,1.3-0.6,2-0.7
			c0.7-0.1,1.5,0,2.2,0.2c0.7,0.2,1.3,0.6,1.9,1.1c0.5,0.5,1,1.1,1.3,1.7c0.3,0.7,0.5,1.4,0.5,2.1c0,0.7-0.2,1.4-0.5,2.1
			c-0.3,0.7-0.7,1.3-1.3,1.7s-1.2,0.8-1.9,1l13.4,64.5c0.7-0.1,1.4,0,2.1,0.3c0.7,0.2,1.3,0.6,1.8,1.1c0.5,0.5,0.9,1.1,1.2,1.7
			c0.3,0.7,0.4,1.4,0.4,2.1c0,0.7-0.2,1.4-0.5,2.1c-0.3,0.7-0.7,1.2-1.3,1.7c-0.5,0.5-1.2,0.8-1.9,1c-0.7,0.2-1.4,0.3-2.1,0.2
			c-0.3,0-0.5-0.1-0.8-0.2L28.2,974.9c0.7,0.4,1.3,1,1.8,1.6c0.5,0.7,0.8,1.5,0.9,2.3c0.1,0.8,0,1.7-0.3,2.4c-0.3,0.8-0.8,1.5-1.4,2
			c-0.6,0.5-1.4,0.9-2.2,1.1c-0.8,0.2-1.6,0.2-2.4,0c-0.8-0.2-1.5-0.6-2.2-1.1c-0.6-0.5-1.1-1.2-1.4-2l-65.4,18.6
			c0.1,0.6,0.2,1.3,0.1,1.9c-0.2,1.3-0.9,2.6-2,3.4s-2.5,1.1-3.8,1c-1.3-0.2-2.6-0.9-3.4-2c-0.8-1.1-1.2-2.5-1-3.8
			c0-0.1,0-0.2,0-0.2l-69.8-21.6c-0.4,0.8-1,1.4-1.7,1.9s-1.5,0.7-2.4,0.8c-0.9,0.1-1.7-0.1-2.5-0.4c-0.8-0.3-1.5-0.9-2-1.6
			c-0.5-0.7-0.9-1.5-1-2.3c-0.1-0.8-0.1-1.7,0.2-2.5c0.3-0.8,0.8-1.5,1.4-2.1c0.6-0.6,1.4-1,2.2-1.2l-5.2-95.7l-0.1,0
			c-0.8-0.1-1.5-0.4-2.1-0.8c-0.6-0.4-1.2-1-1.6-1.7c-0.4-0.7-0.6-1.4-0.7-2.2c0-0.8,0.1-1.6,0.4-2.3c0.3-0.7,0.8-1.4,1.3-1.9
			c0.6-0.5,1.3-0.9,2-1.1c0.8-0.2,1.5-0.2,2.3-0.1c0.8,0.1,1.5,0.5,2.1,0.9l53.7-61.4c-0.6-0.7-1-1.4-1.2-2.3
			c-0.2-0.9-0.2-1.8,0.1-2.6c0.3-0.8,0.7-1.6,1.4-2.2c0.6-0.6,1.4-1.1,2.3-1.3l-16.3-117.7c-0.7,0-1.5-0.1-2.2-0.4
			c-0.7-0.3-1.3-0.7-1.8-1.3c-0.5-0.6-0.9-1.2-1.1-1.9c-0.2-0.7-0.3-1.5-0.2-2.2c0.2-1.2,0.8-2.4,1.8-3.2l-36.8-53.4
			c-1.1,0.6-2.4,0.8-3.7,0.5c-1.2-0.3-2.3-1.1-3-2.2c-0.7-1.1-1-2.4-0.8-3.6c0.2-1.3,0.9-2.4,1.9-3.2l-56.5-89.6
			c-0.8,0.4-1.8,0.6-2.7,0.5c-0.9-0.1-1.9-0.4-2.6-1c-0.8-0.6-1.4-1.3-1.7-2.2c-0.4-0.9-0.5-1.8-0.3-2.8c0.2-0.9,0.6-1.8,1.2-2.5
			c0.6-0.7,1.4-1.2,2.3-1.5c0.9-0.3,1.9-0.3,2.8-0.1c0.9,0.2,1.8,0.7,2.4,1.4l54.7-43.8c-0.5-0.8-0.8-1.6-0.8-2.6
			c0-0.9,0.2-1.8,0.6-2.6c0.4-0.8,1.1-1.5,1.8-2c0.8-0.5,1.7-0.7,2.6-0.8l12.3-167.2l0.5,0c-0.9-0.1-1.7-0.5-2.4-1
			c-0.7-0.5-1.2-1.2-1.6-2l-62.7,20.4c0.2,0.7,0.2,1.5,0,2.2s-0.5,1.4-0.9,2c-0.5,0.6-1,1.1-1.7,1.4c-0.7,0.3-1.4,0.5-2.2,0.6
			c-0.8,0-1.5-0.1-2.2-0.4s-1.3-0.7-1.8-1.3c-0.5-0.6-0.9-1.2-1.1-1.9c-0.2-0.7-0.3-1.5-0.2-2.2c0.1-0.8,0.4-1.6,0.9-2.3
			c0.5-0.7,1.1-1.2,1.9-1.6l-52.1-132.7c-0.7,0.2-1.3,0.2-2,0.1c-0.7-0.1-1.3-0.3-1.9-0.7c-0.6-0.4-1.1-0.8-1.5-1.4
			c-0.4-0.5-0.7-1.2-0.8-1.8l-59.5,9.8c0,0.3,0,0.6-0.1,0.8c-0.1,0.9-0.5,1.7-1,2.4c-0.5,0.7-1.2,1.2-2,1.6
			c-0.8,0.4-1.7,0.5-2.5,0.4c-0.9-0.1-1.7-0.4-2.4-0.8c-0.7-0.5-1.3-1.1-1.7-1.9c-0.4-0.8-0.6-1.6-0.6-2.5c0-0.9,0.2-1.7,0.7-2.5
			c0.4-0.7,1-1.4,1.8-1.8l-66.9-157.8c-0.7,0.2-1.5,0.3-2.3,0.2c-0.7-0.1-1.3-0.3-1.9-0.7c-0.6-0.3-1.1-0.8-1.5-1.3
			c-0.4-0.5-0.7-1.2-0.9-1.8C-393.6,12.1-393.6,11.4-393.5,10.8z M-312.4,177.5l59.4-9.8c0-0.3,0-0.7,0-1c0.1-1,0.6-1.9,1.2-2.7
			l-44.8-49.8l-19,59.4c0.8,0.3,1.5,0.8,2,1.5C-312.9,175.9-312.5,176.7-312.4,177.5z M-188.1,306.5l104.9-68
			c-0.3-0.6-0.5-1.2-0.6-1.9c-0.1-0.7,0-1.3,0.2-2l-52.8-21.4l-52.8,92.3C-188.8,305.8-188.4,306.1-188.1,306.5z M-128.1,464.2
			c0,0.3-0.1,0.6-0.2,1l8.8,4.1l63-36.1l-71.7,28.9C-128.1,462.7-128,463.5-128.1,464.2z M-128.9,610.9l83.6-7c0-0.2,0-0.5,0-0.7
			c0.1-0.5,0.2-0.9,0.4-1.4l-59.1-34.3l-26.7,40.4C-129.8,608.6-129.2,609.7-128.9,610.9z M-128.9,970.9c0.3,0,0.7,0,1,0
			c0.8,0.1,1.6,0.5,2.3,1c0.7,0.5,1.2,1.2,1.6,1.9l43.9-18.3l-52.5-80.5c-0.5,0.2-1,0.2-1.4,0.3l3.1,57.2L-128.9,970.9z
			 M145.4,603.7c0.1-0.6,0.3-1.1,0.6-1.7l-86.5-62.3l-2.7,51.1c1.2,0.2,2.3,0.8,3.1,1.7c0.8,0.9,1.2,2.1,1.2,3.3L145.4,603.7z
			 M-102.8,100.2l52.1,17.7l-47.9-20.2c-0.4,0.7-1,1.3-1.8,1.8C-101.1,99.9-101.9,100.1-102.8,100.2z M-181,79.7
			c-0.7-0.1-1.3-0.3-1.9-0.7l-23.3,32l90.1,55.7c0.2-0.3,0.5-0.6,0.7-0.8L-177.5,79C-178.5,79.6-179.7,79.9-181,79.7z M-241.6,95.3
			c-1.3-0.2-2.4-1-3.2-2.1s-1.1-2.4-0.9-3.7c0.1-0.9,0.5-1.8,1.1-2.5c0.6-0.7,1.4-1.3,2.3-1.6l-18.2-76.2l12.5,152.8L-241.6,95.3z
			 M-236.5,93.3c-0.5,0.6-1.1,1.2-1.8,1.5c-0.7,0.4-1.5,0.5-2.3,0.5l-6.4,67c0.6,0.1,1.2,0.3,1.7,0.6l37.8-51.7L-236.5,93.3z
			 M-244.6,163.5c0.5,0.4,1,1,1.3,1.6c0.3,0.6,0.5,1.3,0.6,1.9l125.6,2.2c0-0.1,0-0.1,0-0.2c0.1-0.5,0.2-1.1,0.5-1.5l-90.1-55.7
			L-244.6,163.5z M-114.7,286.6l50.4,13.5c0.2-0.7,0.6-1.3,1.1-1.8c0.5-0.5,1.1-0.9,1.8-1.2L-72.3,261l-42.9,22.8
			C-114.8,284.7-114.6,285.7-114.7,286.6z M70.8,860c0.1-0.7,0.3-1.3,0.7-1.9c0.4-0.6,0.8-1.1,1.4-1.5l-25.5-43.4L-7.4,922.5
			c0.4,0.2,0.7,0.5,1,0.9l77.9-59.9C70.9,862.4,70.6,861.2,70.8,860z M35.6,798.4c-0.2,0-0.3-0.1-0.5-0.1L-7.3,920.2l54.1-107.9
			L38.5,798C37.6,798.4,36.6,798.6,35.6,798.4L35.6,798.4z M-9.4,921.8c0.2,0,0.3,0.1,0.5,0.1L34.2,798c-1-0.4-1.8-1.2-2.3-2.1
			l-87.8,39.8l43.9,86.4C-11.2,921.8-10.3,921.7-9.4,921.8L-9.4,921.8z M-68.8,800.5l100-7.2c0-0.2,0-0.4,0-0.7
			c0.1-0.9,0.5-1.7,1-2.4l-47.5-44.4l-54.6,52.3C-69.3,798.8-68.9,799.6-68.8,800.5L-68.8,800.5z M-15.2,744.5l22.2-21.2
			c-0.5-0.7-0.9-1.5-1-2.3c-0.1-0.8-0.1-1.7,0.2-2.5l-93.3-42.1c-0.1,0.2-0.3,0.4-0.4,0.5L-15.2,744.5z M-86.4,674.3
			c-0.1,0.4-0.2,0.8-0.4,1.2l93.2,42.1c0.5-0.8,1.1-1.5,2-1.9l-33.6-76.3l-61.5,32.5C-86.4,672.6-86.3,673.5-86.4,674.3L-86.4,674.3
			z M-24.7,638l76-40.2c-0.1-0.3-0.2-0.7-0.3-1.1l-86.2,7.1c0,0.2,0,0.4-0.1,0.7c-0.1,0.8-0.4,1.5-0.9,2.2s-1,1.2-1.7,1.6L-24.7,638
			z M72.7,219c-1.1-0.3-2.1-0.9-2.8-1.7l-56.9,37.5l42.9,60.1c0.9-0.5,1.8-0.7,2.8-0.7L72.7,219z M-52.8,38.9l8,44.9l44.2-8.3
			c0-0.4,0-0.8,0-1.2c0.1-0.6,0.3-1.2,0.6-1.8l-50.3-35.1C-50.9,38-51.8,38.6-52.8,38.9z M-0.4,76.3l-44.2,8.3l5.9,32.8
			c0.4,0,0.8,0,1.2,0c0.8,0.1,1.6,0.4,2.3,1l36-40C0.2,77.8-0.2,77.1-0.4,76.3L-0.4,76.3z M-97.9,94.7c0,0.4,0,0.7,0,1.1
			c-0.1,0.3-0.1,0.7-0.3,1l55.4,23.3c0.3-0.6,0.8-1.2,1.3-1.6c0.5-0.4,1.2-0.8,1.8-0.9l-5.9-32.7L-97.9,94.7z M-107,170.5
			c-0.1,0.4-0.2,0.9-0.4,1.3l42.8,23.1l24.1-67.7c-0.7-0.3-1.4-0.9-1.9-1.5l-65.2,41.7C-107,168.4-106.8,169.4-107,170.5z
			 M-73.7,235.2l61-9.5c0-0.1,0-0.3,0-0.4c0.1-0.4,0.2-0.9,0.4-1.3L-64,196.2l-12.6,35.3c0.7,0.3,1.4,0.9,1.9,1.5
			C-74.2,233.6-73.8,234.4-73.7,235.2L-73.7,235.2z M-39.5,598.8c0.4,0.1,0.8,0.2,1.1,0.3l28.7-57.4l-46.9-39.1
			c-0.4,0.2-0.9,0.3-1.3,0.3l17.3,95.9C-40.3,598.8-39.9,598.8-39.5,598.8z M4.9,503.7L-8.6,503l-45.8-2.3c-0.4,0.5-0.8,1-1.4,1.4
			l46.4,38.7l16.5-33.1c-0.7-0.4-1.3-1-1.7-1.8C5.1,505.3,4.9,504.5,4.9,503.7z M-37.6,599.5c0.6,0.4,1.1,0.9,1.5,1.5
			c0.4,0.6,0.7,1.3,0.8,2l68-5.6l18.2-1.5c0-0.2,0-0.4,0.1-0.7c0.1-0.8,0.4-1.5,0.8-2.2L-9,542.3L-37.6,599.5z M-53.5,498.6
			c-0.1,0.4-0.2,0.8-0.3,1.2l58.8,2.9c0.2-1.1,0.7-2.1,1.4-2.9l-24.6-30.1l-35.4,26.8C-53.4,497.2-53.4,497.9-53.5,498.6z
			 M-18.1,468.5l80.4-60.8c-0.2-0.4-0.4-0.8-0.5-1.2l-97.7,21.1l-9.4,2c0.1,0.7,0,1.4-0.2,2.1c-0.2,0.7-0.6,1.3-1.1,1.8L-18.1,468.5
			z M53.5,318c0.3-1,0.8-2,1.6-2.7l-42.9-60.2L-55,299.5c0.4,0.8,0.7,1.8,0.6,2.7L53.5,318z M127.4,152.9c-0.2-0.2-0.3-0.4-0.5-0.6
			l-76.2,42.1l19.6,16c0.6-0.6,1.3-1,2-1.3c0.8-0.3,1.6-0.3,2.4-0.2c0.8,0.1,1.6,0.4,2.3,0.9l15.6-17.7L127.4,152.9z M-8.3,231.1
			c-0.6-0.1-1.2-0.3-1.7-0.6l-46.2,67.4c0.3,0.2,0.5,0.5,0.7,0.7l67.2-44.2l-17-23.8C-6.2,231.1-7.3,231.3-8.3,231.1L-8.3,231.1z
			 M-9.5,221.3l-27.8-93.8c-0.6,0.1-1.2,0.1-1.7,0c-0.2,0-0.3-0.1-0.5-0.1l-24.1,67.8l51.8,27.9C-11.3,222.4-10.4,221.7-9.5,221.3
			L-9.5,221.3z M-34.6,126.1c-0.5,0.5-1.1,0.9-1.7,1.2L-8.6,221c0.6-0.1,1.2-0.1,1.7,0c0.7,0.1,1.4,0.4,2,0.7
			c0.6,0.4,1.1,0.9,1.5,1.5L49,194.3L-34.6,126.1z M-2.9,224c0.1,0.3,0.2,0.5,0.3,0.8l43.3-6.4l28.2-4.1c0-0.3,0-0.7,0-1
			c0.1-0.8,0.4-1.5,0.8-2.1l-19.9-16.3L-2.9,224z M69,215.2l-71.4,10.5c0,0.3,0,0.7,0,1c-0.2,1.3-0.9,2.5-2,3.3l16.9,23.8l56.9-37.5
			C69.2,216,69.1,215.6,69,215.2z M-55.8,305.5c-0.8,0.8-1.7,1.3-2.8,1.5l3.4,45.4l5.4,72.7l0.2,0c1,0.2,2,0.6,2.7,1.3l61.7-63.1
			L-55.8,305.5z M-58.7,296.8c0.6,0.1,1.2,0.3,1.7,0.6l46-67.6c-0.3-0.3-0.6-0.6-0.8-0.9l-59.6,31.7l10.9,36.3
			C-59.9,296.8-59.3,296.7-58.7,296.8L-58.7,296.8z M-33.3,123.8c-0.1,0.6-0.4,1.1-0.7,1.6l83.9,68.4l76.6-42.3
			c-0.3-0.7-0.5-1.5-0.5-2.4L-33.3,123.8z M53.4,319l-107.9-15.9c-0.1,0.6-0.4,1.1-0.7,1.7l70.7,57.9l39.1-40
			C53.7,321.6,53.3,320.3,53.4,319z M15.5,363.8l-61.8,63.2c0.4,0.5,0.6,1.1,0.8,1.6l107.1-23.1c-0.1-0.5-0.1-0.9,0-1.4
			c0.1-0.8,0.4-1.5,0.8-2.1L15.5,363.8z M62.9,408.5l-80.3,60.7l24.5,30c1.1-0.7,2.4-1,3.7-0.9c0.4,0.1,0.9,0.2,1.3,0.4l51.7-89.5
			C63.4,409,63.1,408.8,62.9,408.5z M9.3,508.5c-0.4-0.1-0.8-0.2-1.2-0.3l-16.6,33.2l61,50.9c0.3-0.3,0.6-0.5,0.9-0.7l-41.6-83.3
			C11,508.6,10.1,508.7,9.3,508.5z M-54,495.6l35.1-26.6l-28.5-34.9c-0.8,0.6-1.8,1-2.8,1l-7.4,57.6c0.8,0.1,1.5,0.5,2.2,1
			C-54.8,494.3-54.3,494.9-54,495.6z M-71.7,259.7l59.4-31.6c-0.2-0.4-0.3-0.9-0.4-1.4l-60.9,9.5c0,0.3,0,0.5,0,0.8
			c-0.1,1-0.6,1.9-1.2,2.6c-0.7,0.7-1.5,1.3-2.5,1.5L-71.7,259.7z M-78,231.1c0.2,0,0.3,0.1,0.5,0.1l12.6-35.4l-43-23.1
			c-0.4,0.6-0.9,1.1-1.6,1.5l28.8,57.2C-79.8,231-78.9,230.9-78,231.1L-78,231.1z M-176.7,78.4l62.1,86.9c1.1-0.6,2.3-0.8,3.5-0.6
			c1.2,0.2,2.3,0.9,3.1,1.9l65.2-41.7c-0.5-1-0.7-2-0.5-3.1c0-0.1,0-0.3,0.1-0.4l-132.2-44.8C-175.7,77.3-176.2,77.9-176.7,78.4z
			 M-98.1,93.8l52.4-9.9l-8-44.9c-0.4,0-0.8,0-1.2,0c-0.7-0.1-1.5-0.4-2.1-0.8l-42.5,53.1C-98.8,92-98.3,92.9-98.1,93.8z M3.8,80
			c-0.8-0.1-1.6-0.5-2.3-1L-34,118.5l47.1-38l-4.4-2.6c-0.5,0.8-1.3,1.4-2.2,1.7C5.7,80,4.7,80.1,3.8,80z M-34,119.7
			c0.6,0.9,0.9,2,0.8,3.2l159,25.3l0.3-0.2c0.1-0.3,0.2-0.5,0.3-0.8L14,81.1L-34,119.7z M128.1,153.5l-50.4,57
			c0.5,0.6,0.9,1.2,1.2,2c0.2,0.7,0.3,1.5,0.2,2.3c-0.2,1.2-0.8,2.3-1.6,3.1c-0.9,0.8-2,1.3-3.2,1.3l20.9,13.2l33.5-78.5
			C128.4,153.8,128.3,153.6,128.1,153.5z M73.6,219.9l-13.9,94.4l0.4,0.1l34.7-81.2L73.6,219.9z M57.7,324.3
			c-0.9-0.1-1.8-0.5-2.5-1.1l-39,40L63,401.4c0.7-0.7,1.7-1.2,2.7-1.4l-7.2-75.6C58.2,324.4,58,324.3,57.7,324.3L57.7,324.3z
			 M12.9,499.2c0.8,0.5,1.4,1.3,1.8,2.2c0.4,0.9,0.5,1.9,0.4,2.8c-0.1,0.7-0.3,1.3-0.7,1.9l44.2,31.9L65.5,410
			c-0.3-0.1-0.6-0.2-0.9-0.3L12.9,499.2z M13.9,506.9c-0.4,0.4-0.8,0.8-1.2,1l41.6,83.2c0.5-0.2,1.1-0.3,1.6-0.3l2.7-51.7
			L13.9,506.9z M51.8,598.7l-76.1,40.2l33.6,76.4c0.8-0.3,1.6-0.3,2.4-0.2c0.2,0,0.4,0.1,0.5,0.1l41.7-114.7
			C53,600.1,52.3,599.5,51.8,598.7z M10.2,725.3c-1-0.1-1.9-0.6-2.6-1.2l-22.1,21.1l47.5,44.4c0.4-0.3,0.8-0.6,1.3-0.8l-22.1-63.6
			C11.5,725.3,10.8,725.4,10.2,725.3z M41.4,794.1c-0.1,0.7-0.3,1.3-0.7,1.9c-0.4,0.6-0.8,1.1-1.4,1.5l8,13.7l10.3-20.6
			c-0.9-0.6-1.6-1.4-2-2.4l-14.3,4.2C41.5,792.9,41.5,793.5,41.4,794.1z M59.7,791.3c-0.4-0.1-0.8-0.2-1.1-0.3l-10.6,21.2l25.8,43.9
			c0.2-0.1,0.4-0.2,0.7-0.3L61,791.3C60.5,791.4,60.1,791.4,59.7,791.3z M-5.8,924.1c0.7,1.1,0.9,2.3,0.7,3.6
			c-0.2,1.2-0.8,2.4-1.8,3.2L1.5,943l70.6-78.7L-5.8,924.1z M-7.6,931.3c-1,0.5-2.1,0.8-3.2,0.6c-0.4-0.1-0.9-0.2-1.3-0.4L-47,996.4
			l0.3,0.2l47.5-53L-7.6,931.3z M-48.6,995.9c0.2,0,0.5,0.1,0.7,0.2l35-65c-0.7-0.5-1.3-1.1-1.7-1.9L-78.7,956l26.6,40.7
			C-51.1,996-49.8,995.7-48.6,995.9z M-15,928.4c-0.2-0.7-0.3-1.5-0.2-2.3c0-0.3,0.1-0.6,0.2-0.9l-115.4-51.8
			c-0.4,0.5-0.9,0.9-1.4,1.2l52.6,80.5L-15,928.4z M-129.3,871c-0.1,0.6-0.3,1.1-0.5,1.6l115.3,51.7c0.4-0.7,1-1.4,1.7-1.8
			l-43.9-86.5l-72.6,32.9C-129.2,869.6-129.2,870.3-129.3,871z M-56.3,834.8l87.8-39.8c-0.1-0.3-0.2-0.5-0.2-0.8l-100,7.2
			c0,0.2,0,0.4-0.1,0.7c-0.1,0.7-0.4,1.5-0.8,2.1s-1,1.2-1.6,1.5L-56.3,834.8z M-73.1,796.3c0.9,0.1,1.8,0.5,2.5,1.1l54.6-52.2
			l-72.4-67.6c-0.6,0.5-1.3,0.8-2.1,1l16.3,117.6C-73.8,796.2-73.4,796.2-73.1,796.3L-73.1,796.3z M-87,671l61.5-32.5l-13.1-29.7
			c-0.7,0.2-1.4,0.3-2.2,0.2c-0.7-0.1-1.4-0.3-2.1-0.7l-45,61.5C-87.6,670.2-87.3,670.6-87,671z M-44.4,600.9c0.7-1,1.7-1.6,2.8-2
			l-17.3-96c-0.1,0-0.3,0-0.4,0c-0.6-0.1-1.2-0.3-1.7-0.6l-42.6,64.3L-44.4,600.9z M-61.8,501.8c-0.9-0.7-1.6-1.8-1.8-2.9
			l-127.2,14.6c0,0.3,0,0.6-0.1,0.9c-0.1,0.5-0.2,0.9-0.4,1.4l86.8,50.4L-61.8,501.8z M-190.9,512.6L-63.7,498c0-0.3,0-0.6,0.1-0.9
			c0-0.3,0.1-0.6,0.2-1l-56.1-25.8l-71.7,41.2C-191.1,511.8-191,512.2-190.9,512.6z M-63,495.3c0.5-0.8,1.1-1.4,1.9-1.9
			c0.8-0.4,1.7-0.7,2.6-0.7l7.4-57.5l0,0c-0.7-0.1-1.3-0.3-1.9-0.7c-0.6-0.4-1.1-0.8-1.5-1.4l-63.9,36.7L-63,495.3z M-50.8,425
			l-8.8-118c-0.2,0-0.4,0-0.7,0c-0.7-0.1-1.3-0.3-1.9-0.7c-0.6-0.3-1.1-0.8-1.5-1.3c-0.4-0.5-0.7-1.2-0.9-1.8
			c-0.2-0.7-0.2-1.3-0.1-2c0,0,0-0.1,0-0.1l-50.3-13.5c-0.3,1.2-1.1,2.2-2.1,2.9l65.1,134.8C-51.5,425.1-51.2,425.1-50.8,425z
			 M-115.7,283.1l43.1-23l-5.7-18.9c-0.4,0-0.8,0-1.2,0c-0.8-0.1-1.6-0.4-2.2-0.9l-34.6,42.1C-116.1,282.6-115.9,282.8-115.7,283.1z
			 M-83.3,233.8c0.4-0.8,1-1.5,1.8-2l-28.8-57.3c-0.6,0.3-1.3,0.4-2,0.4c-0.7,0-1.4-0.2-2-0.5l-21.7,38L-83.3,233.8z M-115,173.9
			c-0.6-0.4-1.1-1-1.5-1.7c-0.4-0.7-0.6-1.4-0.7-2.1l-125.6-2.2c0,0.1,0,0.2,0,0.3c0,0.2-0.1,0.5-0.2,0.7l106.1,43.1L-115,173.9z
			 M-250.9,163.4c0.6-0.5,1.3-0.8,2.1-1L-261.5,8.3c-0.2,0-0.5,0-0.7,0l-0.4-0.1l-33.6,105.1L-250.9,163.4z M-263.5,7.8
			c-0.8-0.3-1.5-0.9-2-1.6c-0.5-0.7-0.9-1.5-1-2.3l-116.8,7.7c0,0.2,0,0.4,0,0.6c-0.1,1-0.6,2-1.3,2.7l87.8,97.5L-263.5,7.8z
			 M-235.6,91c-0.1,0.5-0.2,1.1-0.5,1.5l29,18l23.4-32c-0.7-0.6-1.2-1.4-1.5-2.2l-50.5,13.2C-235.5,89.9-235.5,90.5-235.6,91z
			 M-106.3,99c-0.7-0.6-1.2-1.3-1.5-2.1c-0.3-0.8-0.4-1.7-0.3-2.5l-57.7-15.5L-106.3,99z M9.6,75.7c-0.1,0.5-0.2,1-0.4,1.4l4.7,2.8
			L78.4,28L9.1,72.6C9.6,73.5,9.7,74.6,9.6,75.7z M86.9,27.8c-0.7,0.2-1.3,0.2-2,0.1c-1.1-0.2-2.1-0.7-2.9-1.5L14.8,80.4l112.2,66
			c0.5-0.7,1.2-1.3,2-1.7L86.9,27.8z M197.7,109.5c-0.8-0.4-1.5-0.9-2-1.6l-62.3,37c1,0.5,1.8,1.3,2.3,2.2c0.5,1,0.7,2.1,0.5,3.1
			c-0.2,1-0.6,2-1.3,2.8s-1.7,1.3-2.7,1.5l12.1,107.2L197.7,109.5z M143.4,262.8l-12.3-108.3c-0.3,0-0.6,0-0.8-0.1
			c-0.3,0-0.6-0.1-0.8-0.2l-33.6,78.6L143.4,262.8z M143.1,263.7l-47.6-30l-34.6,81c0.6,0.3,1.2,0.8,1.6,1.3L143.1,263.7z
			 M66.3,412.1l-6.7,126.4l87,62.7c0.4-0.5,0.9-0.8,1.4-1.1L66.3,412.1z M146.2,607.5c-0.6-0.8-0.9-1.9-0.9-2.9l-84.2-7.8
			c-0.2,1.3-1,2.4-2.1,3.2c-1.1,0.8-2.4,1.1-3.7,0.9c-0.2,0-0.4-0.1-0.5-0.1L13.1,715.6c0.5,0.3,1,0.6,1.4,1L146.2,607.5z
			 M13.6,724.6c-0.2,0.1-0.4,0.2-0.6,0.3l22.1,63.6c0.6-0.2,1.3-0.2,2-0.1c0.9,0.1,1.7,0.5,2.4,1.1c0.7,0.6,1.2,1.3,1.6,2.1
			l14.3-4.2c-0.1-0.6-0.1-1.2,0-1.7c0.2-1.2,0.7-2.3,1.6-3.1L13.6,724.6z M73.5,865.2c-0.2-0.1-0.4-0.3-0.6-0.4L2,943.7l21.3,31.1
			c1-0.5,2.1-0.8,3.2-0.6c0.3,0,0.5,0.1,0.8,0.2L73.5,865.2z M20.7,980.3c-0.1-0.6-0.1-1.1,0-1.7c0.2-1.3,0.8-2.4,1.8-3.2l-21.2-31
			l-47.3,52.7c0.5,0.5,1,1.1,1.3,1.7L20.7,980.3z M-54.1,999.1c0.3-0.7,0.7-1.3,1.2-1.8l-26.7-40.9l-44.1,18.4
			c0.2,0.7,0.2,1.3,0.1,2c0,0.3-0.1,0.6-0.2,0.9L-54.1,999.1z M-130.6,866.8c0.4,0.4,0.7,0.8,0.9,1.3l72.5-32.9L-72,806.1
			c-0.8,0.3-1.7,0.4-2.6,0.3c-0.8-0.1-1.7-0.5-2.3-1L-130.6,866.8z M-94,669.1c0.8-0.5,1.7-0.7,2.7-0.6c0.9,0,1.8,0.3,2.6,0.8
			l45-61.5c-0.9-0.8-1.5-1.8-1.7-3l-83.6,7c0,0.2,0,0.5,0,0.7c-0.2,1.2-0.8,2.4-1.8,3.2L-94,669.1z M-136.3,607.2
			c0.7-0.4,1.6-0.6,2.4-0.6c0.8,0,1.6,0.2,2.4,0.6l26.7-40.3l-86.8-50.4c-0.3,0.4-0.7,0.8-1.1,1.1L-136.3,607.2z M-190.8,510.1
			l70.3-40.3l-8.2-3.8c-0.5,0.9-1.3,1.6-2.2,2.1c-0.9,0.4-2,0.6-3,0.5c-1.1-0.2-2.2-0.7-2.9-1.5L-190.8,510.1z M-132.4,458.4
			c0.8,0.1,1.5,0.4,2.2,0.9c0.6,0.5,1.2,1.1,1.5,1.8l73.3-29.5c-0.2-0.7-0.3-1.5-0.2-2.2c0.1-0.8,0.4-1.6,0.9-2.2
			c0.5-0.7,1.1-1.2,1.8-1.6l-65-134.7c-0.7,0.3-1.5,0.5-2.3,0.4L-132.4,458.4z M-124.8,287.3c-0.2-1-0.1-2,0.2-3
			c0.4-0.9,1-1.8,1.8-2.3c0.8-0.6,1.8-0.9,2.8-1c1,0,2,0.2,2.9,0.8l34.7-42.1c-0.1-0.1-0.2-0.2-0.3-0.4l-104.9,68
			c0.1,0.1,0.1,0.2,0.2,0.4L-124.8,287.3z M-193.6,304.8c1.2-0.3,2.4-0.3,3.5,0.3l52.8-92.2l-106-43c-0.5,1-1.4,1.8-2.4,2.3
			L-193.6,304.8z M-319.2,173.8c0.8-0.3,1.7-0.4,2.6-0.3l0.3,0.1l19.1-60l-88.2-97.9c-0.2,0.2-0.4,0.3-0.6,0.4L-319.2,173.8z"/>
		<g>
			
				<radialGradient id="SVGID_2_" cx="383.4903" cy="769.9948" r="1" gradientTransform="matrix(7.4937 -5.9902 -5.9902 -7.4937 1729.0262 8186.6006)" gradientUnits="userSpaceOnUse">
				<stop  offset="0" style="stop-color:#000000"/>
				<stop  offset="1" style="stop-color:#000000"/>
			</radialGradient>
			<path class="st5" d="M4.4,141.4c-1.2-1.5-2.8-2.6-4.6-3.1c-1.8-0.6-3.8-0.6-5.6-0.1c-1.8,0.5-3.4,1.6-4.7,3.1
				c-1.2,1.5-2,3.2-2.2,5.1c-0.2,1.9,0.2,3.8,1,5.5c0.9,1.7,2.2,3.1,3.9,4c1.7,0.9,3.6,1.3,5.5,1.1c1.9-0.2,3.7-0.9,5.2-2.1
				c2-1.6,3.2-3.9,3.5-6.4C6.7,145.9,6,143.4,4.4,141.4z"/>
		</g>
		<g>
			
				<radialGradient id="SVGID_3_" cx="383.591" cy="770.126" r="1" gradientTransform="matrix(7.4774 -6.0213 -6.0213 -7.4774 1763.5507 8488.1172)" gradientUnits="userSpaceOnUse">
				<stop  offset="0" style="stop-color:#000000"/>
				<stop  offset="1" style="stop-color:#000000"/>
			</radialGradient>
			<path class="st6" d="M9.7,430.5c-5.3,0.1-9.7-4.1-9.7-9.4c-0.1-5.3,4.1-9.6,9.4-9.7c5.3-0.1,9.7,4.1,9.7,9.4
				C19.2,426.1,15,430.4,9.7,430.5z"/>
		</g>
		<g>
			
				<radialGradient id="SVGID_4_" cx="383.4903" cy="769.9948" r="1" gradientTransform="matrix(7.4937 -5.9902 -5.9902 -7.4937 1745.8798 8687.5508)" gradientUnits="userSpaceOnUse">
				<stop  offset="0" style="stop-color:#000000"/>
				<stop  offset="1" style="stop-color:#000000"/>
			</radialGradient>
			<path class="st7" d="M23,641.6c-1.2-1.5-2.8-2.6-4.6-3.1c-1.8-0.6-3.8-0.6-5.6-0.1c-1.8,0.5-3.4,1.6-4.7,3.1
				c-1.2,1.5-2,3.2-2.2,5.1c-0.2,1.9,0.2,3.8,1,5.5c0.9,1.7,2.2,3.1,3.9,4c1.7,0.9,3.6,1.3,5.5,1.1c1.9-0.2,3.7-0.9,5.2-2.1
				c2-1.6,3.2-3.9,3.5-6.4C25.4,646.1,24.6,643.6,23,641.6z"/>
		</g>
	</g>
</g>
</svg>
