<?xml version="1.0" encoding="utf-8"?>
<!-- Generator: Adobe Illustrator 21.0.0, SVG Export Plug-In . SVG Version: 6.00 Build 0)  -->
<svg version="1.1" id="Layer_1" xmlns="http://www.w3.org/2000/svg" xmlns:xlink="http://www.w3.org/1999/xlink" x="0px" y="0px"
	 viewBox="0 0 193 429.1" style="enable-background:new 0 0 193 429.1;" xml:space="preserve">
<style type="text/css">
	.st0{opacity:0.5;fill:#FFFFFF;}
</style>
<path class="st0" d="M291-42.7c-0.1-0.3-0.3-0.6-0.5-0.8c-0.2-0.2-0.5-0.4-0.7-0.6c-0.3-0.1-0.6-0.2-0.9-0.2c-0.3,0-0.6,0-0.9,0.1
	c-0.5,0.2-0.9,0.5-1.2,0.9c-0.3,0.4-0.4,0.9-0.4,1.4L232-35.6c0-0.1,0-0.2-0.1-0.3c-0.1-0.3-0.3-0.6-0.5-0.8
	c-0.2-0.2-0.5-0.4-0.7-0.6c-0.3-0.1-0.6-0.2-0.9-0.2c-0.3,0-0.6,0-0.9,0.1c-0.3,0.1-0.6,0.3-0.8,0.5c-0.2,0.2-0.4,0.5-0.6,0.7
	c-0.1,0.3-0.2,0.6-0.2,0.9c0,0.3,0,0.6,0.1,0.9c0.1,0.4,0.4,0.8,0.7,1.1c0.3,0.3,0.7,0.5,1.2,0.5l-2,37c-0.2,0-0.5,0.1-0.7,0.1
	c-0.4,0.1-0.8,0.4-1.1,0.7c-0.3,0.3-0.5,0.7-0.5,1.2l-24.3-1.8c0-0.2-0.1-0.4-0.1-0.7c-0.1-0.3-0.3-0.6-0.5-0.8
	c-0.2-0.2-0.5-0.4-0.7-0.6c-0.3-0.1-0.6-0.2-0.9-0.2c-0.3,0-0.6,0-0.9,0.1c-0.6,0.2-1.1,0.6-1.4,1.2c-0.3,0.6-0.3,1.2-0.1,1.8
	l-29.3,14c-0.3-0.5-0.7-0.9-1.2-1.1c-0.5-0.2-1.1-0.2-1.6,0c-0.3,0.1-0.6,0.3-0.9,0.5l-24-20.8c0.2-0.3,0.4-0.7,0.4-1
	c0.1-0.4,0-0.8-0.1-1.1c-0.1-0.3-0.3-0.6-0.5-0.8c-0.2-0.2-0.5-0.4-0.7-0.6c-0.3-0.1-0.6-0.2-0.9-0.2s-0.6,0-0.9,0.1
	c-0.3,0.1-0.6,0.3-0.8,0.5c-0.2,0.2-0.4,0.5-0.6,0.7c-0.1,0.3-0.2,0.6-0.2,0.9c0,0.3,0,0.6,0.1,0.9c0.1,0.3,0.2,0.5,0.4,0.8
	l-20.1,20.4c-0.3-0.3-0.7-0.4-1.1-0.5c-0.4-0.1-0.8,0-1.2,0.1c-0.6,0.2-1.1,0.6-1.3,1.2L74.3,3.8c0.1-0.5,0.1-1,0-1.5
	c-0.1-0.3-0.3-0.6-0.5-0.8c-0.2-0.2-0.5-0.4-0.7-0.6c-0.3-0.1-0.6-0.2-0.9-0.2c-0.3,0-0.6,0-0.9,0.1C71,1,70.7,1.1,70.5,1.3
	S70,1.8,69.9,2.1c-0.1,0.3-0.2,0.6-0.2,0.9c0,0.3,0,0.6,0.1,0.9c0.1,0.4,0.3,0.7,0.6,1c0.3,0.3,0.6,0.5,1,0.6L62,62.7
	c-0.3,0-0.6,0-0.9,0.1c-0.1,0-0.1,0-0.2,0.1L28.8,51c0.1-0.5,0.1-0.9,0-1.4c-0.1-0.3-0.3-0.6-0.5-0.8s-0.5-0.4-0.7-0.6
	c-0.3-0.1-0.6-0.2-0.9-0.2c-0.3,0-0.6,0-0.9,0.1c-0.3,0.1-0.6,0.3-0.8,0.5c-0.2,0.2-0.4,0.5-0.6,0.7c-0.1,0.3-0.2,0.6-0.2,0.9
	c0,0.3,0,0.6,0.1,0.9c0.2,0.6,0.6,1.1,1.2,1.4c0.6,0.3,1.2,0.3,1.8,0.1c0.1,0,0.1-0.1,0.2-0.1l37.7,66l-0.1,0.1l0.3,0.1l0.4,0.8
	l0-0.6l41.4,17.2c-0.2,0.5-0.2,1,0,1.5c0.2,0.5,0.5,0.9,0.9,1.2c0.4,0.3,0.9,0.4,1.4,0.5l3.1,35.3c-0.3,0-0.6,0.2-0.9,0.3
	c-0.3,0.2-0.5,0.4-0.7,0.7c-0.2,0.3-0.3,0.6-0.4,0.9c-0.1,0.3-0.1,0.6,0,1c0.1,0.3,0.2,0.6,0.4,0.9c0.2,0.3,0.4,0.5,0.7,0.7
	c0.3,0.2,0.6,0.3,0.9,0.3c0.3,0.1,0.6,0,1,0l-21.9,94c-0.4-0.1-0.7,0-1.1,0.1c-0.3,0.1-0.6,0.3-0.8,0.5c-0.2,0.2-0.4,0.5-0.6,0.7
	c-0.1,0.3-0.2,0.6-0.2,0.9c0,0.3,0,0.6,0.1,0.9c0.1,0.3,0.3,0.6,0.5,0.8c0.2,0.2,0.5,0.4,0.7,0.6c0.3,0.1,0.6,0.2,0.9,0.2
	c0.3,0,0.6,0,0.9-0.1c0.5-0.2,0.9-0.5,1.2-0.9l69.6,39c-0.2,0.5-0.3,1.1-0.1,1.7s0.5,1,1,1.3l-15,30.2c-0.3-0.1-0.7-0.2-1-0.2
	c-0.3,0-0.7,0.1-1,0.3c-0.3,0.2-0.6,0.4-0.8,0.6c-0.2,0.3-0.4,0.6-0.4,0.9c-0.1,0.3-0.1,0.7,0,1c0.1,0.3,0.2,0.7,0.4,0.9
	c0.2,0.3,0.4,0.5,0.7,0.7c0.3,0.2,0.6,0.3,1,0.3l-0.7,30.7c-0.3,0-0.7,0.1-0.9,0.3c-0.3,0.2-0.5,0.4-0.7,0.7
	c-0.2,0.3-0.3,0.6-0.4,0.9c-0.1,0.3-0.1,0.7,0,1c0.1,0.3,0.2,0.6,0.4,0.9c0.2,0.3,0.4,0.5,0.7,0.7c0.3,0.2,0.6,0.3,0.9,0.3
	c0.3,0,0.7,0,1-0.1c0.1,0,0.2-0.1,0.3-0.2l30.4,46.3c-0.3,0.2-0.5,0.5-0.7,0.9c-0.2,0.4-0.2,0.7-0.2,1.1c0,0.4,0.1,0.8,0.3,1.1
	c0.2,0.3,0.5,0.6,0.8,0.8c0.3,0.2,0.7,0.3,1.1,0.3c0.4,0,0.8,0,1.1-0.2c0.4-0.2,0.7-0.4,0.9-0.7c0.2-0.3,0.4-0.7,0.5-1l31.6,3
	c0,0.3,0,0.6,0.1,0.9c0.2,0.6,0.6,1.1,1.2,1.4c0.6,0.3,1.2,0.3,1.8,0.1c0.6-0.2,1.1-0.6,1.4-1.2c0.3-0.6,0.3-1.2,0.1-1.8
	c0,0,0-0.1,0-0.1l30.2-15.8c0.2,0.3,0.6,0.6,0.9,0.7c0.4,0.2,0.8,0.2,1.2,0.2c0.4,0,0.8-0.2,1.1-0.4c0.3-0.2,0.6-0.5,0.8-0.9
	c0.2-0.4,0.3-0.7,0.3-1.1c0-0.4-0.1-0.8-0.3-1.1c-0.2-0.3-0.5-0.6-0.8-0.8c-0.3-0.2-0.7-0.3-1.1-0.3l-5.7-44.4h0
	c0.3-0.1,0.7-0.3,0.9-0.6c0.3-0.3,0.5-0.6,0.6-0.9c0.1-0.3,0.2-0.7,0.1-1.1c0-0.4-0.2-0.7-0.4-1c-0.2-0.3-0.5-0.6-0.8-0.7
	c-0.3-0.2-0.7-0.3-1-0.3c-0.4,0-0.7,0-1.1,0.2c-0.3,0.1-0.6,0.3-0.9,0.6l-29.8-23.7c0.2-0.3,0.3-0.8,0.4-1.2c0-0.4-0.1-0.8-0.3-1.2
	c-0.2-0.4-0.5-0.7-0.8-0.9c-0.3-0.2-0.7-0.4-1.2-0.4l-2.4-55.4c0.3-0.1,0.7-0.2,1-0.4c0.3-0.2,0.5-0.4,0.7-0.7
	c0.2-0.3,0.3-0.6,0.3-1c0-0.3,0-0.7-0.1-1c-0.2-0.6-0.6-1-1.1-1.3l12.4-27.6c0.6,0.2,1.2,0.2,1.7-0.1c0.5-0.2,1-0.7,1.2-1.2
	c0.2-0.6,0.3-1.2,0.1-1.7s-0.6-1-1.1-1.3l18.4-45.9c0.4,0.1,0.9,0.1,1.3,0c0.4-0.1,0.8-0.3,1.1-0.7c0.3-0.3,0.5-0.7,0.6-1.2
	c0.1-0.4,0.1-0.9-0.1-1.3c-0.2-0.4-0.4-0.8-0.8-1.1c-0.3-0.3-0.8-0.4-1.2-0.5c-0.4-0.1-0.9,0-1.3,0.2c-0.4,0.2-0.7,0.5-1,0.8
	l-28.8-15.5c0.2-0.4,0.2-0.8,0.2-1.2c-0.1-0.4-0.2-0.8-0.5-1.2c-0.3-0.3-0.6-0.6-1-0.7c-0.4-0.2-0.8-0.2-1.3-0.1l-19.7-75.7
	l-0.2,0.1c0.4-0.1,0.7-0.4,1-0.7c0.3-0.3,0.5-0.7,0.6-1.1l30.5,4.1c0,0.4,0,0.7,0.2,1c0.1,0.3,0.3,0.6,0.6,0.8s0.6,0.4,0.9,0.5
	c0.3,0.1,0.7,0.1,1,0.1c0.3-0.1,0.7-0.2,1-0.4c0.3-0.2,0.5-0.4,0.7-0.7c0.2-0.3,0.3-0.6,0.3-1c0-0.3,0-0.7-0.1-1
	c-0.1-0.4-0.3-0.7-0.6-1c-0.3-0.3-0.6-0.5-1-0.6l12.7-65.3c0.3,0,0.6,0,0.9-0.1c0.3-0.1,0.6-0.3,0.8-0.5c0.2-0.2,0.4-0.5,0.6-0.8
	c0.1-0.3,0.2-0.6,0.2-0.9l28.1-0.5c0,0.1,0.1,0.3,0.1,0.4c0.1,0.4,0.3,0.7,0.6,1c0.3,0.3,0.7,0.5,1,0.6c0.4,0.1,0.8,0.1,1.2,0
	c0.4-0.1,0.7-0.3,1-0.6c0.3-0.3,0.5-0.6,0.6-1c0.1-0.4,0.1-0.8,0.1-1.2c-0.1-0.4-0.3-0.8-0.5-1.1c-0.3-0.3-0.6-0.5-1-0.7l17.4-78.1
	c0.4,0,0.7,0,1.1-0.1c0.3-0.1,0.6-0.3,0.8-0.5c0.2-0.2,0.4-0.5,0.6-0.7c0.1-0.3,0.2-0.6,0.2-0.9C291.1-42.1,291.1-42.4,291-42.7z
	 M267.7,40.7l-28.1,0.5c0-0.2-0.1-0.3-0.1-0.4c-0.2-0.4-0.4-0.8-0.8-1.1L255.1,13l13.7,25.7c-0.3,0.2-0.6,0.5-0.8,0.9
	C267.8,39.9,267.7,40.3,267.7,40.7z M221.5,110.3l-53.9-22.4c0.1-0.3,0.1-0.6,0.1-0.9c0-0.3-0.1-0.6-0.3-0.9l22.4-14.3l32,37.9
	C221.8,109.9,221.7,110.1,221.5,110.3z M207.3,187.8c0.1,0.1,0.1,0.3,0.2,0.4l-3.7,2.6l-31.9-11.3l35.4,7.2
	C207.1,187.1,207.2,187.4,207.3,187.8z M220,255l-38.9,3.8c0-0.1,0-0.2-0.1-0.3c-0.1-0.2-0.2-0.4-0.3-0.6l24.3-20.7l15.7,16.3
	C220.2,253.9,220,254.4,220,255z M250.2,420.3c-0.2,0-0.3,0.1-0.5,0.1c-0.4,0.1-0.7,0.3-1,0.6c-0.3,0.3-0.5,0.6-0.6,1l-21.7-4.7
	l17.3-41.4c0.2,0,0.5,0,0.7,0l3.4,26.5L250.2,420.3z M93.4,274.8c-0.1-0.3-0.2-0.5-0.4-0.7l34.5-35.9l5.5,23.2
	c-0.5,0.2-1,0.6-1.3,1.1c-0.3,0.5-0.4,1.1-0.3,1.6L93.4,274.8z M165,22.8l-22.4,12.5L162.9,22c0.3,0.3,0.6,0.5,1,0.7
	C164.2,22.8,164.6,22.8,165,22.8z M199.2,6.8c0.3-0.1,0.6-0.3,0.8-0.5l13.4,12.7l-36.7,33.1c-0.1-0.1-0.3-0.2-0.4-0.3l21.2-45.1
	C198,7,198.6,7,199.2,6.8z M228.3,8.9c0.6-0.2,1-0.7,1.3-1.2c0.3-0.6,0.3-1.2,0.1-1.8c-0.1-0.4-0.4-0.8-0.7-1.1
	c-0.3-0.3-0.7-0.5-1.2-0.5l2-36.5l7.1,71.2L228.3,8.9z M225.8,8.4c0.3,0.3,0.6,0.4,1,0.5c0.4,0.1,0.7,0.1,1.1,0.1l8.6,30.2
	c-0.3,0.1-0.5,0.2-0.7,0.4L214,19.1L225.8,8.4z M235.4,39.9c-0.2,0.2-0.4,0.5-0.5,0.8c-0.1,0.3-0.1,0.6-0.1,0.9l-57.5,11.6
	c0,0,0-0.1,0-0.1c-0.1-0.2-0.2-0.5-0.3-0.7l36.7-33.2L235.4,39.9z M186.1,107.4l-22,10.4c-0.2-0.3-0.4-0.5-0.7-0.7
	c-0.3-0.2-0.6-0.3-0.9-0.4l2-17.5l21.6,6.9C186,106.5,186,106.9,186.1,107.4z M149.2,386.2c-0.1-0.3-0.3-0.6-0.5-0.8
	c-0.2-0.2-0.5-0.4-0.8-0.6l8-22l34.4,45.6c-0.2,0.1-0.3,0.3-0.4,0.5l-40.8-21C149.4,387.3,149.4,386.7,149.2,386.2z M160.2,354.9
	c0.1,0,0.1-0.1,0.2-0.1l29.7,52.4l-33.9-45l2.6-7.2C159.3,355.1,159.8,355.1,160.2,354.9L160.2,354.9z M191.2,407.8
	c-0.1,0-0.1,0.1-0.2,0.1l-30.2-53.2c0.4-0.3,0.7-0.7,0.9-1.2l43.6,10.9l-12.9,43.4C192.1,407.6,191.6,407.7,191.2,407.8L191.2,407.8
	z M208.3,347.1l-46.5,5.1c0-0.1,0-0.2-0.1-0.3c-0.1-0.4-0.4-0.7-0.7-1l18.1-24.4l29.5,19.4C208.4,346.3,208.3,346.7,208.3,347.1
	L208.3,347.1z M179,325.9l-11.9-7.9c0.2-0.4,0.3-0.8,0.3-1.2c0-0.4-0.1-0.8-0.3-1.1l39.3-27.2c0.1,0.1,0.1,0.1,0.2,0.2L179,325.9z
	 M205.8,287.7c0.1,0.2,0.2,0.4,0.3,0.5l-39.2,27.2c-0.3-0.3-0.7-0.6-1.1-0.7l9-37.9l30.9,9.7C205.6,286.9,205.6,287.3,205.8,287.7
	L205.8,287.7z M174.4,276.2l-38.3-12c0-0.2,0.1-0.3,0.1-0.5l40.2-4c0,0.1,0,0.2,0.1,0.3c0.1,0.3,0.3,0.7,0.6,0.9
	c0.3,0.3,0.6,0.5,0.9,0.6L174.4,276.2z M94.4,92.1c0.5-0.2,0.9-0.6,1.1-1l29.3,12.4l-14.6,31.2c-0.4-0.2-0.9-0.2-1.4-0.1L94.4,92.1z
	 M136.9-1.1l0.1,21.3L116,20c0-0.2-0.1-0.4-0.1-0.6c-0.1-0.3-0.2-0.5-0.4-0.8l20.1-20.4C136-1.4,136.4-1.2,136.9-1.1z M116,20.5
	l21,0.1l0.1,15.5c-0.2,0-0.4,0.1-0.5,0.1c-0.4,0.1-0.7,0.3-1,0.6l-19.9-15.3C115.8,21.2,116,20.8,116,20.5L116,20.5z M162.3,20.7
	c0,0.2,0.1,0.3,0.1,0.5c0.1,0.2,0.1,0.3,0.2,0.4L139.1,37c-0.2-0.3-0.5-0.5-0.7-0.6c-0.3-0.2-0.6-0.2-0.9-0.3l-0.1-15.5L162.3,20.7z
	 M172.9,54.7c0.1,0.2,0.2,0.4,0.3,0.5l-17.7,14.2l-16.8-29c0.3-0.2,0.6-0.5,0.7-0.8l33.4,13.7C172.7,53.7,172.7,54.2,172.9,54.7z
	 M163,87.2L134.2,88c0-0.1,0-0.1-0.1-0.2c-0.1-0.2-0.2-0.4-0.3-0.5l21.4-17.1l8.7,15.1c-0.3,0.2-0.6,0.5-0.7,0.8
	C163.1,86.4,163,86.8,163,87.2L163,87.2z M177.9,257c-0.2,0.1-0.3,0.1-0.5,0.2l-18-23.9l18.2-21.9c0.2,0,0.4,0.1,0.6,0l0.1,45.5
	C178.3,256.9,178.1,256.9,177.9,257z M149.5,217.1l6.1-1.4l20.8-4.9c0.2,0.2,0.5,0.4,0.8,0.5l-18.1,21.7l-10.4-13.8
	c0.3-0.3,0.5-0.6,0.6-1C149.5,217.8,149.6,217.4,149.5,217.1z M177.1,257.5c-0.2,0.2-0.4,0.5-0.6,0.8c-0.1,0.3-0.2,0.6-0.2,1
	l-31.7,3.1l-8.5,0.8c0-0.1,0-0.2-0.1-0.3c-0.1-0.4-0.3-0.7-0.6-0.9l23.7-28.4L177.1,257.5z M175.9,209.8c0.1,0.2,0.2,0.4,0.3,0.5
	l-26.7,6.3c-0.2-0.5-0.5-0.9-0.9-1.2l8.8-15.9l18.5,9.3C175.8,209.2,175.8,209.5,175.9,209.8z M157.1,199l-42-21.1
	c0.1-0.2,0.1-0.4,0.1-0.6l46.6,1.4l4.5,0.1c0,0.3,0.1,0.6,0.3,0.9c0.2,0.3,0.4,0.5,0.6,0.7L157.1,199z M111.6,135.9
	c-0.2-0.5-0.5-0.8-1-1.1l14.6-31.2l34.6,14.7c-0.1,0.4-0.2,0.9-0.1,1.3L111.6,135.9z M63.8,66.4c0.1-0.1,0.1-0.2,0.2-0.3L102.5,79
	l-7.7,9c-0.3-0.2-0.7-0.4-1-0.4c-0.4-0.1-0.8,0-1.1,0.1c-0.4,0.1-0.7,0.3-1,0.6l-8.7-6.8L63.8,66.4z M132.7,90.8
	c0.3-0.1,0.5-0.2,0.7-0.4l26.9,27.1c-0.1,0.1-0.2,0.3-0.3,0.4l-34.6-14.7l5.8-12.4C131.7,91,132.2,91,132.7,90.8L132.7,90.8z
	 M132.4,86.2l4.9-45.4c0.3,0,0.5,0,0.8-0.1c0.1,0,0.2-0.1,0.2-0.1l16.8,29.1l-21.4,17.2C133.3,86.6,132.8,86.3,132.4,86.2
	L132.4,86.2z M135.9,40.4c0.3,0.2,0.6,0.3,0.9,0.4l-4.9,45.4c-0.3,0-0.5,0-0.8,0.1c-0.3,0.1-0.6,0.3-0.8,0.5
	c-0.2,0.2-0.4,0.5-0.6,0.8l-26.5-8.9L135.9,40.4z M129.6,88c0,0.1-0.1,0.3-0.1,0.4l-20.4,0.7l-13.3,0.5c0-0.2-0.1-0.3-0.1-0.5
	c-0.1-0.3-0.3-0.6-0.6-0.9l7.8-9.1L129.6,88z M95.8,90.1l33.7-1.2c0,0.2,0.1,0.3,0.1,0.5c0.2,0.6,0.6,1.1,1.2,1.4l-5.8,12.4
	L95.8,90.6C95.8,90.4,95.8,90.2,95.8,90.1z M160.7,121c0.4,0.3,0.9,0.4,1.4,0.4l2.3,21.1l3.6,33.8l-0.1,0c-0.5,0.2-0.9,0.4-1.2,0.8
	l-33.6-23.8L160.7,121z M161.3,116.8c-0.3,0.1-0.5,0.2-0.7,0.4L133.8,90c0.1-0.2,0.2-0.3,0.3-0.5l30,9.6l-2,17.6
	C161.9,116.6,161.6,116.7,161.3,116.8L161.3,116.8z M135.1,39.5c0.1,0.2,0.3,0.5,0.5,0.7l-32.8,38.5l-38.7-13c0.1-0.4,0.1-0.8,0-1.1
	L135.1,39.5z M111.7,136.4l48.2-16.4c0.1,0.3,0.3,0.5,0.5,0.7l-27.6,32.5l-21.3-15.1C111.8,137.6,111.9,137,111.7,136.4z
	 M132.9,153.8l33.7,23.8c-0.1,0.3-0.2,0.5-0.2,0.8l-51.1-1.6c0-0.2-0.1-0.4-0.1-0.6c-0.1-0.3-0.3-0.6-0.6-0.9L132.9,153.8z
	 M114.9,178.3l42,21.1l-8.7,15.8c-0.6-0.3-1.2-0.3-1.8-0.1c-0.2,0.1-0.4,0.2-0.6,0.3l-31.2-36.7
	C114.7,178.5,114.8,178.4,114.9,178.3z M147.9,219.7c0.2-0.1,0.4-0.2,0.5-0.3l10.4,13.9l-23.7,28.5c-0.1-0.1-0.3-0.2-0.5-0.3
	l12.1-41.7C147.1,219.8,147.5,219.8,147.9,219.7z M175.9,208.4l-18.4-9.2l10.2-18.4c0.4,0.2,0.9,0.3,1.4,0.2l8.3,25.8
	c-0.3,0.1-0.7,0.3-0.9,0.6C176.1,207.7,176,208.1,175.9,208.4z M164.2,98.6l-29.9-9.5c0-0.2,0.1-0.4,0.1-0.7l28.8-0.8
	c0,0.1,0,0.2,0.1,0.3c0.1,0.4,0.4,0.8,0.8,1.1c0.4,0.3,0.8,0.5,1.3,0.5L164.2,98.6z M164.6,85c-0.1,0-0.2,0.1-0.2,0.1l-8.8-15.2
	l17.8-14.2c0.2,0.2,0.5,0.4,0.8,0.6l-8.4,28.7C165.4,84.8,165,84.8,164.6,85L164.6,85z M197.1,6.6l-21.2,45.1
	c-0.5-0.2-1.1-0.2-1.7,0c-0.5,0.2-1,0.6-1.3,1.1l-33.4-13.7c0.1-0.5,0.1-1,0-1.5c0-0.1,0-0.1-0.1-0.2l56.9-31.7
	C196.6,6.1,196.8,6.4,197.1,6.6z M162.3,20.3l-24.9-0.1l-0.1-21.3c0.2,0,0.4-0.1,0.5-0.1c0.3-0.1,0.6-0.3,0.9-0.5l24,20.8
	C162.5,19.4,162.3,19.8,162.3,20.3z M114.4,22.5c0.4-0.1,0.7-0.3,1-0.6L135,37l-24.8-13.5L112,22c0.3,0.3,0.7,0.5,1.1,0.6
	C113.5,22.7,114,22.6,114.4,22.5z M135.1,37.5c-0.2,0.5-0.2,1-0.1,1.5L64.1,64L63.9,64c-0.1-0.1-0.1-0.2-0.2-0.3l46.1-39.8
	L135.1,37.5z M63.5,66.7l27.9,21.9c-0.2,0.3-0.3,0.6-0.4,1c0,0.4,0,0.7,0.1,1.1c0.2,0.5,0.5,1,1,1.3c0.5,0.3,1,0.4,1.6,0.3l-8.5,7.8
	l-22-33.2C63.4,66.8,63.4,66.8,63.5,66.7z M94.1,92.6l14.3,42.2l-0.2,0.1l-22.8-34.3L94.1,92.6z M110.2,139.2c0.4-0.1,0.8-0.4,1-0.7
	l21.3,15.1L114.2,175c-0.4-0.3-0.9-0.4-1.4-0.4l-3-35.3C110,139.2,110.1,139.2,110.2,139.2L110.2,139.2z M145.5,215.7
	c-0.3,0.3-0.5,0.7-0.7,1.1c-0.1,0.4-0.1,0.9,0.1,1.3c0.1,0.3,0.3,0.6,0.5,0.8l-17.6,18.4l-13.9-58.1c0.1-0.1,0.3-0.1,0.4-0.2
	L145.5,215.7z M145.7,219.3c0.2,0.2,0.4,0.3,0.7,0.4l-12.1,41.7c-0.3,0-0.5-0.1-0.8,0l-5.6-23.5L145.7,219.3z M136,264.6l38.3,12.1
	l-9,37.9c-0.4-0.1-0.8,0-1.1,0.1c-0.1,0-0.2,0.1-0.2,0.1l-28.8-49.1C135.5,265.4,135.8,265,136,264.6z M165.7,319.2
	c0.4-0.1,0.8-0.4,1.1-0.8l11.9,7.8l-18.1,24.4c-0.2-0.1-0.4-0.2-0.7-0.3l4.8-31C165.1,319.4,165.4,319.3,165.7,319.2z M157.2,353.5
	c0.1,0.3,0.3,0.6,0.5,0.8c0.2,0.2,0.5,0.4,0.8,0.6l-2.5,7l-6.5-8.6c0.4-0.3,0.6-0.8,0.7-1.3l6.9,0.7
	C157.1,352.9,157.1,353.2,157.2,353.5z M148.6,353.7c0.2-0.1,0.3-0.1,0.5-0.2l6.7,8.8l-8.1,22.3c-0.1,0-0.2,0-0.3-0.1l0.7-30.7
	C148.2,353.8,148.4,353.8,148.6,353.7z M189.8,409.2c-0.2,0.5-0.2,1.1,0,1.7c0.2,0.5,0.6,1,1.1,1.3l-2.8,6.3l-39-30.2L189.8,409.2z
	 M191.2,412.3c0.5,0.2,1,0.2,1.5,0c0.2-0.1,0.4-0.2,0.5-0.3l21.5,26.8l-0.1,0.1l-26.3-20.3L191.2,412.3z M215.5,438.5
	c-0.1,0-0.2,0.1-0.3,0.1l-21.5-26.9c0.3-0.3,0.5-0.6,0.6-1l31.7,6.9l-8.8,20.9C216.6,438.3,216,438.3,215.5,438.5z M194.4,410.3
	c0-0.4,0-0.7-0.1-1.1c0-0.1-0.1-0.3-0.2-0.4l48.6-33.5c0.2,0.2,0.5,0.3,0.8,0.5l-17.4,41.4L194.4,410.3z M242,374.4
	c0.1,0.3,0.2,0.5,0.4,0.7l-48.6,33.4c-0.3-0.3-0.6-0.5-0.9-0.7l12.9-43.4l36.1,9C241.9,373.8,241.9,374.1,242,374.4z M205.5,363.9
	l-43.7-10.9c0-0.1,0-0.3,0-0.4l46.5-5.1c0,0.1,0,0.2,0.1,0.3c0.1,0.3,0.3,0.6,0.5,0.9c0.2,0.3,0.5,0.4,0.9,0.6L205.5,363.9z
	 M209.9,344.8c-0.4,0.1-0.8,0.4-1.1,0.7l-29.5-19.4l27.5-37.1c0.3,0.2,0.7,0.3,1.1,0.3l2.4,55.4
	C210.2,344.7,210.1,344.8,209.9,344.8L209.9,344.8z M205.8,286.1l-30.9-9.7l3.5-14.8c0.3,0,0.7,0,1-0.1c0.3-0.1,0.6-0.3,0.9-0.5
	l25.9,24.5C206,285.7,205.9,285.9,205.8,286.1z M180.3,257.6c-0.4-0.4-0.9-0.6-1.5-0.7l-0.1-45.5c0.1,0,0.1,0,0.2-0.1
	c0.3-0.1,0.5-0.2,0.7-0.4l24.9,25.9L180.3,257.6z M180,210.6c0.4-0.4,0.6-0.9,0.6-1.5l59.6-4c0,0.1,0.1,0.3,0.1,0.4
	c0.1,0.2,0.2,0.4,0.3,0.6l-35.6,30.4L180,210.6z M240.1,204.7l-59.6,4c0-0.1-0.1-0.3-0.1-0.4c0-0.1-0.1-0.3-0.2-0.4l23.6-16.6
	l36.4,12.9C240.2,204.3,240.1,204.5,240.1,204.7z M180,207.5c-0.3-0.3-0.6-0.6-1-0.7c-0.4-0.1-0.8-0.2-1.2-0.1l-8.2-25.8h0
	c0.3-0.1,0.6-0.3,0.8-0.5c0.2-0.2,0.4-0.5,0.6-0.8l32.4,11.5L180,207.5z M168.5,176.3l-5.9-54.9c0.1,0,0.2,0,0.3-0.1
	c0.3-0.1,0.6-0.3,0.8-0.5c0.2-0.2,0.4-0.5,0.6-0.7c0.1-0.3,0.2-0.6,0.2-0.9c0-0.3,0-0.6-0.1-0.9c0,0,0,0,0-0.1l22-10.4
	c0.2,0.5,0.7,0.9,1.2,1.1L169,176.3C168.8,176.3,168.6,176.3,168.5,176.3z M186.3,105.7l-21.7-6.9l1-9.1c0.2,0,0.4-0.1,0.5-0.1
	c0.4-0.1,0.7-0.3,0.9-0.6l19.4,16.4C186.5,105.4,186.4,105.5,186.3,105.7z M167.3,85.8c-0.3-0.3-0.6-0.6-1-0.8l8.4-28.7
	c0.3,0.1,0.6,0.1,0.9,0c0.3-0.1,0.6-0.2,0.9-0.4l13.2,15.6L167.3,85.8z M176.8,55.6c0.2-0.3,0.4-0.6,0.6-0.9c0.1-0.3,0.2-0.7,0.1-1
	l57.4-11.6c0,0,0,0.1,0,0.1c0,0.1,0.1,0.2,0.1,0.3L190,71.3L176.8,55.6z M238.3,39.4c-0.3-0.2-0.7-0.3-1-0.3l-7.2-71.9
	c0.1,0,0.2,0,0.3-0.1l0.2-0.1l24.2,45.4L238.3,39.4z M231-33.1c0.3-0.2,0.6-0.5,0.8-0.9c0.2-0.4,0.3-0.8,0.3-1.2l54.3-6.3
	c0,0.1,0,0.2,0.1,0.3c0.2,0.5,0.4,0.9,0.8,1.1l-32.1,52.1L231-33.1z M225.2,7.4c0.1,0.2,0.2,0.5,0.3,0.7l-11.8,10.7L200.3,6
	c0.3-0.3,0.4-0.7,0.5-1.1L225,6.7C225.1,6.9,225.1,7.2,225.2,7.4z M166.5,21.9c0.3-0.3,0.4-0.7,0.5-1.1c0.1-0.4,0.1-0.8-0.1-1.2
	l25.2-12L166.5,21.9z M111.4,21c0.1,0.2,0.2,0.4,0.3,0.6l-1.9,1.7l-34-18.4l35.6,14.6C111.2,20,111.2,20.5,111.4,21z M71.9,5.5
	c0.3,0,0.6,0,0.9-0.1c0.5-0.2,0.9-0.5,1.2-0.9l35.4,19.2L63.4,63.3c-0.3-0.3-0.7-0.5-1-0.6L71.9,5.5z M27.8,52.3
	c0.3-0.2,0.6-0.6,0.8-0.9l31.7,11.7c-0.4,0.3-0.7,0.7-0.8,1.2c-0.1,0.5-0.1,1,0,1.5c0.2,0.5,0.5,0.9,0.8,1.2
	c0.4,0.3,0.9,0.5,1.4,0.5l3.4,50.2L27.8,52.3z M65.7,118.1l-3.5-50.8c0.1,0,0.3-0.1,0.4-0.1c0.1,0,0.2-0.1,0.4-0.2l22,33.3
	L65.7,118.1z M65.9,118.5l19.3-17.8l22.7,34.3c-0.3,0.2-0.5,0.5-0.6,0.7L65.9,118.5z M113.6,180.2l13.7,57.5l-34.7,36.1
	c-0.2-0.2-0.5-0.3-0.7-0.4L113.6,180.2z M93.4,276.6c0.2-0.4,0.3-0.9,0.2-1.4l38-10.7c0.2,0.6,0.7,1,1.2,1.3
	c0.6,0.3,1.2,0.3,1.8,0.1c0.1,0,0.2-0.1,0.2-0.1l28.8,49.1c-0.2,0.2-0.4,0.4-0.6,0.6L93.4,276.6z M164.1,319.2
	c0.1,0,0.2,0.1,0.3,0.1l-4.8,31c-0.3,0-0.6,0-0.9,0.1c-0.4,0.1-0.7,0.4-1,0.7c-0.3,0.3-0.5,0.7-0.5,1.1l-6.9-0.7
	c0-0.3,0-0.5-0.1-0.8c-0.2-0.5-0.5-1-1-1.3L164.1,319.2z M148.5,388.8c0.1-0.1,0.2-0.2,0.3-0.2l39.1,30.3l-7.2,16.1
	c-0.5-0.2-1-0.2-1.5,0c-0.1,0-0.2,0.1-0.4,0.2L148.5,388.8z M182.3,437.2c0-0.3,0-0.5-0.1-0.8c-0.2-0.6-0.6-1-1.1-1.3l7.1-16
	l26.1,20.2c-0.2,0.3-0.4,0.6-0.4,0.9L182.3,437.2z M218.3,439.5c-0.2-0.3-0.4-0.6-0.7-0.7l8.8-21l21.8,4.7c0,0.3,0,0.6,0.1,0.9
	c0,0.1,0.1,0.3,0.2,0.4L218.3,439.5z M242.3,372.3c-0.1,0.2-0.2,0.4-0.3,0.7l-36.1-9l4.3-14.6c0.4,0.1,0.8,0,1.2-0.1
	c0.4-0.1,0.7-0.3,1-0.6L242.3,372.3z M208.8,284.7c-0.4-0.1-0.9-0.2-1.3-0.1c-0.4,0.1-0.8,0.3-1.1,0.6l-25.8-24.4
	c0.3-0.4,0.5-1,0.5-1.5l38.9-3.8c0,0.1,0,0.2,0.1,0.3c0.2,0.6,0.6,1,1.1,1.3L208.8,284.7z M223,252.7c-0.4-0.1-0.8-0.1-1.1-0.1
	c-0.4,0.1-0.7,0.2-1,0.5l-15.6-16.3l35.6-30.4c0.2,0.2,0.4,0.3,0.6,0.4L223,252.7z M239.9,203.6L204.2,191l3.5-2.4
	c0.3,0.4,0.7,0.6,1.2,0.8c0.5,0.1,1,0.1,1.4,0c0.5-0.2,0.9-0.5,1.2-0.9L239.9,203.6z M208.7,184.8c-0.3,0.1-0.7,0.3-0.9,0.6
	c-0.3,0.3-0.4,0.6-0.6,0.9l-36.1-7.4c0-0.3,0-0.7-0.1-1c-0.1-0.4-0.3-0.7-0.6-1c-0.3-0.3-0.6-0.5-1-0.6l18.5-67.3
	c0.4,0.1,0.7,0.1,1.1,0L208.7,184.8z M190.8,106.8c0-0.5-0.1-0.9-0.3-1.3c-0.2-0.4-0.6-0.7-1-0.9c-0.4-0.2-0.9-0.3-1.4-0.2
	c-0.5,0.1-0.9,0.3-1.2,0.6l-19.5-16.4c0-0.1,0.1-0.1,0.1-0.2l53.9,22.4c0,0.1,0,0.1,0,0.2L190.8,106.8z M223.9,109.1
	c-0.6-0.1-1.1,0.1-1.6,0.4l-32-37.9l45-28.7c0.3,0.4,0.8,0.7,1.3,0.9L223.9,109.1z M270.5,38.4c-0.4-0.1-0.8,0-1.2,0.1l-0.1,0.1
	l-13.8-25.9l32.3-52.4c0.1,0.1,0.2,0.1,0.3,0.1L270.5,38.4z"/>
</svg>
