<?xml version="1.0" encoding="utf-8"?>
<!-- Generator: Adobe Illustrator 24.2.3, SVG Export Plug-In . SVG Version: 6.00 Build 0)  -->
<svg version="1.1" id="Layer_1" xmlns="http://www.w3.org/2000/svg" xmlns:xlink="http://www.w3.org/1999/xlink" x="0px" y="0px"
	 viewBox="0 0 31.2 31.2" style="enable-background:new 0 0 31.2 31.2;" xml:space="preserve">
<style type="text/css">
	.st0{fill:#DF292A;}
</style>
<path class="st0" d="M5.4,24.4v5.3l2.1-1.3l6.6-4h6.6c1.5,0,2.8-1.3,2.8-2.8V10.3c0-1.6-1.2-2.8-2.8-2.8H4c-1.5,0-2.8,1.3-2.8,2.8
	v11.3c0,1.6,1.2,2.8,2.8,2.8H5.4z M4,10.3h16.7v11.3h-7.4l-5.2,3.2v-3.2H4V10.3z"/>
<path class="st0" d="M26.9,1.1H9.4c-1.6,0-2.9,1.3-2.9,3H24c1.6,0,2.9,1.3,2.9,3v12c1.6,0,2.9-1.3,2.9-3v-12
	C29.8,2.4,28.5,1.1,26.9,1.1z"/>
</svg>
