<svg width="99" height="99" viewBox="0 0 99 99" fill="none" xmlns="http://www.w3.org/2000/svg">
<path d="M82.9935 58.4148C83.772 60.4358 84.0834 61.3686 84.5506 62.3014C85.7963 64.3224 86.2634 66.0325 83.6163 67.2762C80.9692 68.52 80.1907 66.3435 79.7236 64.9443C78.0107 58.8812 73.8066 58.2594 68.3567 58.4148C60.5712 58.8812 52.7857 58.7257 45.0002 58.4148C41.2632 58.2594 40.0175 59.5031 40.1732 63.2342C40.3289 73.0284 40.0175 82.8226 40.3289 92.7723C40.4846 97.2807 39.5504 99.1463 34.4119 98.9908C24.6022 98.5245 14.7925 98.6799 4.82701 98.9908C1.08997 98.9908 0 97.7471 0 94.016C0.15571 76.4486 0.15571 58.8812 0 41.3138C0 36.6499 1.5571 35.2507 5.76127 35.8726C10.8997 36.6499 11.6783 33.8516 11.5225 29.4986C11.2111 21.7254 11.6783 13.9522 11.3668 6.17902C11.3668 2.29243 12.3011 0.737793 16.661 0.737793C42.0417 0.893257 67.4225 0.893257 92.8032 0.737793C97.4745 0.737793 98.2531 2.60336 98.2531 6.64541C98.0973 21.1035 97.7859 35.5617 98.2531 50.0198C98.4088 56.5493 97.1631 59.814 90.0004 58.5703C87.9762 58.1039 85.7963 58.4148 82.9935 58.4148ZM54.8099 6.95634C48.1144 6.95634 41.4189 6.95634 34.5676 6.95634C17.2838 6.95634 17.2838 6.95634 17.2838 24.6792C17.2838 35.7171 17.2838 35.7171 28.3392 35.7171C39.7061 35.7171 39.7061 35.7171 40.1732 47.5324C40.3289 50.7971 40.4846 52.8181 44.6888 52.8181C59.1698 52.6627 73.6509 52.6627 88.1319 52.8181C91.7132 52.8181 92.3361 51.108 92.3361 47.9988C92.1804 35.8726 92.1804 23.7464 92.3361 11.6203C92.3361 7.88912 91.2461 6.64541 87.5091 6.80088C76.6094 7.1118 65.7097 6.95634 54.8099 6.95634ZM5.91698 66.8099C5.91698 73.4948 5.76127 80.1797 5.91698 86.8647C5.91698 88.8857 4.35988 92.3059 7.94121 92.4614C11.0554 92.6168 15.1039 94.7933 17.2838 90.2849C19.1523 86.3983 20.7094 86.3983 22.578 90.2849C24.7579 94.7933 28.8064 92.4614 32.0763 92.4614C35.6576 92.3059 34.1005 88.8857 34.1005 86.8647C34.2562 73.4948 34.1005 59.9695 34.2562 46.5996C34.2562 42.8685 33.6334 41.0029 29.2735 41.1584C23.0451 41.4693 16.8167 41.4693 10.744 41.1584C6.38411 40.8474 5.60556 42.8685 5.76127 46.5996C6.07269 53.44 5.91698 60.1249 5.91698 66.8099Z" fill="white"/>
<path d="M74.7416 43.1787C74.5859 44.8888 75.3644 46.9098 72.7173 47.3762C69.9146 47.8426 69.6031 45.977 69.136 43.6451C66.1775 30.2752 62.1291 26.2331 49.828 24.3676C47.8037 24.0566 46.2466 24.0566 46.4023 21.4138C46.558 18.7709 48.2709 18.7709 50.1394 18.7709C62.1291 18.3045 74.7416 30.897 74.7416 43.1787Z" fill="white"/>
<path d="M62.7518 43.3347C62.5961 45.0448 63.3747 47.2213 60.5719 47.3768C58.7034 47.5322 57.7691 46.444 57.7691 44.5784C57.6134 39.2926 54.1878 36.8052 49.6722 35.717C47.6479 35.2506 46.2466 34.6287 46.558 32.2968C47.0251 29.343 49.205 30.4312 50.7621 30.4312C57.1463 30.5867 62.7518 36.8052 62.7518 43.3347Z" fill="white"/>
</svg>
