<svg width="99" height="99" viewBox="0 0 99 99" fill="none" xmlns="http://www.w3.org/2000/svg">
<path d="M49.457 92.022C39.2628 92.022 28.9783 92.022 18.784 92.022C16.5286 92.022 14.9048 92.2024 15.2656 95.0893C15.4461 96.8034 14.6341 98.0664 12.8298 98.1566C11.206 98.2468 10.1234 96.9838 10.2136 95.6306C10.394 92.1122 8.40931 91.7514 5.70287 92.1122C1.73342 92.6535 0.380199 91.0296 0.560628 87.0602C0.831273 80.7452 0.650843 74.4301 0.650843 68.1151C0.650843 65.7695 1.0117 63.7848 3.98879 63.9652C6.33437 64.1457 6.15394 62.612 6.15394 61.0784C6.15394 55.8459 6.24416 50.5232 6.15394 45.2908C6.15394 42.5843 6.69523 40.4192 10.0332 40.5094C12.92 40.5996 12.0179 38.3442 12.0179 36.991C12.1081 26.887 12.0179 16.8731 12.0179 6.76907C12.0179 5.68649 11.9277 4.69413 12.0179 3.61155C12.1983 1.89747 12.5592 0.0931792 14.6341 0.00296442C17.0699 -0.0872503 17.3406 1.89747 17.3406 3.79198C17.3406 14.7982 17.3406 25.7142 17.3406 36.7204C17.3406 38.9757 17.2504 40.78 20.4981 40.5996C22.9339 40.5094 23.5654 42.5843 23.4752 44.7495C23.385 49.9819 23.5654 55.3046 23.385 60.5371C23.2947 62.8826 23.6556 64.0554 26.4523 63.9652C41.7888 63.875 57.1253 63.875 72.4618 63.9652C74.8976 63.9652 75.5291 63.1533 75.4389 60.8979C75.3487 55.485 75.4389 50.0722 75.3487 44.6593C75.3487 42.6745 75.7095 40.5094 77.9649 40.6898C82.0246 40.9605 81.3028 38.4344 81.3028 36.0889C81.3028 25.9848 81.3028 15.971 81.3028 5.86692C81.3028 3.61155 80.4909 0.183394 83.8288 0.0931792C87.6179 0.0931792 86.5353 3.70177 86.6255 6.04735C86.7157 16.422 86.6255 26.7967 86.6255 37.1714C86.6255 39.066 86.3549 40.6898 89.2417 40.5996C92.0384 40.4192 92.5797 42.5843 92.5797 44.9299C92.5797 50.1624 92.6699 55.485 92.5797 60.7175C92.5797 62.7022 92.5797 64.1456 95.2861 64.0554C97.6317 63.9652 98.173 65.7695 98.173 67.8445C98.173 74.6106 98.0828 81.3767 98.173 88.1428C98.2632 91.3003 96.8198 92.4731 93.7525 92.2024C90.8656 91.9318 87.8885 91.6611 88.2494 96.1719C88.3396 97.4349 87.1668 98.337 85.7234 98.2468C84.3701 98.2468 83.1973 97.2545 83.3778 95.9915C83.8288 91.6612 81.1224 92.1122 78.3257 92.1122C68.6728 92.022 59.0198 92.022 49.457 92.022ZM48.9157 86.5189C61.8164 86.5189 74.8074 86.3385 87.7081 86.6091C91.4069 86.6993 93.3014 86.0678 92.6699 81.8277C92.309 79.2115 92.3992 76.4149 92.6699 73.7084C93.0307 70.2803 92.0384 69.1977 88.3396 69.1977C65.1544 69.3781 42.0594 69.2879 18.8742 69.2879C14.7243 69.2879 9.04081 67.9347 6.69523 70.0096C3.98879 72.4454 6.33437 78.2192 5.79308 82.4592C5.34201 86.1581 7.05609 86.5189 10.1234 86.5189C23.1143 86.4287 36.015 86.5189 48.9157 86.5189ZM86.8059 55.2144C86.8059 53.1395 86.7157 50.9743 86.8059 48.8994C86.9864 46.5538 85.7234 46.1929 83.8288 46.1929C81.8441 46.1929 80.7615 46.5538 80.8518 48.8994C81.0322 52.7786 80.942 56.6578 80.8518 60.6273C80.8518 62.612 80.8518 63.9652 83.5582 63.9652C86.1744 63.9652 87.0766 63.1533 86.8059 60.6273C86.7157 58.823 86.8059 57.0187 86.8059 55.2144ZM17.7014 55.3948C17.7014 53.4101 17.521 51.5156 17.7014 49.5309C17.9721 47.0049 17.0699 46.1027 14.4537 46.1027C12.0179 46.1027 11.3864 47.0951 11.4766 49.3504C11.657 52.959 11.5668 56.4774 11.4766 60.086C11.3864 62.4316 11.4766 63.9652 14.7243 63.875C17.7014 63.7848 17.7916 62.3414 17.6112 60.2664C17.6112 58.7328 17.7014 57.0187 17.7014 55.3948Z" fill="white"/>
<path d="M68.4025 30.2246C68.3123 31.217 67.771 31.8485 66.959 32.2996C65.5156 33.1115 64.433 32.5702 63.3504 31.4876C59.7418 28.0595 55.4115 26.2552 50.4497 25.9845C44.8564 25.7139 39.8044 27.2475 35.6545 31.1268C34.0306 32.6604 32.3166 33.5626 30.6927 31.5778C29.159 29.7736 30.6025 28.3301 31.9557 27.0671C41.338 18.4065 57.0354 18.3163 66.3275 26.9769C67.3199 27.879 68.5829 28.6008 68.4025 30.2246Z" fill="white"/>
<path d="M49.3677 32.2101C53.1567 31.9395 56.3142 33.4731 59.1109 35.9992C60.3739 37.1719 60.8249 38.5252 59.5619 39.8784C58.3891 41.1414 57.2163 41.5023 55.6827 40.149C51.4426 36.4502 47.0221 36.36 42.8722 40.2393C41.6092 41.412 40.3462 41.0512 39.2636 40.0588C37.9104 38.7958 38.0006 37.3524 39.2636 36.0894C42.0603 33.4731 45.308 31.8493 49.3677 32.2101Z" fill="white"/>
<path d="M49.3673 49.3501C47.7435 48.9892 46.6609 48.1773 46.5707 46.4632C46.4805 44.5687 47.563 43.7568 49.2771 43.6666C50.9912 43.5763 52.164 44.5687 52.164 46.2828C52.0738 47.9066 50.901 48.899 49.3673 49.3501Z" fill="white"/>
<path d="M26.813 75.4229C30.2412 75.4229 33.6693 75.4229 37.0975 75.4229C38.7214 75.4229 40.1648 75.7837 40.4354 77.6782C40.7061 79.8434 39.0822 80.8357 37.4584 80.8357C29.9705 81.0162 22.4827 80.926 15.0851 80.8357C13.5515 80.8357 12.1982 79.8434 12.2884 77.9489C12.3787 75.6935 13.9123 75.4229 15.7166 75.4229C19.3252 75.4229 23.1142 75.4229 26.813 75.4229Z" fill="white"/>
<path d="M60.7344 80.7455C59.2007 80.2945 57.8475 79.5727 58.0279 77.6782C58.2084 76.1446 59.2909 75.4229 60.8246 75.4229C62.4485 75.4229 63.3506 76.4152 63.4408 77.8587C63.531 79.6629 62.3582 80.4749 60.7344 80.7455Z" fill="white"/>
<path d="M74.8978 78.1286C74.8978 79.8427 73.6348 80.6546 72.3718 80.6546C70.7479 80.6546 69.6653 79.3916 69.8458 77.6775C70.0262 76.1439 71.0186 75.3319 72.6424 75.5124C74.2663 75.6026 74.8978 76.5949 74.8978 78.1286Z" fill="white"/>
<path d="M85.0908 75.5124C85.6321 75.5124 86.444 76.4145 86.444 78.0384C86.444 79.6623 85.2712 80.5644 83.918 80.6546C82.2039 80.6546 81.1214 79.5721 81.3018 77.7678C81.392 76.2341 82.3844 75.4222 85.0908 75.5124Z" fill="white"/>
</svg>
