<svg width="99" height="99" viewBox="0 0 99 99" fill="none" xmlns="http://www.w3.org/2000/svg">
<path d="M15.7016 39.3677C18.2197 39.3677 20.5843 39.3677 22.9182 39.3677C25.4363 39.3677 27.0024 40.7803 27.0331 43.2984C27.0638 55.2134 27.0638 67.1284 27.0331 79.0434C27.0331 81.6229 25.5284 83.0048 22.9796 83.0048C20.3693 83.0355 17.7591 83.0355 15.1488 83.0048C7.01101 82.9127 0.25508 76.1568 0.193663 68.019C0.162954 63.5662 0.132245 59.1134 0.193663 54.6606C0.25508 49.4094 2.46611 45.2023 6.73463 42.1315C7.59448 41.5173 7.87086 40.9031 7.90157 39.9204C8.57716 21.6794 21.7819 5.80296 39.5623 1.53444C59.738 -3.31755 79.9137 7.39982 87.6216 25.9172C87.8058 26.3471 87.9287 26.7771 88.0822 27.207C88.8499 29.418 88.0208 31.5062 86.0554 32.3046C83.9979 33.1338 81.8483 32.2432 80.9578 30.0015C79.5145 26.2857 77.6105 22.877 74.9696 19.929C67.2002 11.2691 57.5577 7.27698 45.8576 8.29037C32.4379 9.45731 18.8032 19.6833 15.8859 36.6346C15.763 37.433 15.763 38.3236 15.7016 39.3677ZM19.2638 75.2662C19.2638 65.7772 19.2638 56.4417 19.2638 47.0141C17.9126 47.0141 16.715 47.0141 15.4866 47.0141C11.3102 47.0756 7.96299 50.2693 7.90157 54.4457C7.80944 58.9292 7.84015 63.4433 7.90157 67.9268C7.93228 69.8922 8.7 71.5505 10.0512 73.0245C12.6 75.819 15.9166 75.3891 19.2638 75.2662Z" fill="white"/>
<path d="M79.4533 83.0045C79.2384 84.1408 79.0848 85.2156 78.8084 86.229C77.5801 90.9581 73.5572 94.4282 68.7052 94.6739C64.9281 94.8581 61.1202 94.766 57.343 94.766C56.4524 94.766 55.869 94.9502 55.2855 95.718C52.5524 99.2802 47.2705 99.5873 44.0154 96.5164C40.8217 93.4762 40.8831 88.225 44.1075 85.277C47.3933 82.2982 52.5831 82.6667 55.2548 86.1368C55.8383 86.8738 56.4217 87.1195 57.3123 87.1195C60.5367 87.0888 63.7611 87.1195 66.9856 87.0888C70.1793 87.0581 71.5612 85.7069 71.5612 82.5132C71.5612 69.7076 71.5305 56.9328 71.6226 44.1272C71.6226 42.9296 72.0832 41.6398 72.6667 40.565C73.0045 39.9815 74.0179 39.4288 74.7242 39.4288C78.4399 39.3674 82.2478 39.1217 85.9022 39.6744C93.1187 40.7185 98.4006 47.2288 98.4621 54.5068C98.4928 58.9596 98.4928 63.4123 98.4621 67.8651C98.4006 76.1872 91.6754 82.9124 83.3226 83.0045C82.0329 83.0352 80.7738 83.0045 79.4533 83.0045ZM79.3612 47.0753C79.3612 56.5643 79.3612 65.869 79.3612 75.3273C80.7431 75.3273 82.0021 75.358 83.2919 75.3273C87.3762 75.2659 90.662 72.0722 90.7541 67.9265C90.8463 63.443 90.8156 58.9289 90.7541 54.4454C90.6927 50.6989 87.8368 47.4745 84.2132 47.106C82.647 46.9217 81.0502 47.0753 79.3612 47.0753Z" fill="white"/>
</svg>
