<?xml version="1.0" encoding="utf-8"?>
<!-- Generator: Adobe Illustrator 24.2.3, SVG Export Plug-In . SVG Version: 6.00 Build 0)  -->
<svg version="1.1" id="Layer_1" xmlns="http://www.w3.org/2000/svg" xmlns:xlink="http://www.w3.org/1999/xlink" x="0px" y="0px"
	 viewBox="0 0 31.2 31.2" style="enable-background:new 0 0 31.2 31.2;" xml:space="preserve">
<style type="text/css">
	.st0{fill:#DF292A;}
</style>
<path class="st0" d="M5,27.4c-0.4,0-0.7-0.1-1-0.4c-0.3-0.3-0.4-0.6-0.4-1v-5.4c0-0.3,0.1-0.6,0.3-0.8c0.2-0.2,0.5-0.4,0.8-0.4
	l4.6-0.9c0.3,0,0.6,0,1,0.1c0.3,0.1,0.6,0.3,0.8,0.5l3.1,3.1c1.7-1,3.2-2.2,4.7-3.6c1.4-1.4,2.6-2.9,3.5-4.5l-3.2-3.3
	c-0.2-0.2-0.3-0.4-0.4-0.7c-0.1-0.3-0.1-0.5,0-0.8l0.9-4.7c0-0.3,0.2-0.6,0.4-0.8c0.2-0.2,0.5-0.3,0.8-0.3h5.4c0.4,0,0.7,0.1,1,0.4
	c0.3,0.3,0.4,0.6,0.4,1c0,2.9-0.6,5.7-1.9,8.4c-1.3,2.7-3,5.1-5.1,7.2c-2.1,2.1-4.5,3.8-7.2,5.1C10.7,26.8,7.9,27.4,5,27.4z
	 M23.6,11.4c0.4-0.9,0.7-1.7,0.9-2.6c0.2-0.9,0.4-1.8,0.5-2.7h-3l-0.6,3.1L23.6,11.4z M11.6,23.4l-2.2-2.2l-3.1,0.6v2.9
	c0.9-0.1,1.8-0.2,2.7-0.4C9.9,24,10.8,23.7,11.6,23.4L11.6,23.4z"/>
</svg>
