<?xml version="1.0" encoding="utf-8"?>
<!-- Generator: Adobe Illustrator 24.2.3, SVG Export Plug-In . SVG Version: 6.00 Build 0)  -->
<svg version="1.1" id="Layer_1" xmlns="http://www.w3.org/2000/svg" xmlns:xlink="http://www.w3.org/1999/xlink" x="0px" y="0px"
	 viewBox="0 0 1321 583.7" style="enable-background:new 0 0 1321 583.7;" xml:space="preserve">
<style type="text/css">
	.st0{fill:url(#SVGID_1_);}
	.st1{opacity:0.6;filter:url(#Adobe_OpacityMaskFilter);}
	.st2{opacity:0.2;}
	.st3{fill:#FFFFFF;}
	.st4{fill:url(#SVGID_2_);}
	.st5{fill:url(#SVGID_3_);}
	.st6{fill:url(#SVGID_4_);}
	.st7{fill:url(#SVGID_5_);}
	.st8{fill:url(#SVGID_6_);}
	.st9{fill:url(#SVGID_7_);}
	.st10{fill:url(#SVGID_8_);}
	.st11{fill:url(#SVGID_9_);}
	.st12{mask:url(#mask0_1107_52_2_);}
	.st13{fill:#D9D9D9;}
</style>
<linearGradient id="SVGID_1_" gradientUnits="userSpaceOnUse" x1="1337.4711" y1="342.3312" x2="-4.197188e-02" y2="343.4294" gradientTransform="matrix(-1 0 0 -1 1321 685.8898)">
	<stop  offset="0" style="stop-color:#9A0405"/>
	<stop  offset="0.9323" style="stop-color:#E02F2D"/>
</linearGradient>
<path class="st0" d="M0,686h1321V0L0,0L0,686z"/>
<defs>
	<filter id="Adobe_OpacityMaskFilter" filterUnits="userSpaceOnUse" x="0" y="0" width="382" height="741">
		<feColorMatrix  type="matrix" values="1 0 0 0 0  0 1 0 0 0  0 0 1 0 0  0 0 0 1 0"/>
	</filter>
</defs>
<mask maskUnits="userSpaceOnUse" x="0" y="0" width="382" height="741" id="mask0_1107_52_2_">
	<g class="st1">
		<g class="st2">
			<path class="st3" d="M-209.5,71.3c-0.5,0.4-1,0.8-1.3,1.3c-0.3,0.5-0.5,1.1-0.5,1.6c0,0.6,0,1.1,0.3,1.7c0.2,0.5,0.6,1,1.1,1.5
				s1,0.8,1.7,1c0.6,0.3,1.3,0.4,2,0.4c0.7,0,1.4,0,2.1-0.2c0.2,0,0.3-0.1,0.5-0.2l85.8,119.6l-0.3,0.2l0.6,0.2l1,1.4l-0.1-1.1
				l94.2,31.2c-0.3,0.9-0.3,1.8,0,2.7c0.4,0.9,1.1,1.6,2,2.1c0.9,0.5,2,0.8,3.1,0.8l6.9,64c-0.3,0-0.5,0.1-0.8,0.2
				c-1.3,0.4-2.4,1.1-3,2.1c-0.6,1-0.8,2.1-0.4,3.2c0.4,1.1,1.3,2,2.4,2.5c1.2,0.6,2.6,0.8,4,0.5l-49.7,170.2c-1-0.1-1.9,0-2.8,0.3
				c-0.9,0.3-1.7,0.8-2.3,1.4c-0.6,0.6-0.9,1.3-1.1,2.1c-0.1,0.8,0,1.5,0.4,2.2c0.4,0.7,1,1.3,1.8,1.8c0.8,0.4,1.7,0.7,2.7,0.8
				c1,0.1,1.9-0.1,2.8-0.4c0.9-0.3,1.6-0.8,2.2-1.5l158.4,70.6c-0.5,1-0.6,2-0.2,3c0.4,1,1.2,1.9,2.3,2.4L72,615.8
				c-0.7-0.2-1.5-0.3-2.3-0.3c-0.8,0-1.5,0.2-2.2,0.5c-0.7,0.3-1.3,0.7-1.8,1.2c-0.5,0.5-0.8,1-1,1.6c-0.2,0.6-0.2,1.2-0.1,1.8
				c0.1,0.6,0.4,1.2,0.9,1.7c0.4,0.5,1,0.9,1.7,1.2c0.7,0.3,1.4,0.5,2.2,0.6l-1.6,55.7c-0.5,0-0.9,0.1-1.4,0.2
				c-1.4,0.4-2.5,1.2-3.1,2.2c-0.6,1-0.7,2.2-0.3,3.3c0.5,1.1,1.5,2,2.7,2.5c1.3,0.5,2.8,0.6,4.2,0.2c0.3-0.1,0.5-0.2,0.8-0.3
				l69.1,83.8c-0.9,0.6-1.5,1.3-1.8,2.2c-0.3,0.9-0.3,1.8,0.1,2.6c0.5,1.1,1.5,2,2.7,2.5c1.3,0.5,2.8,0.6,4.2,0.2
				c0.9-0.2,1.7-0.7,2.4-1.3s1.1-1.3,1.2-2l71.8,5.5c0,0.5,0.1,1.1,0.3,1.6c0.5,1.1,1.4,2,2.7,2.5c1.3,0.5,2.8,0.6,4.2,0.2
				c0.7-0.2,1.3-0.5,1.8-0.8s1-0.8,1.3-1.3s0.5-1.1,0.6-1.6c0-0.6,0-1.1-0.3-1.7c0-0.1-0.1-0.1-0.1-0.2l68.8-28.5
				c0.7,0.7,1.6,1.2,2.7,1.4s2.2,0.2,3.2-0.1c1.4-0.4,2.5-1.2,3.1-2.2c0.6-1,0.7-2.2,0.3-3.3c-0.3-0.8-1-1.5-1.9-2.1
				c-0.9-0.5-1.9-0.8-3-0.9l-12.9-80.4h0.1c0.7-0.2,1.3-0.5,1.8-0.8c0.5-0.4,1-0.8,1.3-1.3c0.3-0.5,0.5-1.1,0.5-1.6
				c0-0.6,0-1.1-0.3-1.7c-0.5-1.1-1.5-2-2.7-2.5c-1.3-0.5-2.8-0.6-4.2-0.2c-0.9,0.2-1.6,0.6-2.3,1.2l-67.8-42.8
				c0.4-0.5,0.7-1.2,0.8-1.8c0.1-0.6,0-1.3-0.3-1.9c-0.3-0.8-1-1.5-1.8-2c-0.8-0.5-1.9-0.8-2.9-0.9l-5.5-100.3
				c0.3,0,0.6-0.1,0.9-0.2c1.4-0.4,2.5-1.2,3.1-2.2c0.6-1,0.7-2.2,0.3-3.3c-0.4-1-1.3-1.9-2.5-2.4l28.2-50c1.1,0.3,2.4,0.3,3.5,0
				c0.7-0.2,1.3-0.5,1.8-0.8c0.5-0.4,1-0.8,1.3-1.3c0.3-0.5,0.5-1.1,0.6-1.6c0-0.6,0-1.1-0.3-1.7c-0.5-1.1-1.4-1.9-2.7-2.5l41.8-83
				c1.1,0.3,2.2,0.2,3.3,0c0.7-0.2,1.3-0.5,1.8-0.8c0.5-0.4,1-0.8,1.3-1.3c0.3-0.5,0.5-1.1,0.5-1.6c0-0.6,0-1.1-0.3-1.7
				c-0.5-1.1-1.5-2-2.7-2.5c-1.3-0.5-2.8-0.6-4.2-0.2c-1.1,0.3-2.1,0.9-2.8,1.7l-65.5-28.1c0.5-1,0.6-2.1,0.1-3.1
				c-0.4-1-1.2-1.8-2.3-2.3c-1.1-0.5-2.4-0.7-3.7-0.6l-44.8-137.1l-0.5,0.1c0.9-0.2,1.7-0.6,2.3-1.2c0.6-0.5,1.1-1.2,1.3-1.9
				l69.3,7.4c0,0.5,0.1,1.1,0.3,1.6c0.5,1.1,1.5,2,2.7,2.5c1.3,0.5,2.8,0.6,4.2,0.2c1.4-0.4,2.5-1.2,3.1-2.2c0.6-1,0.7-2.2,0.3-3.3
				c-0.3-0.7-0.8-1.3-1.4-1.7c-0.6-0.5-1.4-0.8-2.2-1l29-118.2c0.7,0,1.4,0,2.1-0.2c1-0.3,1.9-0.8,2.6-1.5c0.7-0.7,1-1.5,1.1-2.4
				l64-0.9c0,0.2,0.1,0.5,0.2,0.7c0.5,1.1,1.5,2,2.7,2.5c1.3,0.5,2.8,0.6,4.2,0.2c0.7-0.2,1.3-0.5,1.8-0.8s1-0.8,1.3-1.3
				c0.3-0.5,0.5-1.1,0.5-1.6c0-0.6,0-1.1-0.3-1.7c-0.3-0.6-0.7-1.1-1.2-1.6c-0.6-0.5-1.2-0.8-2-1l39.6-141.4c0.8,0.1,1.7,0,2.4-0.2
				c1.4-0.4,2.5-1.2,3.1-2.2s0.7-2.2,0.3-3.3c-0.2-0.5-0.6-1-1.1-1.5c-0.5-0.4-1-0.8-1.7-1s-1.3-0.4-2.1-0.4c-0.7,0-1.4,0-2.1,0.2
				c-1.1,0.3-2,0.9-2.7,1.6c-0.7,0.8-1,1.7-1,2.6L261.7-81.2c0-0.2-0.1-0.3-0.2-0.5c-0.5-1.1-1.4-2-2.7-2.5s-2.8-0.6-4.1-0.2
				c-0.7,0.2-1.3,0.5-1.8,0.8c-0.5,0.4-1,0.8-1.3,1.3c-0.3,0.5-0.5,1.1-0.5,1.6c0,0.6,0,1.1,0.3,1.7c0.3,0.8,0.9,1.4,1.7,1.9
				c0.8,0.5,1.7,0.8,2.7,1L251-9c-0.5,0-1,0.1-1.5,0.2c-0.9,0.3-1.8,0.7-2.4,1.3c-0.6,0.6-1.1,1.3-1.2,2.1l-55.3-3.3
				c0-0.4-0.1-0.8-0.3-1.2c-0.2-0.5-0.6-1-1.1-1.5c-0.5-0.4-1-0.8-1.7-1c-0.6-0.3-1.3-0.4-2-0.4c-0.7,0-1.4,0-2.1,0.2
				c-1.4,0.4-2.5,1.1-3.1,2.2c-0.6,1-0.8,2.2-0.3,3.3l-66.8,25.3c-0.6-0.9-1.6-1.6-2.8-2c-1.2-0.4-2.5-0.4-3.7-0.1
				c-0.7,0.2-1.4,0.5-2,1L50.2-20.6c0.5-0.6,0.8-1.2,1-1.9c0.1-0.7,0-1.4-0.2-2c-0.2-0.5-0.6-1-1.1-1.5c-0.5-0.4-1-0.8-1.7-1
				c-0.6-0.3-1.3-0.4-2-0.4c-0.7,0-1.4,0-2.1,0.2c-0.7,0.2-1.3,0.5-1.8,0.8c-0.5,0.4-1,0.8-1.3,1.3c-0.3,0.5-0.5,1.1-0.5,1.6
				c0,0.6,0,1.1,0.3,1.7c0.2,0.5,0.6,1,1,1.4L-4.2,16.6c-0.7-0.5-1.6-0.8-2.5-0.9c-0.9-0.1-1.8-0.1-2.7,0.2
				c-1.3,0.4-2.4,1.1-3.1,2.1L-97.1-9.8c0.3-0.9,0.3-1.8,0-2.7c-0.2-0.5-0.6-1-1.1-1.5c-0.5-0.4-1-0.8-1.7-1c-0.6-0.3-1.3-0.4-2-0.4
				c-0.7,0-1.4,0-2.1,0.2c-0.7,0.2-1.3,0.5-1.8,0.8c-0.5,0.4-1,0.8-1.3,1.3c-0.3,0.5-0.5,1.1-0.5,1.6s0,1.1,0.3,1.7
				c0.3,0.7,0.8,1.3,1.4,1.8c0.7,0.5,1.5,0.8,2.3,1l-21.5,103.7c-0.7,0-1.4,0-2.1,0.2c-0.1,0-0.3,0.1-0.4,0.1l-72.9-21.5
				c0.3-0.8,0.2-1.6,0-2.3c-0.3-0.8-0.8-1.4-1.5-2c-0.7-0.5-1.6-0.9-2.6-1.1c-1-0.2-2-0.1-2.9,0.1C-208.4,70.6-209,70.9-209.5,71.3z
				 M-54.6,479.7l78.4-65l12.6,42.1c-1.2,0.3-2.3,1-2.9,1.9c-0.7,0.9-0.9,2-0.7,3L-53.6,481C-53.8,480.5-54.2,480.1-54.6,479.7z
				 M299.8,745.9c-0.6,0.5-1.1,1.2-1.3,1.9l-49.3-8.5l39.5-74.9c0.5,0.1,1,0.1,1.6,0l7.1,44.1l5.8,36.1c-0.4,0-0.7,0.1-1,0.2
				C301.2,745,300.5,745.4,299.8,745.9z M145.7,452.1c0-0.2-0.1-0.4-0.2-0.6c-0.2-0.4-0.4-0.8-0.7-1.1l55.2-37.5l35.6,29.5
				c-0.9,0.8-1.3,1.8-1.3,2.8L145.7,452.1z M205.8,324.2l-8.4,4.7l-72.7-20.5l80.4,13.1c-0.1,0.6,0,1.3,0.3,1.9
				C205.5,323.7,205.6,323.9,205.8,324.2z M238.8,182.1c-0.4,0.3-0.7,0.6-0.9,1l-122.5-40.6c0.3-0.9,0.3-1.8,0-2.7
				c-0.1-0.2-0.2-0.4-0.3-0.6l51-25.9L238.8,182.1L238.8,182.1z M343.6,54.9c-0.4,0.6-0.7,1.3-0.7,2l-63.9,0.9
				c0-0.3-0.1-0.6-0.2-0.8c-0.3-0.8-1-1.5-1.8-2l37.3-48.2l31.2,46.6C344.6,53.8,344,54.3,343.6,54.9z M276,54.6
				c-0.7-0.3-1.5-0.5-2.3-0.5L257.4-76.1c0.2,0,0.5-0.1,0.7-0.1c0.1,0,0.2-0.1,0.4-0.1L313.6,6L276,54.6z M387.3-89.2L314.2,5.2
				l-54.9-81.9c0.8-0.4,1.4-1,1.8-1.6c0.4-0.6,0.6-1.4,0.6-2.1l123.5-11.4c0,0.2,0.1,0.3,0.2,0.5C385.8-90.5,386.4-89.7,387.3-89.2z
				 M-51.3,150.1c1.1-0.4,2-1.1,2.6-1.9l66.6,22.5l-33.2,56.5c-1-0.3-2.1-0.3-3.1-0.1L-51.3,150.1z M72.2,681.3
				c-0.5-0.4-1.1-0.8-1.7-1l18.3-39.9l78.2,82.5c-0.4,0.3-0.7,0.6-0.9,0.9l-92.8-38c0.5-1,0.5-2,0.1-3
				C73.1,682.2,72.7,681.7,72.2,681.3z M101.7,623.6l99.3,19.7l-29.3,78.5c-0.9-0.1-1.9-0.1-2.8,0.1c-0.2,0-0.3,0.1-0.5,0.2
				l-68.7-96.4C100.6,625.1,101.3,624.4,101.7,623.6z M89.2,639.4l6-13.1c1,0.2,2.1,0.2,3.1-0.1c0.2,0,0.3-0.1,0.5-0.2l67.6,94.8
				L89.2,639.4z M100.2,618.9l41.1-44.2l67,35.1c-0.5,0.7-0.7,1.4-0.7,2.1l-105.8,9.2c0-0.2-0.1-0.4-0.2-0.5
				C101.4,620,100.9,619.4,100.2,618.9z M141.1,573.7l-27.2-14.2c0.4-0.5,0.6-1.1,0.6-1.7c0.1-0.6,0-1.2-0.3-1.7
				c-0.1-0.3-0.3-0.5-0.4-0.7l89.3-49.3c0.2,0.1,0.3,0.3,0.5,0.4L141.1,573.7z M110.9,553.3l20.5-68.6l70.4,17.6
				c-0.1,0.7-0.1,1.4,0.2,2.1c0.1,0.3,0.3,0.7,0.6,1l-89.3,49.2C112.6,554,111.8,553.5,110.9,553.3z M130.6,483.7l-87.1-21.8
				c0.1-0.3,0.1-0.6,0.1-0.9l91.4-7.2c0,0.2,0.1,0.4,0.2,0.6c0.3,0.6,0.7,1.2,1.3,1.7c0.6,0.5,1.3,0.8,2.1,1L130.6,483.7z
				 M157.3,177.8l-50,18.9c-0.4-0.5-0.9-1-1.5-1.3c-0.6-0.3-1.3-0.6-2.1-0.7l4.5-31.7l49.2,12.5C157,176.2,157,177,157.3,177.8z
				 M103.8,22.5L50.4,50.3c-0.5-0.5-1-0.8-1.7-1.1s-1.4-0.5-2.1-0.5l-0.1-28.1l56.6,0.2c0,0.3,0.1,0.6,0.3,0.9
				C103.5,21.9,103.6,22.2,103.8,22.5z M45.5,19.7l-47.7-0.2c0-0.3-0.1-0.7-0.3-1c-0.2-0.5-0.6-1-1-1.4l45.8-36.9
				c0.8,0.6,1.9,0.9,3,1L45.5,19.7z M45.5,20.5l0.1,28.1c-0.4,0-0.8,0.1-1.2,0.2c-0.9,0.2-1.6,0.6-2.2,1.2L-3.1,22.2
				c0.5-0.6,0.7-1.2,0.8-1.9L45.5,20.5z M-14.5,227.5L18.7,171l78.7,26.6c-0.3,0.8-0.3,1.6-0.1,2.3l-109.6,29.6
				C-12.8,228.7-13.5,228-14.5,227.5z M137.5,449.2l-40.9-43.4l41.5-39.7c0.5,0.1,1,0.1,1.5,0.1l0.3,82.3c-0.4,0-0.8,0.1-1.2,0.2
				C138.2,448.9,137.8,449,137.5,449.2z M42.1,457.9l53.8-51.4l40.8,43.2c-0.6,0.4-1,0.9-1.3,1.5c-0.3,0.6-0.5,1.2-0.5,1.8
				l-72.4,5.7l-19,1.5c0-0.2-0.1-0.4-0.2-0.6C43.1,458.9,42.6,458.4,42.1,457.9z M72.3,380.2c0.6-0.5,1.1-1.1,1.4-1.7
				c0.3-0.7,0.4-1.4,0.3-2l9.3-1.7l52-9.8c0.5,0.4,1.1,0.7,1.7,0.9l-41.1,39.3L72.3,380.2z M71.7,373.5l19.9-28.7l42.1,16.9
				c-0.1,0.6,0,1.2,0.3,1.7c0.1,0.3,0.3,0.7,0.6,1l-60.8,11.4C73.4,374.8,72.7,374,71.7,373.5z M91.2,343.7l-95.6-38.3
				c0.2-0.3,0.3-0.7,0.3-1l116.2,2.9h0.1c0,0.3,0.1,0.7,0.3,1c0.3,0.8,1,1.5,1.9,2.1L91.2,343.7z M39.1,142.7c0-0.1-0.1-0.2-0.1-0.3
				c-0.1-0.3-0.4-0.7-0.6-1l48.7-31.1l19.9,27.4c-0.7,0.4-1.3,0.9-1.7,1.5c-0.4,0.6-0.6,1.3-0.6,2L39.1,142.7z M97.8,196.8
				l-78.7-26.6l13.2-22.4c1.1,0.3,2.2,0.2,3.3-0.1c0.6-0.2,1.2-0.4,1.7-0.8l61.1,49C98.2,196.3,98,196.6,97.8,196.8z M-48.4,144.8
				c-0.3-0.6-0.7-1.2-1.3-1.6l17.7-16.6l60.6,16.2c-0.1,0.2-0.1,0.5-0.1,0.7l-48.3,1.3l-28.4,0.8C-48.2,145.3-48.3,145-48.4,144.8
				L-48.4,144.8z M-31.3,125.9L43,56.5c0.6,0.3,1.3,0.6,2.1,0.7L34,139.4c-1.1,0-2.1,0.2-3,0.7c-0.9,0.5-1.6,1.1-2,1.9L-31.3,125.9z
				 M48.4,56.9l38.2,52.7l-48.8,31.1c-0.8-0.6-1.8-1.1-2.8-1.2L46,57.3c0.6,0,1.2-0.1,1.8-0.2C48.1,57,48.2,57,48.4,56.9z
				 M38.2,146.3c0.3-0.3,0.5-0.6,0.7-0.9l68.3,17.3l-4.5,31.8c-1.3,0-2.5,0.3-3.5,1L38.2,146.3L38.2,146.3z M115.9,302.8
				c-1,0.3-2,0.8-2.6,1.5l-76.5-43.1l62.7-58.8c0.9,0.5,2.1,0.8,3.2,0.8l5.3,39.1l8.2,60.4L115.9,302.8L115.9,302.8z M18.2,170
				l-66.6-22.5c0.1-0.3,0.2-0.7,0.3-1.1l76.6-2.1c0,0.3,0.1,0.6,0.2,0.8c0.5,1.1,1.4,2,2.7,2.5L18.2,170z M-82,127.9l-39.1-24.4
				c0.2-0.2,0.3-0.4,0.4-0.6l87.7,23.4l-17.5,16.3c-1.1-0.6-2.4-0.9-3.7-0.8c-1.3,0.1-2.5,0.6-3.4,1.3L-82,127.9z M41.2,54.8
				c0.3,0.4,0.6,0.8,1,1.2l-74.5,69.7l-88-23.5c0.2-0.7,0.2-1.4,0-2L41.2,54.8z M50.9,55L127,79.7c-0.3,0.9-0.3,1.8,0,2.7
				c0.1,0.3,0.4,0.7,0.6,1l-40.3,25.7L49.3,56.5C50,56.1,50.5,55.6,50.9,55z M130.2,85l-19.1,52c-0.9-0.1-1.9-0.1-2.8,0.2
				c-0.2,0-0.3,0.1-0.5,0.2l-19.9-27.5L128.3,84C128.8,84.5,129.5,84.8,130.2,85z M106.7,144.7c0.8,0.5,1.8,0.8,2.9,0.9l-2.3,16.3
				l-68.1-17.3c0.1-0.4,0.1-0.8,0.1-1.2l65.5-1.4c0,0.2,0.1,0.4,0.2,0.6C105.3,143.4,105.9,144.1,106.7,144.7z M118.4,311.2
				l18.8,46.8c-0.8,0.2-1.5,0.6-2.1,1.1c-0.6,0.5-1,1.1-1.2,1.7l-41.8-16.7l23.1-33.3C116.2,311.1,117.3,311.3,118.4,311.2z
				 M40.2,456.9l27.5-75.6c0.9,0.1,1.8,0.1,2.7-0.2c0.4-0.1,0.8-0.3,1.2-0.5l23.7,25.1l-54,51.6C40.9,457.2,40.6,457,40.2,456.9z
				 M66.9,373c-0.5,0.1-0.9,0.3-1.3,0.5l-71.1-66.6c0.3-0.2,0.5-0.5,0.7-0.7l95.5,38.3l-19.9,28.7C69.6,372.7,68.2,372.6,66.9,373
				L66.9,373z M-5.5,300.8l41.6-39l76.7,43.2c-0.3,0.5-0.5,1-0.5,1.5L-4,303.6c0-0.4-0.1-0.8-0.3-1.1
				C-4.5,301.9-4.9,301.3-5.5,300.8z M35.9,260.8l-48.5-27.3c0.7-1,0.9-2.1,0.6-3.2l109.6-29.6c0.3,0.5,0.6,0.9,1.1,1.3L35.9,260.8z
				 M-120.7,99.2c-0.1-0.2-0.3-0.4-0.5-0.6l104.8-72.1l57.5,24.8c-0.5,0.9-0.6,1.8-0.3,2.8l-161.2,45.3L-120.7,99.2L-120.7,99.2z
				 M-15.6,25.9l4.1-2.8c0.7,0.5,1.6,0.9,2.6,1.1c1,0.2,2,0.1,2.9-0.1c0.9-0.2,1.6-0.6,2.2-1.1l44.6,27.4L-15.6,25.9z M49.5-20
				l54.6,37.7c-0.6,0.7-0.9,1.4-1,2.2l-56.6-0.2l-0.2-38.5c0.4,0,0.8-0.1,1.2-0.2C48.2-19.2,48.9-19.5,49.5-20z M106.6,24.3
				c0.8,0.3,1.8,0.3,2.6,0.2l-51,22.6l46.2-24.1C105,23.7,105.7,24.1,106.6,24.3z M180.6-6.1c0.4,0.5,1,1,1.7,1.3l-48.2,81.7
				c-1.2-0.3-2.4-0.3-3.6,0c-1.3,0.4-2.4,1.1-3.1,2.1L51.3,54.2c0.3-0.9,0.3-1.8-0.1-2.7c0-0.1-0.1-0.2-0.2-0.4L180.6-6.1z
				 M219.3,17.8l-83.4,60c-0.3-0.2-0.6-0.4-0.9-0.5l48.2-81.7c1.2,0.4,2.5,0.4,3.8,0.1c0.7-0.2,1.3-0.5,1.9-0.9L219.3,17.8z
				 M220,18.3l49.4,37.3c-0.5,0.4-0.8,0.9-1,1.5c-0.2,0.5-0.3,1.1-0.2,1.7L137.4,79.8c0-0.1-0.1-0.1-0.1-0.2
				c-0.2-0.4-0.5-0.8-0.8-1.2L220,18.3z M220.8,17.8l26.8-19.3c0.6,0.5,1.4,0.8,2.2,1c0.8,0.2,1.7,0.2,2.5,0.1l19.5,54.8
				c-0.6,0.2-1.2,0.4-1.6,0.7L220.8,17.8z M256.2-2.9c0.6-1,0.7-2.2,0.2-3.2c-0.3-0.8-0.9-1.4-1.7-1.9c-0.8-0.5-1.7-0.8-2.7-1
				l4.5-66.1l16.2,129L253.2-0.7C254.5-1.1,255.6-1.9,256.2-2.9z M268.7,60.4l-102.6,52L136.1,84c0.6-0.5,1-1,1.3-1.6
				c0.3-0.6,0.4-1.2,0.3-1.9l130.7-20.9c0,0.1,0,0.1,0.1,0.2C268.5,60,268.6,60.2,268.7,60.4z M165.3,112.8l-50.9,25.8
				c-0.6-0.6-1.4-1.1-2.3-1.4l19.1-52c0.9,0.1,1.9,0.1,2.8-0.1c0.5-0.1,0.9-0.3,1.4-0.5L165.3,112.8z M158.2,174
				c-0.2,0.2-0.4,0.4-0.5,0.7l-49.4-12.5l2.3-16.6c0.4,0,0.8-0.1,1.3-0.2c0.8-0.2,1.6-0.6,2.2-1.1L158.2,174z M157.6,178.5
				c0.6,0.9,1.5,1.7,2.7,2.1l-42.2,122c-0.4,0-0.7,0-1.1,0l-13.5-99.5c0.2,0,0.5-0.1,0.7-0.1c1.4-0.4,2.5-1.2,3.1-2.2
				c0.6-1,0.7-2.2,0.3-3.3l0-0.1L157.6,178.5L157.6,178.5z M196.3,329.4l-53,29.7c-0.6-0.6-1.4-1-2.3-1.3c-0.9-0.3-1.9-0.3-2.8-0.2
				L119.3,311h0.1c0.7-0.2,1.3-0.5,1.9-0.9c0.5-0.4,1-0.9,1.3-1.4L196.3,329.4z M197.5,329.8l82.8,23.3c-0.1,0.3-0.1,0.6-0.2,1
				l-135.6,7.2c0-0.2-0.1-0.5-0.2-0.7c-0.1-0.3-0.3-0.5-0.4-0.8L197.5,329.8z M281.1,356.6L200,411.8l-56.8-47
				c0.8-0.8,1.3-1.7,1.3-2.7l135.6-7.2c0,0.2,0.1,0.5,0.2,0.7C280.6,355.9,280.8,356.3,281.1,356.6z M199.3,412.3l-55.2,37.5
				c-0.9-0.7-2.1-1.1-3.3-1.2l-0.3-82.4l0.4-0.1c0.6-0.2,1.2-0.4,1.6-0.7L199.3,412.3z M202.7,500.5c-0.3,0.3-0.6,0.7-0.7,1.1
				l-70.4-17.6l8-26.7c0.8,0.1,1.7,0,2.5-0.2c0.7-0.2,1.3-0.5,1.8-0.8L202.7,500.5z M206.9,507.3l5.5,100.3c-0.4,0-0.8,0.1-1.1,0.2
				c-1,0.3-1.8,0.7-2.4,1.3l-67-35.1l62.6-67.3C205.3,507.1,206.1,507.3,206.9,507.3z M209.2,615c0.6,0.5,1.2,0.8,2,1l-9.9,26.5
				L102,622.8c0-0.2,0.1-0.5,0.1-0.7l105.8-9.2c0,0.2,0.1,0.4,0.2,0.5C208.2,614,208.6,614.5,209.2,615z M202,643.4l82.1,16.3
				c-0.1,0.6,0,1.2,0.3,1.7c0.2,0.5,0.5,0.9,0.9,1.3l-110.5,60.6c-0.6-0.6-1.3-1-2.1-1.2L202,643.4z M248.2,739.1L176,726.6
				c0.1-0.6,0-1.3-0.2-1.9c-0.1-0.3-0.2-0.5-0.4-0.7L286,663.3c0.5,0.3,1.1,0.6,1.7,0.8L248.2,739.1z M247.8,739.8l-20,37.9
				c-1.2-0.4-2.6-0.4-3.8-0.1c-0.2,0.1-0.5,0.1-0.7,0.2l-48.9-48.7c0.6-0.5,1.1-1.1,1.4-1.8L247.8,739.8z M162.4,741.6l6.4-11.5
				c1.1,0.3,2.4,0.3,3.5,0c0.4-0.1,0.9-0.3,1.2-0.5l48.9,48.6c-0.1,0.1-0.2,0.1-0.3,0.2L162.4,741.6z M161.6,741.1l-88.8-54.7
				l92.8,37.9c-0.5,1-0.5,2-0.1,3c0.4,1,1.3,1.9,2.5,2.4L161.6,741.1z M69.6,680c-0.3-0.1-0.5-0.1-0.8-0.1l1.6-55.7
				c0.5,0,0.9-0.1,1.4-0.2c0.4-0.1,0.8-0.2,1.1-0.4l15.1,16L69.6,680L69.6,680z M73.7,623.1c0.9-0.6,1.4-1.5,1.7-2.4l15.7,1.3
				c0,0.8,0.3,1.6,0.8,2.4c0.6,0.7,1.3,1.3,2.3,1.6l-5.8,12.6L73.7,623.1L73.7,623.1z M99.4,618.4c-0.5-0.2-1-0.4-1.5-0.5l10.9-56.2
				c0.7,0,1.4,0,2.1-0.2c1-0.3,1.9-0.8,2.5-1.4l27.1,14.2L99.4,618.4L99.4,618.4z M107.4,553.3c-0.2,0.1-0.4,0.1-0.6,0.2l-65.4-89
				c0.8-0.5,1.5-1.1,1.8-1.8l87.2,21.9l-20.5,68.6C109.1,553,108.2,553.1,107.4,553.3L107.4,553.3z M24.6,414.1l40.6-33.6
				c0.5,0.3,1,0.5,1.5,0.7l-27.5,75.6c-0.6-0.1-1.2-0.1-1.8,0L24.6,414.1z M24.4,413.1L-7.2,307.8c0.3-0.1,0.6-0.2,0.9-0.4L64.8,374
				c-1,0.8-1.6,1.8-1.6,2.9c-0.1,1.1,0.4,2.2,1.3,3L24.4,413.1z M-9.4,299.5l-6.9-64c0.3,0,0.5-0.1,0.8-0.2c0.9-0.3,1.7-0.7,2.4-1.3
				l48.4,27.3l-41.6,39C-7.2,299.8-8.3,299.5-9.4,299.5z M-19.8,227.5l-51.8-62.2l19.5-14.3l32.6,76.4
				C-19.6,227.4-19.7,227.4-19.8,227.5z M-72.1,164.6l-50-60.1c0.2-0.1,0.3-0.2,0.5-0.4l63.6,39.7c-0.6,0.7-0.9,1.5-0.9,2.3
				c0,0.8,0.3,1.6,0.9,2.3c0.6,0.7,1.4,1.3,2.3,1.6c0.9,0.3,2,0.5,3,0.4L-72.1,164.6z M-102.7-6.8c0.7,0,1.4,0,2.1-0.2
				c1.1-0.3,2.1-0.9,2.8-1.7L-17.3,26L-121.8,98c-0.7-0.5-1.5-0.9-2.4-1.1L-102.7-6.8z M-12.9,18.7c-0.3,0.9-0.3,1.8,0,2.7
				c0.2,0.4,0.4,0.8,0.7,1.1l-4.4,3L-93.8-7.8L-12.9,18.7z M170.9-2.8L112.7,23c0.6-0.6,1-1.2,1.2-1.9c0.2-0.7,0.1-1.5-0.2-2.1
				L170.9-2.8z M245.8-4.6c0,0.4,0.1,0.9,0.3,1.3c0.2,0.4,0.5,0.8,0.8,1.2L220,17.3L189.5-5.8c0.6-0.6,1-1.3,1.1-2.1L245.8-4.6z
				 M349.3,52.8c-0.9-0.1-1.9-0.1-2.7,0.2l-0.3,0.1L314.8,6l73.4-94.8c0.2,0.1,0.5,0.2,0.7,0.2L349.3,52.8z M243.2,180.8
				c-0.8-0.1-1.6,0-2.3,0.2c-0.5,0.1-0.9,0.3-1.4,0.5L166.8,113l102.4-51.9c0.7,0.8,1.8,1.3,2.9,1.5L243.2,180.8z M168,176.8
				c0-0.5-0.1-1.1-0.3-1.6c-0.2-0.5-0.6-1-1.1-1.5c-0.5-0.4-1-0.8-1.7-1c-0.6-0.3-1.3-0.4-2-0.4c-0.7,0-1.4,0-2.1,0.2
				c-0.7,0.2-1.3,0.5-1.9,0.9l-44.3-29.8c0.1-0.1,0.2-0.2,0.3-0.4l122.5,40.6c0,0.1-0.1,0.2-0.1,0.3L168,176.8z M208.6,317.9
				c-0.8,0.2-1.5,0.6-2.1,1.1c-0.6,0.5-1,1.1-1.3,1.7l-82.2-13.4c0.1-1-0.2-2-0.9-2.9c-0.7-0.8-1.8-1.5-3-1.8l42.1-121.9
				c0.8,0.2,1.7,0.2,2.5,0L208.6,317.9z M212.2,326.1c1.1-0.3,2.1-0.9,2.8-1.7l64.5,27.6l-81.1-22.8l7.9-4.4
				c0.7,0.7,1.6,1.1,2.7,1.4C210.1,326.4,211.2,326.4,212.2,326.1L212.2,326.1z M241.2,441c-1.1-0.3-2.2-0.2-3.3,0
				c-0.6,0.2-1.1,0.4-1.6,0.7l-35.6-29.5l81-55.1c0.4,0.3,0.8,0.6,1.3,0.7L241.2,441z M208.8,498.9c-1.1-0.3-2.4-0.3-3.5,0
				c-0.7,0.2-1.4,0.5-2,0.9l-58.8-44.3c0.8-0.8,1.2-1.7,1.2-2.7l88.6-6.9c0,0.2,0.1,0.4,0.2,0.6c0.4,1,1.3,1.9,2.5,2.4L208.8,498.9z
				 M284.9,657.8c-0.3,0.4-0.5,0.8-0.6,1.2l-82-16.3l9.9-26.5c0.9,0.1,1.8,0.1,2.7-0.2c0.9-0.2,1.6-0.6,2.3-1.2L284.9,657.8z
				 M230.4,779.4c-0.4-0.5-1-1-1.6-1.3l20.1-38.1l49.6,8.6c-0.1,0.6,0,1.2,0.3,1.7c0.1,0.2,0.2,0.5,0.4,0.7L230.4,779.4z
				 M148.6,775.1c0-0.5-0.1-1-0.3-1.4c-0.4-1-1.3-1.9-2.5-2.4l16.2-29l59.5,36.6c-0.5,0.5-0.8,1-1,1.6L148.6,775.1z M71.5,687.5
				c0.2-0.1,0.4-0.3,0.6-0.4l89.1,54.8L144.9,771c-1.1-0.3-2.4-0.3-3.5,0c-0.3,0.1-0.5,0.2-0.8,0.3L71.5,687.5z M107.2,561.4
				c0.2,0.1,0.4,0.1,0.6,0.2l-10.9,56.2c-1.3-0.1-2.6,0.3-3.6,0.9c-1,0.6-1.8,1.6-2,2.6l-15.7-1.3c0-0.7-0.2-1.5-0.7-2.1
				c-0.5-0.7-1.1-1.2-1.9-1.6L107.2,561.4z M-53.7,484.3c0.4-0.8,0.6-1.7,0.4-2.5l86.5-19.3c0.5,1,1.5,1.9,2.8,2.4
				c1.3,0.5,2.7,0.5,4.1,0.2c0.2-0.1,0.4-0.1,0.6-0.2l65.5,89c-0.5,0.3-1,0.6-1.3,1L-53.7,484.3z M-57,478.5l49.3-168.7l31.2,104.1
				l-78.9,65.4C-55.8,478.9-56.4,478.6-57,478.5z M-116.3,198l44-32.2l51.7,62.1c-0.6,0.4-1,0.8-1.4,1.3L-116.3,198z M-124.7,105.4
				c0.3,0,0.6-0.1,0.9-0.2c0.3-0.1,0.6-0.2,0.8-0.3l50.1,60.2l-43.9,32.1L-124.7,105.4z M-202.8,78.1c0.8-0.4,1.4-1,1.8-1.7
				l72.1,21.2c-0.9,0.5-1.6,1.3-1.9,2.1c-0.3,0.9-0.3,1.8,0,2.6c0.3,0.9,1,1.6,1.9,2.1c0.9,0.5,2,0.8,3.1,0.9l7.8,91L-202.8,78.1z"
				/>
		</g>
		<path class="st3" d="M-184.4-53.5c0,0.4,0.2,0.8,0.4,1.2c0.2,0.4,0.6,0.7,1,1c0.4,0.3,0.9,0.5,1.4,0.6c0.6,0.2,1.2,0.2,1.8,0.1
			l29.2,104c-0.6,0.2-1.2,0.5-1.6,0.9c-0.4,0.4-0.7,0.9-0.9,1.4c-0.1,0.5-0.1,1.1,0.1,1.6c0.2,0.5,0.6,1,1.1,1.3
			c0.5,0.4,1.1,0.6,1.7,0.8c0.7,0.1,1.3,0.1,2,0c0.7-0.1,1.3-0.4,1.8-0.8c0.5-0.4,0.9-0.8,1.1-1.3c0.1-0.2,0.1-0.3,0.2-0.5l47.1,0.7
			c0,0.4,0.2,0.8,0.4,1.2c0.2,0.4,0.6,0.7,1,1c0.4,0.3,0.9,0.5,1.4,0.6c0.5,0.1,1,0.2,1.6,0.2l21.3,87c-0.6,0.1-1.2,0.4-1.6,0.8
			c-0.5,0.4-0.8,0.8-1,1.3c-0.2,0.4-0.3,0.9-0.2,1.4c0.1,0.5,0.3,0.9,0.6,1.3c0.3,0.4,0.7,0.7,1.2,1c0.5,0.3,1,0.4,1.6,0.5
			c0.6,0.1,1.2,0,1.7-0.1c0.6-0.1,1.1-0.4,1.5-0.7c0.4-0.3,0.8-0.7,1-1.1c0.2-0.4,0.3-0.9,0.3-1.4l51-5.4c0.2,0.5,0.5,1,0.9,1.4
			c0.5,0.4,1,0.7,1.7,0.9l-0.4-0.1l-33,100.9c-0.7-0.1-1.4,0-2.1,0.2c-0.7,0.2-1.2,0.6-1.7,1c-0.4,0.4-0.7,1-0.8,1.5
			c-0.1,0.6,0,1.1,0.3,1.7l-48.2,20.6c-0.4-0.5-1-0.9-1.7-1.1c-0.7-0.2-1.4-0.3-2.2-0.3c-0.7,0.1-1.4,0.3-2,0.7
			c-0.6,0.4-1,0.9-1.3,1.4c-0.3,0.6-0.3,1.2-0.2,1.7c0.2,0.6,0.5,1.1,1,1.5c0.5,0.4,1.2,0.7,1.9,0.9c0.7,0.2,1.5,0.1,2.2,0
			l30.8,61.1c-0.9,0.4-1.6,1-1.9,1.7c-0.3,0.8-0.3,1.6,0.1,2.3c0.4,0.7,1.1,1.3,2,1.7c0.9,0.3,2,0.4,2.9,0.1l20.7,36.8
			c-0.9,0.4-1.5,1-1.8,1.7c-0.2,0.4-0.3,0.9-0.2,1.4c0.1,0.5,0.3,0.9,0.6,1.3c0.3,0.4,0.7,0.7,1.2,1c0.5,0.3,1,0.4,1.6,0.5
			l-4.1,73.8c-0.7,0-1.4,0.2-1.9,0.5c-0.6,0.3-1,0.7-1.4,1.2c-0.3,0.5-0.5,1-0.4,1.6c0,0.5,0.2,1.1,0.6,1.6l-49.9,31.5
			c-0.4-0.4-0.9-0.6-1.5-0.8c-0.6-0.2-1.2-0.2-1.8-0.2s-1.2,0.2-1.7,0.4c-0.5,0.2-1,0.6-1.3,1c-0.3,0.4-0.5,0.9-0.6,1.3
			c-0.1,0.5,0,1,0.2,1.4c0.2,0.5,0.5,0.9,1,1.2c0.4,0.3,1,0.6,1.5,0.8h0l-9.5,59.1c-0.7,0-1.3,0.2-1.9,0.5s-1,0.7-1.4,1.1
			c-0.3,0.5-0.5,1-0.5,1.5c0,0.5,0.1,1.1,0.4,1.5c0.3,0.5,0.8,0.9,1.3,1.2c0.6,0.3,1.2,0.5,1.9,0.5c0.7,0.1,1.3,0,2-0.2
			c0.6-0.2,1.2-0.5,1.6-0.9l50.6,21c0,0-0.1,0.1-0.1,0.1c-0.3,0.8-0.3,1.7,0.2,2.4c0.5,0.8,1.3,1.3,2.3,1.6c1,0.3,2.1,0.2,3.1-0.2
			c1-0.4,1.7-1,2-1.8c0.2-0.4,0.2-0.8,0.2-1.2l52.9-4.1c0.1,0.5,0.4,1,0.8,1.4c0.4,0.4,0.9,0.7,1.5,0.9c0.6,0.2,1.2,0.3,1.9,0.3
			c0.6,0,1.3-0.2,1.8-0.5c0.6-0.3,1-0.6,1.4-1.1c0.3-0.4,0.5-0.9,0.6-1.4c0-0.5-0.1-1-0.3-1.5c-0.3-0.5-0.7-0.9-1.2-1.2l50.8-61.6
			c0.2,0.1,0.4,0.2,0.6,0.2c0.5,0.1,1.1,0.2,1.7,0.1c0.6-0.1,1.1-0.2,1.6-0.4c0.5-0.2,0.9-0.5,1.2-0.9c0.3-0.4,0.5-0.8,0.7-1.2
			c0.1-0.4,0.1-0.9,0-1.3c-0.1-0.4-0.4-0.8-0.7-1.2c-0.3-0.4-0.8-0.7-1.2-0.9c-0.5-0.2-1-0.4-1.6-0.4l-1.2-41
			c0.6-0.1,1.1-0.2,1.6-0.4c0.5-0.2,0.9-0.5,1.2-0.9c0.3-0.4,0.5-0.8,0.7-1.2c0.1-0.4,0.1-0.9-0.1-1.3c-0.1-0.4-0.4-0.9-0.7-1.2
			c-0.4-0.4-0.8-0.6-1.3-0.9c-0.5-0.2-1.1-0.3-1.6-0.4c-0.6,0-1.1,0-1.7,0.2l-25.2-40.3c0.8-0.4,1.5-1,1.7-1.8
			c0.3-0.7,0.2-1.5-0.2-2.3l116.5-52c0.5,0.6,1.2,1,2,1.2c0.5,0.1,1,0.2,1.5,0.2c0.5,0,1-0.1,1.5-0.3c0.5-0.2,0.9-0.4,1.2-0.8
			c0.3-0.3,0.6-0.7,0.8-1.1c0.2-0.4,0.2-0.8,0.2-1.2c0-0.4-0.2-0.8-0.4-1.2c-0.2-0.4-0.6-0.7-1-1c-0.4-0.3-0.9-0.5-1.4-0.6
			c-0.6-0.2-1.2-0.2-1.8-0.1L113,241.2c0.5,0.1,1.1,0.1,1.6,0.1c0.5-0.1,1-0.2,1.5-0.5s0.9-0.5,1.2-0.9c0.3-0.4,0.5-0.8,0.6-1.2
			c0.1-0.4,0.1-0.9,0-1.3c-0.1-0.4-0.3-0.8-0.6-1.2c-0.3-0.4-0.7-0.7-1.2-0.9c-0.5-0.2-1-0.4-1.5-0.4l5.1-47.1
			c0.8,0,1.6-0.2,2.3-0.6c0.7-0.4,1.2-0.9,1.4-1.6c0.3-0.6,0.3-1.3,0-2l69.3-23l-0.1,0.8l0.7-1l0.4-0.1l-0.2-0.2l63.1-88
			c0.1,0,0.2,0.1,0.4,0.1c1,0.3,2.1,0.2,3.1-0.2c0.9-0.4,1.7-1,2-1.8c0.2-0.4,0.2-0.8,0.2-1.2c0-0.4-0.2-0.8-0.4-1.2
			c-0.2-0.4-0.6-0.7-1-1c-0.4-0.3-0.9-0.5-1.4-0.6c-0.5-0.1-1-0.2-1.5-0.2c-0.5,0-1,0.1-1.5,0.3c-0.5,0.2-0.9,0.4-1.2,0.8
			c-0.3,0.3-0.6,0.7-0.8,1.1c-0.3,0.6-0.3,1.2-0.1,1.8l-53.7,15.8c-0.1,0-0.2-0.1-0.3-0.1c-0.5-0.1-1-0.2-1.6-0.2L183.2,9.4
			c0.6-0.1,1.2-0.4,1.7-0.8c0.5-0.4,0.8-0.8,1.1-1.3c0.2-0.4,0.2-0.8,0.2-1.2c0-0.4-0.2-0.8-0.4-1.2c-0.2-0.4-0.6-0.7-0.9-1
			c-0.4-0.3-0.9-0.5-1.4-0.6c-0.5-0.1-1-0.2-1.5-0.2c-0.5,0-1,0.1-1.5,0.3c-0.5,0.2-0.9,0.4-1.2,0.8c-0.3,0.3-0.6,0.7-0.8,1.1
			c-0.3,0.6-0.3,1.3,0,2l-62.3,20.4c-0.5-0.7-1.3-1.3-2.3-1.5c-0.6-0.2-1.3-0.2-2-0.1c-0.7,0.1-1.3,0.3-1.8,0.7L76.3-0.4
			c0.3-0.3,0.6-0.6,0.7-1c0.2-0.4,0.2-0.8,0.2-1.2c0-0.4-0.2-0.8-0.4-1.2c-0.2-0.4-0.6-0.7-0.9-1c-0.4-0.3-0.9-0.5-1.4-0.6
			c-0.5-0.1-1-0.2-1.5-0.2c-0.5,0-1,0.1-1.5,0.3c-0.5,0.2-0.9,0.4-1.2,0.8c-0.3,0.3-0.6,0.7-0.8,1.1c-0.2,0.5-0.3,1-0.2,1.5
			c0.1,0.5,0.3,1,0.7,1.4L29.9,27.1c-0.4-0.3-0.9-0.6-1.5-0.7c-0.9-0.2-1.9-0.2-2.7,0c-0.9,0.3-1.6,0.8-2.1,1.4L-25.5,9.3
			c0.3-0.8,0.3-1.7-0.2-2.4C-26.2,6.1-27,5.5-28,5.3c-0.5-0.1-1-0.2-1.5-0.2c-0.5,0-1,0.1-1.5,0.3c-0.5,0.2-0.9,0.4-1.2,0.8
			c-0.3,0.3-0.6,0.7-0.8,1.1c-0.1,0.3-0.2,0.6-0.2,0.9L-74,10.5c-0.1-0.6-0.4-1.1-0.9-1.5c-0.5-0.4-1.1-0.8-1.8-1
			c-0.4-0.1-0.7-0.2-1.1-0.2l-3.3-49.3c0.7-0.1,1.4-0.3,2-0.7c0.6-0.4,1-0.9,1.2-1.4c0.2-0.4,0.2-0.8,0.2-1.2s-0.2-0.8-0.4-1.2
			c-0.2-0.4-0.6-0.7-1-1c-0.4-0.3-0.9-0.5-1.4-0.6c-0.5-0.1-1-0.2-1.5-0.2c-0.5,0-1,0.1-1.5,0.3c-0.5,0.2-0.9,0.4-1.2,0.8
			c-0.3,0.3-0.6,0.7-0.8,1.1c0,0.1-0.1,0.2-0.1,0.4l-90.8-8.4c0-0.7-0.2-1.3-0.7-1.9c-0.5-0.6-1.2-1-2-1.2c-0.5-0.1-1-0.2-1.5-0.2
			c-0.5,0-1,0.1-1.5,0.3c-0.5,0.2-0.9,0.4-1.2,0.8c-0.3,0.3-0.6,0.7-0.8,1.1C-184.4-54.3-184.5-53.9-184.4-53.5z M-145.8,54.9
			c-0.3-0.5-0.8-0.9-1.3-1.1l23-34.2L-96.8,55c-0.6,0.4-1.1,0.9-1.3,1.5c-0.1,0.2-0.1,0.4-0.2,0.6l-47-0.7
			C-145.3,55.9-145.5,55.3-145.8,54.9z M-68.7,148.5l53.6-50.5l37.5,19c-0.2,0.4-0.4,0.8-0.4,1.2c0,0.4,0,0.8,0.2,1.2L-68,149.2
			C-68.2,148.9-68.5,148.7-68.7,148.5z M-44,251l59.2-9.6l-53.5,15l-6.2-3.5c0.1-0.2,0.2-0.4,0.3-0.6C-44,252-43.9,251.5-44,251z
			 M-66.4,339.9l26.2-21.7l40.6,27.6c-0.2,0.2-0.4,0.5-0.5,0.8c-0.1,0.1-0.1,0.3-0.1,0.4l-65.2-5.1
			C-65.4,341.3-65.8,340.5-66.4,339.9z M-112.3,538.6l5.7-35.4c0.4,0,0.8,0,1.1,0l29,55.1l-36.3,6.3c-0.2-0.5-0.5-1-0.9-1.4
			c-0.5-0.4-1-0.7-1.6-0.8c-0.3-0.1-0.5-0.1-0.8-0.1L-112.3,538.6z M82.8,354.2c0.2-0.8,0-1.5-0.5-2.2c-0.5-0.7-1.3-1.2-2.2-1.4
			l9.3-31l57.7,47.8c-0.3,0.3-0.5,0.6-0.7,0.9L82.8,354.2z M28.5,32.4c0.6-0.2,1.2-0.5,1.6-0.9l34,17.7L26.6,32.6
			C27.2,32.6,27.9,32.6,28.5,32.4z M-27.8,11.2L7.6,71.3c-0.2,0.1-0.5,0.2-0.7,0.4l-61.3-44.2L-32,10.7c0.4,0.3,0.9,0.5,1.4,0.6
			C-29.7,11.5-28.7,11.5-27.8,11.2z M-93.7,54.1l11.9-94.9l3.3,48.6c-0.7,0.1-1.4,0.3-2,0.7c-0.6,0.4-1,0.9-1.2,1.4
			c-0.3,0.8-0.3,1.6,0.2,2.4c0.4,0.7,1.2,1.3,2.2,1.6L-93.7,54.1z M-55.5,27.6L-91.8,55c-0.4-0.2-0.8-0.4-1.2-0.5l14.4-40.3
			c0.6,0.1,1.2,0.1,1.8-0.1c0.6-0.1,1.1-0.4,1.6-0.7L-55.5,27.6z M-54.9,28L6.5,72.2c-0.3,0.3-0.4,0.6-0.6,0.9c0,0,0,0.1,0,0.1
			l-96.2-15.4c0-0.4,0-0.8-0.2-1.3c-0.2-0.4-0.4-0.8-0.8-1.1L-54.9,28z M-8.8,143.5l36.2-9.2l3.3,23.3c-0.5,0.1-1.1,0.3-1.5,0.5
			s-0.8,0.6-1.1,1l-36.8-13.9C-8.6,144.7-8.6,144.1-8.8,143.5z M53.1,519l-68.3,27.9c-0.2-0.2-0.4-0.5-0.7-0.6l57.5-60.7l13.5,29.4
			c-0.5,0.2-0.9,0.4-1.3,0.8c-0.4,0.3-0.6,0.7-0.8,1.1C52.7,517.5,52.7,518.3,53.1,519z M34.6,475.2c0.7,0.2,1.5,0.2,2.3,0.1
			l4.4,9.6l-56.8,60l49.7-69.8C34.3,475.1,34.5,475.2,34.6,475.2L34.6,475.2z M-17.3,545.6c-0.7-0.2-1.4-0.2-2.1-0.1L-41,487.7
			l73.1-14.5c0.3,0.6,0.8,1.2,1.5,1.6L-17,545.7C-17.1,545.7-17.2,545.7-17.3,545.6L-17.3,545.6z M-45.9,464.7
			c0-0.6-0.2-1.1-0.5-1.6L3,437.3l30.3,32.5c-0.5,0.4-0.9,0.8-1.1,1.3c-0.1,0.1-0.1,0.3-0.1,0.4L-45.9,464.7L-45.9,464.7z
			 M-42.9,387.1c0.1-0.1,0.3-0.2,0.4-0.3L23.2,423c-0.3,0.5-0.5,1-0.5,1.5c0,0.5,0.2,1.1,0.5,1.5l-20,10.5L-42.9,387.1z
			 M-41.6,385.6c0.2-0.5,0.3-1,0.2-1.5l51.8-13l15.1,50.5c-0.7,0.2-1.3,0.5-1.8,1l-65.7-36.2C-41.9,386.1-41.8,385.8-41.6,385.6
			L-41.6,385.6z M5,350.7c0.6-0.2,1.1-0.4,1.5-0.8c0.4-0.3,0.8-0.8,1-1.2c0.1-0.1,0.1-0.3,0.1-0.4l67.2,5.3c0,0.2,0,0.5,0.1,0.7
			l-64.1,16L5,350.7z M120.6,181.6c-0.8-0.1-1.5-0.1-2.3,0.1l-24.5-41.6l49-16.5c0.4,0.6,1.1,1.1,1.9,1.4L120.6,181.6z M75.8,0
			l33.7,27.1c-0.3,0.3-0.6,0.6-0.7,1c-0.1,0.2-0.2,0.5-0.2,0.7L73.5,29l0.1-28.3C74.4,0.6,75.2,0.4,75.8,0z M108.6,29.5
			c0.1,0.5,0.3,1,0.6,1.4L75.9,51.3c-0.4-0.4-1-0.7-1.6-0.8c-0.3-0.1-0.6-0.1-0.9-0.2l0.1-20.7L108.6,29.5L108.6,29.5z M72.7,29.6
			l-0.1,20.7c-0.5,0-1.1,0.2-1.5,0.4c-0.5,0.2-0.9,0.5-1.2,0.8L30.6,31c0.1-0.2,0.3-0.4,0.3-0.6c0.1-0.2,0.1-0.4,0.2-0.6L72.7,29.6z
			 M13.5,73.2l56-18.2c0.3,0.5,0.7,0.8,1.2,1.1l-28,38.7L13,75.8c0.2-0.2,0.3-0.5,0.5-0.7C13.7,74.5,13.7,73.8,13.5,73.2z
			 M29.9,118.4c0-0.5-0.2-1-0.5-1.4c-0.3-0.4-0.7-0.8-1.2-1.1l14.6-20.2l35.8,22.8c-0.2,0.2-0.3,0.5-0.5,0.7c0,0.1-0.1,0.2-0.1,0.2
			L29.9,118.4L29.9,118.4z M4.1,344.5L4.3,284c0.4,0,0.7,0,1.1-0.1l30.5,29.2L5.8,345c-0.3-0.1-0.5-0.2-0.8-0.3
			C4.7,344.6,4.4,344.5,4.1,344.5z M52.7,293c0.2,0.5,0.6,0.9,1,1.3l-17.3,18.4L6.1,283.7c0.5-0.2,0.9-0.4,1.3-0.7l34.9,6.5
			l10.2,1.9C52.4,292,52.5,292.5,52.7,293z M36.4,313.5L76,351.4c-0.4,0.4-0.7,0.8-0.9,1.3c-0.1,0.1-0.1,0.3-0.1,0.4l-14.2-1.1
			l-53-4.2c0-0.4-0.1-0.9-0.3-1.3c-0.2-0.4-0.6-0.8-1-1.1L36.4,313.5z M8.6,280.5l31-12.4l14.6,21.1c-0.7,0.4-1.2,0.9-1.5,1.6
			l-44.7-8.4c0.2-0.2,0.3-0.5,0.4-0.7C8.5,281.4,8.6,281,8.6,280.5z M22.8,242.8c0.4-0.3,0.8-0.6,1.1-1c0.3-0.4,0.4-0.8,0.5-1.3
			l7.5-0.2l78-1.9c0,0.3,0.1,0.5,0.2,0.8l-70.3,28.2L22.8,242.8z M35.3,161.5c0.2-0.6,0.1-1.2-0.1-1.7l57.9-19.5l24.5,41.6
			c-0.7,0.3-1.3,0.8-1.6,1.4L35.3,161.5z M163.7,110.8l-14.5,9.1c-0.4-0.4-1-0.7-1.6-0.8c-0.6-0.2-1.2-0.2-1.9-0.1s-1.2,0.3-1.7,0.5
			l-12.8-12l64.5-17.2c0.1,0.1,0.2,0.3,0.3,0.4L163.7,110.8z M80.7,123.2c0.8,0.2,1.6,0.2,2.4,0l9.7,16.5L35,159.3
			c-0.1-0.2-0.3-0.4-0.5-0.5l44.9-36.1C79.8,122.9,80.3,123.1,80.7,123.2L80.7,123.2z M81.2,117.1c-0.8,0.1-1.5,0.5-2.1,0.9
			L43.2,95.1l28.1-38.8c0.1,0,0.3,0.1,0.4,0.1c0.4,0.1,0.9,0.2,1.3,0.2L81.2,117.1L81.2,117.1z M129.9,107.1l-44.3,11.8
			c-0.2-0.4-0.5-0.8-1-1.1c-0.4-0.3-0.9-0.5-1.4-0.7c-0.4-0.1-0.9-0.2-1.3-0.2l-8.2-60.5c0.5-0.1,1.1-0.3,1.5-0.5L129.9,107.1z
			 M130.4,107.6l13,12.2c-0.4,0.3-0.7,0.7-0.9,1.2c-0.1,0.2-0.1,0.4-0.2,0.6l-22.2-0.6L86,120c0-0.2,0-0.4-0.1-0.5L130.4,107.6z
			 M142.5,123l-49,16.6l-9.6-16.5c0.9-0.4,1.6-1,2-1.8c0.1-0.2,0.1-0.4,0.2-0.6l56.4,1.6C142.4,122.5,142.4,122.7,142.5,123z
			 M79.9,206.7l-56.3,31.7c-0.5-0.5-1.2-0.9-1.9-1.1l-0.2,0l6.1-45.1l3.8-28.1c0.8,0,1.7-0.2,2.4-0.6L79.9,206.7z M32.7,157.8
			c-0.4-0.1-0.9-0.2-1.4-0.1l-3.3-23.4l50.2-12.7c0.1,0.2,0.3,0.5,0.5,0.7L34,158.3C33.6,158.1,33.2,157.9,32.7,157.8L32.7,157.8z
			 M195.4,88.1c-0.1,0.5-0.1,1,0,1.5l-64.8,17.3L75.9,55.7c0.3-0.3,0.6-0.6,0.8-0.9L195.4,88.1z M116.2,186.2l-35.7,20.1L34.3,163
			c0.3-0.3,0.6-0.6,0.8-0.9l80.6,21.8C115.5,184.7,115.7,185.5,116.2,186.2z M111,235.8c-0.4,0.3-0.7,0.7-0.9,1.2
			c-0.1,0.3-0.2,0.5-0.2,0.8L24.4,240c0-0.4-0.2-0.8-0.4-1.1l56.4-31.8L111,235.8z M111,240.3l-52.3,49c-0.3-0.2-0.6-0.3-0.9-0.4
			c-1-0.3-2-0.2-2.9,0.1l-14.6-21.1l70.3-28.1C110.6,239.9,110.8,240.1,111,240.3z M57.1,295l20.2,55.6c-0.3,0.1-0.5,0.2-0.8,0.3
			L36.9,313l17.4-18.5c0.3,0.1,0.6,0.3,0.9,0.3C55.8,295.1,56.5,295.1,57.1,295z M7.5,278.7c-0.4-0.4-0.9-0.7-1.5-0.8l13.8-34.4
			c0.8,0.1,1.6,0,2.3-0.3l17,24.5L8.4,279.9C8.3,279.5,8,279,7.5,278.7z M26.3,121.6c0.8-0.1,1.5-0.3,2.1-0.7
			c0.6-0.4,1.1-0.9,1.3-1.5c0.1-0.2,0.1-0.3,0.1-0.5l48.2,1c0,0.3,0,0.6,0.1,0.9L28,133.6L26.3,121.6z M27.2,115.4
			c-0.7-0.2-1.4-0.2-2-0.1l-14-38.2c0.5-0.2,1-0.4,1.4-0.8l29.7,19l-14.7,20.3C27.5,115.5,27.3,115.4,27.2,115.4L27.2,115.4z
			 M-25.9,10l95.3,42.2c-0.1,0.1-0.1,0.2-0.1,0.3c-0.3,0.6-0.3,1.3,0,2l-56,18.2c-0.4-0.7-1.2-1.2-2.1-1.5c-0.9-0.3-1.9-0.3-2.8,0
			L-27.2,11C-26.7,10.7-26.2,10.4-25.9,10z M30.4,27.5L70.5-0.2c0.4,0.3,0.9,0.6,1.5,0.7c0.3,0.1,0.6,0.1,0.9,0.1L72.7,29l-41.6,0.2
			C31.1,28.6,30.8,28,30.4,27.5z M113.4,32.3c0.7-0.1,1.4-0.4,1.9-0.8l3,2.1L76.9,51.5l32.8-20.2c0.4,0.4,1,0.7,1.6,0.8
			C112,32.4,112.7,32.4,113.4,32.3z M119,34l77.1,53c-0.1,0.1-0.2,0.3-0.3,0.5l-0.3,0.1L76.9,54.2c0.2-0.7,0.1-1.4-0.2-2L119,34z
			 M196.8,91.3L160,135.6l-14.2-10.4c0.9,0.1,1.9-0.1,2.7-0.4c0.8-0.4,1.4-1,1.7-1.7c0.2-0.5,0.3-0.9,0.2-1.4
			c-0.1-0.5-0.3-0.9-0.6-1.3l46.8-29.2C196.6,91.2,196.7,91.3,196.8,91.3z M159.6,136.1l-38.1,45.8l-0.3-0.1l24-56.2L159.6,136.1z
			 M118.3,187.7c0.2,0.1,0.4,0.1,0.6,0.1l-5.1,47.1c-0.8,0-1.6,0.2-2.3,0.6L81,206.8l35.6-20.1C117.1,187.1,117.7,187.5,118.3,187.7
			L118.3,187.7z M111.5,240.7c0.2,0.1,0.4,0.2,0.7,0.3L89,318.4L59.5,294c0.3-0.3,0.6-0.7,0.8-1.1c0.2-0.6,0.3-1.2,0.1-1.8
			c-0.2-0.6-0.6-1.1-1.1-1.5L111.5,240.7z M88.8,319.1l-9.4,31.3c-0.4-0.1-0.9,0-1.3,0l-20.2-55.6c0.4-0.1,0.8-0.3,1.1-0.5
			L88.8,319.1z M76.5,356.2l-48.2,65.5c-0.1,0-0.3-0.1-0.4-0.1c-0.6-0.2-1.2-0.2-1.8-0.1L11,370.9l64.2-16.1
			C75.4,355.4,75.9,355.9,76.5,356.2z M26.9,427.7l8,41.3c-0.4,0.1-0.8,0.2-1.1,0.4L3.6,437l19.9-10.5c0.5,0.5,1.1,0.8,1.8,1
			C25.9,427.7,26.4,427.8,26.9,427.7z M39.9,472.1l11.6-1c0.2,0.7,0.6,1.3,1.2,1.7l-10.9,11.5l-4.2-9.3c0.5-0.2,0.9-0.4,1.3-0.8
			c0.4-0.3,0.6-0.7,0.8-1.1C39.8,472.9,39.9,472.5,39.9,472.1z M55.1,473.7l1.2,41c-0.2,0-0.4,0-0.6,0.1L42.1,485l11.1-11.8
			c0.3,0.1,0.5,0.2,0.8,0.3C54.4,473.6,54.8,473.7,55.1,473.7z M53.4,519.6L-12,559.8l-4.7-8.4c0.9-0.4,1.5-1,1.8-1.7
			c0.3-0.7,0.3-1.5-0.1-2.3L53.4,519.6z M-12.6,560.1l-44,27.1l-0.2-0.1l36-35.8c0.3,0.2,0.6,0.3,0.9,0.4c0.8,0.2,1.7,0.2,2.6,0
			L-12.6,560.1z M-60.7,586.6l-14.7-27.9l53-9.2c0.2,0.5,0.6,1,1,1.3l-36,35.8c-0.2-0.1-0.3-0.1-0.5-0.2
			C-58.8,586.3-59.8,586.3-60.7,586.6z M-75.7,558.2l-29-55.1c0.5-0.1,0.9-0.3,1.3-0.6l81.4,44.6c-0.1,0.2-0.2,0.3-0.3,0.5
			c-0.2,0.5-0.3,0.9-0.2,1.4L-75.7,558.2z M-102.1,499.9l60.4-12l21.6,57.8c-0.6,0.2-1.2,0.5-1.6,0.9l-81.3-44.6
			c0.3-0.3,0.5-0.6,0.6-0.9C-102.1,500.7-102.1,500.3-102.1,499.9z M-48.4,467.7c0.5-0.2,1-0.4,1.5-0.8c0.4-0.3,0.7-0.7,0.9-1.2
			c0.1-0.1,0.1-0.3,0.1-0.4l77.8,6.8c0,0.2,0,0.4,0,0.5l-73.1,14.5L-48.4,467.7z M-48.6,461.7c-0.3-0.1-0.5-0.1-0.8-0.2l4.1-73.8
			c0.6,0,1.2-0.1,1.8-0.4l46.1,49.5l-49.3,25.8C-47.2,462.2-47.9,461.9-48.6,461.7L-48.6,461.7z M-42.2,382.7l43.3-32.6
			c0.4,0.3,0.9,0.5,1.5,0.7c0.6,0.1,1.1,0.2,1.7,0.1l5.9,19.7l-51.8,13C-41.8,383.2-42,382.9-42.2,382.7z M-39.7,317.8l41.7-34.5
			c0.4,0.2,0.8,0.4,1.2,0.5c0.1,0,0.2,0,0.3,0.1l-0.2,60.7c-0.9,0.1-1.8,0.4-2.4,0.9L-39.7,317.8z M-40.2,317.4l-59.6-40.6
			c0.2-0.2,0.4-0.5,0.5-0.8c0.1-0.2,0.1-0.3,0.2-0.5l99.8,5.3c0,0.7,0.4,1.4,1,2L-40.2,317.4z M-99.3,274.3l60.9-17.1l39.4,22.1
			c-0.1,0.2-0.2,0.4-0.3,0.6c-0.1,0.2-0.1,0.3-0.2,0.5l-99.8-5.3C-99.2,274.7-99.2,274.5-99.3,274.3z M-37.5,256.9l54.3-15.3
			c0.2,0.4,0.6,0.7,1,1c0.4,0.3,0.9,0.5,1.4,0.6h0L5.3,277.7c-0.7-0.1-1.4-0.1-2.1,0.1s-1.3,0.5-1.7,0.9L-37.5,256.9z M19.9,237.1
			l-31-89.7c0.9-0.3,1.6-0.8,2-1.5l36.7,13.9c0,0,0,0,0,0.1c-0.2,0.4-0.2,0.8-0.2,1.2c0,0.4,0.2,0.8,0.4,1.2c0.2,0.4,0.6,0.7,1,1
			c0.4,0.3,0.9,0.5,1.4,0.6c0.2,0,0.3,0.1,0.5,0.1l-9.9,73.2C20.5,237.1,20.2,237.1,19.9,237.1z M-9.5,142.5l32.5-21.9
			c0.4,0.4,1,0.6,1.6,0.8c0.3,0.1,0.6,0.1,0.9,0.2l1.7,12.2L-9.1,143C-9.2,142.8-9.3,142.7-9.5,142.5z M-14.7,97.5l22-20.8
			c0.4,0.2,0.9,0.4,1.5,0.5c0.5,0.1,1.1,0.1,1.6,0l14,38.2c-0.7,0.2-1.2,0.6-1.7,1L-14.7,97.5z M-15.3,97.2l-75.5-38.2
			c0.1-0.1,0.2-0.3,0.2-0.4c0-0.1,0.1-0.1,0.1-0.2L5.7,73.7c-0.1,0.5,0,0.9,0.2,1.4c0.2,0.4,0.5,0.8,0.9,1.2L-15.3,97.2z
			 M-123.8,18.9l40.6-60.6l0.3,0.1c0.2,0,0.3,0.1,0.5,0.1l-12,95.8c-0.6,0-1.2,0.1-1.7,0.4L-123.8,18.9z M-124.3,18.3L-178-51.1
			c0.6-0.4,1.1-0.9,1.4-1.5c0-0.1,0.1-0.2,0.1-0.4l90.8,8.4c0,0.5,0.1,1.1,0.5,1.6c0.3,0.5,0.8,0.9,1.3,1.2L-124.3,18.3z
			 M-73.9,11.1l40.7-2.4c0.1,0.6,0.4,1.1,0.8,1.5l-22.5,17L-74.7,13c0.3-0.3,0.4-0.6,0.6-0.9C-74,11.8-73.9,11.4-73.9,11.1z
			 M-18.8,12.5l42.1,16c-0.2,0.5-0.2,1.1-0.1,1.6c0.1,0.5,0.4,1,0.8,1.4L-18.8,12.5z M116.4,28.2l59.5-19.5l-56.8,24.5l-3.3-2.2
			c0.2-0.3,0.4-0.5,0.5-0.8C116.6,29.5,116.6,28.9,116.4,28.2z M198.3,85.8c-0.7,0.1-1.3,0.4-1.8,0.8l-76.9-52.9l59.2-25.5
			c0.5,0.6,1.2,1,2,1.3c0.5,0.1,1,0.2,1.6,0.2L198.3,85.8z M193.7,159l5.8-67c0.8,0,1.6-0.2,2.3-0.6c0.7-0.4,1.2-0.9,1.4-1.5
			c0.3-0.6,0.3-1.3,0-2c-0.2-0.6-0.7-1.2-1.4-1.6l53.1-15.6c0.3,0.5,0.8,0.9,1.3,1.2L193.7,159z M160.6,136l36.9-44.3
			c0.2,0.1,0.4,0.2,0.6,0.2c0.2,0.1,0.4,0.1,0.6,0.1l-5.8,67.6L160.6,136z M123.2,183.1c-0.3-0.4-0.6-0.7-1-1l38-45.7l32.3,23.7
			L123.2,183.1z M148.8,366.5c-0.4,0.1-0.9,0.3-1.2,0.5l-58-48.1l23-76.6L148.8,366.5z M29.9,422.8c-0.3-0.3-0.6-0.6-1-0.8
			l48.2-65.5c0.1,0.1,0.3,0.1,0.4,0.1c1,0.3,2,0.2,3-0.1c0.9-0.4,1.7-1,2-1.7l63.6,14.2c-0.1,0.6,0,1.3,0.3,1.9L29.9,422.8z
			 M53.3,467.8c-0.8,0.4-1.4,1-1.7,1.7c-0.1,0.3-0.2,0.7-0.2,1.1l-11.6,1c-0.1-0.5-0.5-1.1-0.9-1.5c-0.5-0.4-1.1-0.7-1.7-0.9
			c-0.5-0.1-1-0.2-1.5-0.2l-8-41.4c0.2,0,0.3-0.1,0.5-0.1L53.3,467.8z M3.5,581.9c-0.2-0.1-0.4-0.2-0.6-0.2c-0.8-0.2-1.7-0.2-2.6,0
			l-12-21.4L53.9,520c0.1,0.1,0.3,0.2,0.4,0.3L3.5,581.9z M-55.3,588.8c-0.1-0.4-0.4-0.8-0.7-1.2l43.8-27L-0.4,582
			c-0.9,0.4-1.5,1-1.8,1.8c-0.1,0.3-0.2,0.7-0.2,1L-55.3,588.8z M-113.1,566.9c0.1-0.2,0.2-0.3,0.3-0.5c0.2-0.4,0.2-0.8,0.2-1.3
			l36.5-6.3l14.8,28c-0.5,0.3-0.9,0.6-1.2,1L-113.1,566.9z M-52.8,466.9c0.5,0.4,1,0.7,1.7,0.9c0.6,0.2,1.3,0.2,2,0.1l7.3,19.5
			l-60.3,12c-0.1-0.3-0.3-0.6-0.5-0.9L-52.8,466.9z M-67.4,344.8c0.9-0.4,1.5-1,1.8-1.7c0.1-0.1,0.1-0.3,0.1-0.4l65.2,5.1
			c0,0.7,0.3,1.4,0.9,2l-43.3,32.6c-0.5-0.4-1.2-0.7-1.9-0.8c-0.7-0.1-1.4-0.1-2.1,0.1L-67.4,344.8z M-101.3,277.9
			c0.4-0.1,0.7-0.3,1-0.6l59.6,40.5l-26.2,21.7c-0.5-0.3-1.1-0.5-1.7-0.6c-0.6-0.1-1.3-0.1-1.9,0.1L-101.3,277.9z M-51.3,253.1
			c0.5,0.6,1.2,1,2,1.3c0.8,0.2,1.6,0.2,2.4,0.1c0.8-0.2,1.5-0.5,2-1l5.8,3.2l-59.7,16.8L-51.3,253.1z M-13.6,147.5
			c0.6,0.1,1.2,0.1,1.8,0l31,89.7c-0.6,0.1-1.2,0.4-1.6,0.8c-0.5,0.4-0.8,0.8-1,1.3c-0.2,0.4-0.2,0.9-0.2,1.4l-60.5,9.9
			c-0.2-0.5-0.5-0.9-0.9-1.3c-0.4-0.4-1-0.6-1.5-0.8L-13.6,147.5z M-67.7,150c0-0.1-0.1-0.2-0.1-0.2l90.2-29.9
			c0.1,0.1,0.1,0.2,0.2,0.3L-10,142.1c-0.6-0.4-1.3-0.7-2.1-0.8c-0.8-0.1-1.6,0-2.3,0.3c-0.7,0.3-1.3,0.7-1.7,1.2
			c-0.4,0.5-0.6,1.2-0.6,1.8L-67.7,150z M-93.3,60.6c0.9-0.2,1.6-0.6,2.2-1.1l75.4,38.2l-53.5,50.5c-0.8-0.4-1.7-0.6-2.7-0.6
			L-93.3,60.6z M-179.2-50.7c0.2,0,0.4-0.1,0.5-0.2l54,69.8l-23.2,34.6l-0.2-0.1c-0.6-0.2-1.3-0.2-2-0.1L-179.2-50.7z"/>
		<g>
			
				<radialGradient id="SVGID_2_" cx="292.0716" cy="725.5796" r="1" gradientTransform="matrix(6.6004 -2.8243 2.4497 5.7249 -3805.6069 -3204.353)" gradientUnits="userSpaceOnUse">
				<stop  offset="0" style="stop-color:#000000"/>
				<stop  offset="1" style="stop-color:#000000"/>
			</radialGradient>
			<path class="st4" d="M-91.6,144.7c-0.6,1.5-1.9,2.8-3.6,3.5c-1.3,0.6-2.8,0.8-4.3,0.7c-1.5-0.1-2.9-0.6-4-1.3
				c-1.2-0.7-2-1.7-2.5-2.9c-0.4-1.1-0.5-2.3,0-3.5c0.4-1.1,1.3-2.1,2.4-2.9c1.1-0.8,2.5-1.2,4-1.3c1.5-0.1,3,0.1,4.3,0.7
				c1.3,0.6,2.4,1.4,3.1,2.4C-91.2,141.5-91,143.2-91.6,144.7z"/>
		</g>
		<g>
			
				<radialGradient id="SVGID_3_" cx="292.0716" cy="725.5796" r="1" gradientTransform="matrix(6.6004 -2.8243 2.4497 5.7249 -3753.5769 -3111.6331)" gradientUnits="userSpaceOnUse">
				<stop  offset="0" style="stop-color:#000000"/>
				<stop  offset="1" style="stop-color:#000000"/>
			</radialGradient>
			<path class="st5" d="M-39.2,237.1c-0.6,1.5-1.9,2.8-3.6,3.5c-1.3,0.6-2.8,0.8-4.3,0.7c-1.5-0.1-2.9-0.6-4-1.3
				c-1.2-0.7-2-1.7-2.5-2.9c-0.4-1.1-0.5-2.3,0-3.5c0.4-1.1,1.3-2.1,2.4-2.9c1.1-0.8,2.5-1.2,4-1.3c1.5-0.1,3,0.1,4.3,0.7
				c1.3,0.6,2.4,1.4,3.1,2.4C-38.8,234-38.6,235.6-39.2,237.1z"/>
		</g>
		<g>
			
				<radialGradient id="SVGID_4_" cx="292.1823" cy="725.3757" r="1" gradientTransform="matrix(6.5922 -2.8451 2.4707 5.7247 -3812.3452 -2928.7285)" gradientUnits="userSpaceOnUse">
				<stop  offset="0" style="stop-color:#000000"/>
				<stop  offset="1" style="stop-color:#000000"/>
			</radialGradient>
			<path class="st6" d="M-76.2,397.7c2.3-2.7,1.4-6.4-2.1-8.3s-8.1-1.1-10.4,1.6c-2.3,2.7-1.4,6.4,2.1,8.3S-78.5,400.5-76.2,397.7z"
				/>
		</g>
		<g>
			
				<radialGradient id="SVGID_5_" cx="292.0716" cy="725.5796" r="1" gradientTransform="matrix(6.6004 -2.8243 2.4497 5.7249 -3609.7539 -3274.2581)" gradientUnits="userSpaceOnUse">
				<stop  offset="0" style="stop-color:#000000"/>
				<stop  offset="1" style="stop-color:#000000"/>
			</radialGradient>
			<path class="st7" d="M103.7,74.3c-0.6,1.5-1.9,2.8-3.6,3.5c-1.3,0.6-2.8,0.8-4.3,0.7c-1.5-0.1-2.9-0.6-4-1.3
				c-1.2-0.7-2-1.7-2.5-2.9c-0.4-1.1-0.5-2.3,0-3.5c0.4-1.1,1.3-2.1,2.4-2.9c1.1-0.8,2.5-1.2,4-1.3c1.5-0.1,3,0.1,4.3,0.7
				c1.3,0.6,2.4,1.4,3.1,2.4C104.1,71.2,104.3,72.8,103.7,74.3z"/>
		</g>
		<g>
			
				<radialGradient id="SVGID_6_" cx="292.1823" cy="725.3757" r="1" gradientTransform="matrix(6.5922 -2.8451 2.4707 5.7247 -3661.8438 -3082.2051)" gradientUnits="userSpaceOnUse">
				<stop  offset="0" style="stop-color:#000000"/>
				<stop  offset="1" style="stop-color:#000000"/>
			</radialGradient>
			<path class="st8" d="M75.1,242.3c0.7-3.2-2.1-6.3-6.2-6.9c-4.1-0.5-7.9,1.7-8.6,4.9c-0.7,3.2,2.1,6.3,6.2,6.9
				C70.6,247.8,74.4,245.6,75.1,242.3z"/>
		</g>
		<g>
			
				<radialGradient id="SVGID_7_" cx="292.0716" cy="725.5795" r="1" gradientTransform="matrix(6.6004 -2.8243 2.4497 5.7249 -3667.3218 -2965.9302)" gradientUnits="userSpaceOnUse">
				<stop  offset="0" style="stop-color:#000000"/>
				<stop  offset="1" style="stop-color:#000000"/>
			</radialGradient>
			<path class="st9" d="M47.6,382.4c-0.6,1.5-1.9,2.8-3.6,3.5c-1.3,0.6-2.8,0.8-4.3,0.7c-1.5-0.1-2.9-0.6-4-1.3
				c-1.2-0.7-2-1.7-2.5-2.9c-0.4-1.1-0.5-2.3,0-3.5c0.4-1.1,1.3-2.1,2.4-2.9c1.1-0.8,2.5-1.2,4-1.3c1.5-0.1,3,0.1,4.3,0.7
				c1.3,0.6,2.4,1.4,3.1,2.4C48,379.2,48.2,380.9,47.6,382.4z"/>
		</g>
		<g>
			
				<radialGradient id="SVGID_8_" cx="292.0716" cy="725.5796" r="1" gradientTransform="matrix(6.6004 -2.8243 2.4497 5.7249 -3874.4009 -3288.2271)" gradientUnits="userSpaceOnUse">
				<stop  offset="0" style="stop-color:#000000"/>
				<stop  offset="1" style="stop-color:#000000"/>
			</radialGradient>
			<path class="st10" d="M-160.7,61.1c-0.6,1.5-1.9,2.8-3.6,3.5c-1.3,0.6-2.8,0.8-4.3,0.7c-1.5-0.1-2.9-0.6-4-1.3
				c-1.2-0.7-2-1.7-2.5-2.9c-0.4-1.1-0.5-2.3,0-3.5c0.4-1.1,1.3-2.1,2.4-2.9c1.1-0.8,2.5-1.2,4-1.3c1.5-0.1,3,0.1,4.3,0.7
				c1.3,0.6,2.4,1.4,3.1,2.4C-160.3,58-160.1,59.6-160.7,61.1z"/>
		</g>
		<g>
			
				<radialGradient id="SVGID_9_" cx="292.0716" cy="725.5796" r="1" gradientTransform="matrix(6.6004 -2.8243 2.4497 5.7249 -3660.429 -3155.405)" gradientUnits="userSpaceOnUse">
				<stop  offset="0" style="stop-color:#000000"/>
				<stop  offset="1" style="stop-color:#000000"/>
			</radialGradient>
			<path class="st11" d="M53.6,193.2c-0.6,1.5-1.9,2.8-3.6,3.5c-1.3,0.6-2.8,0.8-4.3,0.7c-1.5-0.1-2.9-0.6-4-1.3
				c-1.2-0.7-2-1.7-2.4-2.9c-0.4-1.1-0.5-2.3,0-3.5c0.4-1.1,1.3-2.1,2.4-2.9c1.1-0.8,2.5-1.2,4-1.3c1.5-0.1,3,0.1,4.3,0.7
				c1.3,0.6,2.4,1.4,3.1,2.4C54,190,54.2,191.6,53.6,193.2z"/>
		</g>
	</g>
</mask>
<g class="st12">
	<rect y="0" class="st13" width="382" height="741"/>
</g>
</svg>
