<?xml version="1.0" encoding="utf-8"?>
<!-- Generator: Adobe Illustrator 24.2.3, SVG Export Plug-In . SVG Version: 6.00 Build 0)  -->
<svg version="1.1" id="Layer_1" xmlns="http://www.w3.org/2000/svg" xmlns:xlink="http://www.w3.org/1999/xlink" x="0px" y="0px"
	 viewBox="0 0 1321 686" style="enable-background:new 0 0 1321 686;" xml:space="preserve">
<style type="text/css">
	.st0{fill:url(#SVGID_1_);}
	.st1{opacity:0.6;filter:url(#Adobe_OpacityMaskFilter);}
	.st2{opacity:0.2;}
	.st3{fill:#FFFFFF;}
	.st4{fill:url(#SVGID_2_);}
	.st5{fill:url(#SVGID_3_);}
	.st6{fill:url(#SVGID_4_);}
	.st7{fill:url(#SVGID_5_);}
	.st8{fill:url(#SVGID_6_);}
	.st9{fill:url(#SVGID_7_);}
	.st10{fill:url(#SVGID_8_);}
	.st11{fill:url(#SVGID_9_);}
	.st12{mask:url(#mask0_1107_52_2_);}
	.st13{fill:#D9D9D9;}
</style>
<linearGradient id="SVGID_1_" gradientUnits="userSpaceOnUse" x1="1337.4711" y1="342.3312" x2="-4.197188e-02" y2="343.4294" gradientTransform="matrix(-1 0 0 -1 1321 685.8898)">
	<stop  offset="0" style="stop-color:#9A0405"/>
	<stop  offset="0.9323" style="stop-color:#E02F2D"/>
</linearGradient>
<path class="st0" d="M0,686h1321V0L0,0L0,686z"/>
<defs>
	<filter id="Adobe_OpacityMaskFilter" filterUnits="userSpaceOnUse" x="939" y="0" width="382" height="741">
		<feColorMatrix  type="matrix" values="1 0 0 0 0  0 1 0 0 0  0 0 1 0 0  0 0 0 1 0"/>
	</filter>
</defs>
<mask maskUnits="userSpaceOnUse" x="939" y="0" width="382" height="741" id="mask0_1107_52_2_">
	<g class="st1">
		<g class="st2">
			<path class="st3" d="M1528.7,70.4c-0.9-0.3-1.9-0.3-2.9-0.1c-1,0.2-1.8,0.5-2.6,1.1c-0.7,0.5-1.2,1.2-1.5,2
				c-0.3,0.8-0.3,1.6,0,2.3l-72.9,21.5c-0.1,0-0.3-0.1-0.4-0.1c-0.7-0.2-1.4-0.3-2.1-0.2L1424.7-6.9c0.9-0.2,1.7-0.5,2.3-1
				c0.7-0.5,1.2-1.1,1.4-1.8c0.2-0.5,0.3-1.1,0.3-1.7s-0.2-1.1-0.5-1.6c-0.3-0.5-0.8-1-1.3-1.3c-0.5-0.4-1.2-0.7-1.8-0.8
				c-0.7-0.2-1.4-0.3-2.1-0.2c-0.7,0-1.4,0.2-2,0.4c-0.6,0.3-1.2,0.6-1.7,1c-0.5,0.4-0.8,0.9-1.1,1.5c-0.4,0.9-0.4,1.8,0,2.7
				l-84.6,27.7c-0.6-1-1.7-1.7-3.1-2.1c-0.9-0.2-1.8-0.3-2.7-0.2c-0.9,0.1-1.8,0.4-2.5,0.9l-45.8-36.9c0.4-0.4,0.8-0.9,1-1.4
				c0.2-0.5,0.3-1.1,0.3-1.7c0-0.6-0.2-1.1-0.6-1.6c-0.3-0.5-0.8-1-1.3-1.3c-0.5-0.4-1.2-0.7-1.8-0.8c-0.7-0.2-1.4-0.3-2.1-0.2
				c-0.7,0-1.4,0.2-2,0.4c-0.6,0.3-1.2,0.6-1.7,1c-0.5,0.4-0.8,0.9-1.1,1.5c-0.3,0.7-0.4,1.3-0.2,2c0.1,0.7,0.5,1.3,1,1.9
				l-54.6,37.7c-0.6-0.4-1.3-0.8-2-1c-1.2-0.3-2.5-0.3-3.7,0.1c-1.2,0.4-2.2,1.1-2.8,2L1141-7.1c0.4-1.1,0.3-2.3-0.3-3.3
				c-0.6-1-1.8-1.8-3.1-2.2c-0.7-0.2-1.4-0.3-2.1-0.2c-0.7,0-1.4,0.2-2,0.4c-0.6,0.3-1.2,0.6-1.7,1c-0.5,0.4-0.8,0.9-1.1,1.5
				c-0.2,0.4-0.3,0.8-0.3,1.2l-55.3,3.3c-0.2-0.8-0.6-1.5-1.2-2.1c-0.6-0.6-1.5-1-2.4-1.3c-0.5-0.1-1-0.2-1.5-0.2l-4.5-67
				c1-0.1,1.9-0.4,2.7-1c0.8-0.5,1.3-1.2,1.7-1.9c0.2-0.5,0.3-1.1,0.3-1.7c0-0.6-0.2-1.1-0.5-1.6c-0.3-0.5-0.8-1-1.3-1.3
				c-0.5-0.4-1.2-0.7-1.8-0.8c-1.4-0.4-2.9-0.3-4.1,0.2s-2.3,1.4-2.7,2.5c-0.1,0.2-0.1,0.3-0.2,0.5L935.9-92.6c0-0.9-0.3-1.8-1-2.6
				c-0.7-0.8-1.6-1.3-2.7-1.6c-0.7-0.2-1.4-0.3-2.1-0.2c-0.7,0-1.4,0.2-2.1,0.4s-1.2,0.6-1.7,1c-0.5,0.4-0.8,0.9-1.1,1.5
				c-0.5,1.1-0.4,2.3,0.3,3.3c0.6,1,1.8,1.8,3.1,2.2c0.8,0.2,1.6,0.3,2.4,0.2L970.8,53c-0.7,0.2-1.4,0.6-2,1c-0.6,0.5-1,1-1.2,1.6
				c-0.2,0.5-0.3,1.1-0.3,1.7c0,0.6,0.2,1.1,0.5,1.6c0.3,0.5,0.8,1,1.3,1.3c0.5,0.4,1.2,0.7,1.8,0.8c1.4,0.4,2.9,0.3,4.2-0.2
				c1.3-0.5,2.3-1.4,2.7-2.5c0.1-0.2,0.2-0.4,0.2-0.7l64,0.9c0.1,0.9,0.4,1.7,1.1,2.4c0.7,0.7,1.6,1.2,2.6,1.5
				c0.7,0.2,1.4,0.3,2.1,0.2l29,118.2c-0.8,0.2-1.6,0.5-2.2,1c-0.6,0.5-1.1,1.1-1.4,1.7c-0.5,1.1-0.4,2.3,0.3,3.3
				c0.6,1,1.8,1.8,3.1,2.2c1.4,0.4,2.9,0.3,4.2-0.2c1.3-0.5,2.3-1.4,2.7-2.5c0.2-0.5,0.3-1,0.3-1.6l69.3-7.4
				c0.2,0.7,0.6,1.4,1.3,1.9c0.6,0.5,1.4,1,2.3,1.2l-0.5-0.1l-44.8,137.1c-1.3-0.2-2.6,0-3.7,0.6c-1.1,0.5-1.9,1.3-2.3,2.3
				c-0.4,1-0.4,2.1,0.1,3.1l-65.5,28.1c-0.7-0.8-1.6-1.4-2.8-1.7c-1.4-0.4-2.9-0.3-4.2,0.2c-1.3,0.5-2.3,1.4-2.7,2.5
				c-0.2,0.5-0.3,1.1-0.3,1.7c0,0.6,0.2,1.1,0.5,1.6c0.3,0.5,0.8,1,1.3,1.3c0.5,0.4,1.2,0.7,1.8,0.8c1.1,0.3,2.2,0.3,3.3,0l41.8,83
				c-1.3,0.5-2.2,1.4-2.7,2.5c-0.2,0.5-0.3,1.1-0.3,1.7s0.2,1.1,0.6,1.6c0.3,0.5,0.8,1,1.3,1.3c0.5,0.4,1.2,0.7,1.8,0.8
				c1.1,0.3,2.4,0.3,3.5,0l28.2,50c-1.2,0.5-2.1,1.4-2.5,2.4c-0.5,1.1-0.4,2.3,0.3,3.3c0.6,1,1.8,1.8,3.1,2.2
				c0.3,0.1,0.6,0.1,0.9,0.2l-5.5,100.3c-1.1,0.1-2.1,0.4-2.9,0.9c-0.9,0.5-1.5,1.2-1.8,2c-0.3,0.6-0.3,1.3-0.3,1.9
				c0.1,0.6,0.4,1.3,0.8,1.8l-67.8,42.8c-0.6-0.5-1.4-0.9-2.3-1.2c-1.4-0.4-2.9-0.3-4.2,0.2c-1.3,0.5-2.3,1.4-2.7,2.5
				c-0.2,0.5-0.3,1.1-0.3,1.7c0,0.6,0.2,1.1,0.6,1.6c0.3,0.5,0.8,1,1.3,1.3c0.5,0.4,1.2,0.7,1.8,0.8h0.1l-12.9,80.4
				c-1.1,0-2.1,0.4-3,0.9c-0.9,0.5-1.5,1.2-1.9,2.1c-0.5,1.1-0.4,2.3,0.3,3.3c0.6,1,1.8,1.8,3.1,2.2c1,0.3,2.2,0.3,3.2,0.1
				s2-0.7,2.7-1.4l68.8,28.5c0,0.1-0.1,0.1-0.1,0.2c-0.2,0.5-0.3,1.1-0.3,1.7c0,0.6,0.2,1.1,0.6,1.6c0.3,0.5,0.8,1,1.3,1.3
				s1.2,0.7,1.8,0.8c1.4,0.4,2.9,0.3,4.2-0.2c1.3-0.5,2.3-1.4,2.7-2.5c0.2-0.5,0.3-1.1,0.3-1.6l71.8-5.5c0.2,0.8,0.6,1.5,1.2,2
				c0.6,0.6,1.4,1,2.4,1.3c1.4,0.4,2.9,0.3,4.2-0.2c1.3-0.5,2.3-1.4,2.7-2.5c0.4-0.8,0.4-1.8,0.1-2.6c-0.3-0.9-1-1.6-1.8-2.2
				l69.1-83.8c0.3,0.1,0.5,0.2,0.8,0.3c1.4,0.4,2.9,0.3,4.2-0.2c1.3-0.5,2.3-1.4,2.7-2.5s0.4-2.3-0.3-3.3c-0.6-1-1.8-1.8-3.1-2.2
				c-0.4-0.1-0.9-0.2-1.4-0.2l-1.6-55.7c0.8-0.1,1.5-0.3,2.2-0.6c0.7-0.3,1.2-0.7,1.7-1.2c0.4-0.5,0.7-1.1,0.9-1.7
				c0.1-0.6,0.1-1.2-0.1-1.8c-0.2-0.6-0.5-1.2-1-1.6c-0.5-0.5-1.1-0.9-1.8-1.2c-0.7-0.3-1.4-0.4-2.2-0.5c-0.8,0-1.5,0.1-2.3,0.3
				l-34.2-54.7c1.1-0.5,1.9-1.4,2.3-2.4s0.3-2.1-0.2-3l158.4-70.6c0.5,0.6,1.3,1.1,2.2,1.5c0.9,0.3,1.8,0.5,2.8,0.4
				c1-0.1,1.9-0.3,2.7-0.8c0.8-0.5,1.4-1.1,1.8-1.8c0.4-0.7,0.5-1.5,0.4-2.2c-0.1-0.8-0.5-1.5-1.1-2.1c-0.6-0.6-1.4-1.1-2.3-1.4
				c-0.9-0.3-1.9-0.4-2.8-0.3l-49.7-170.2c1.4,0.2,2.8,0.1,4-0.5s2.1-1.5,2.4-2.5c0.4-1.1,0.2-2.2-0.4-3.2c-0.6-1-1.7-1.7-3-2.1
				c-0.3-0.1-0.5-0.1-0.8-0.2l6.9-64c1.1,0,2.2-0.3,3.1-0.8c0.9-0.5,1.6-1.3,2-2.1c0.4-0.9,0.4-1.8,0-2.7l94.2-31.2l-0.1,1.1l1-1.4
				l0.6-0.2l-0.3-0.2l85.8-119.6c0.2,0.1,0.3,0.1,0.5,0.2c0.7,0.2,1.4,0.3,2.1,0.2c0.7,0,1.4-0.2,2-0.4c0.6-0.3,1.2-0.6,1.7-1
				c0.5-0.4,0.8-0.9,1.1-1.5s0.3-1.1,0.3-1.7c0-0.6-0.2-1.1-0.5-1.6c-0.3-0.5-0.8-1-1.3-1.3C1530,70.9,1529.4,70.6,1528.7,70.4z
				 M1374.6,481l-86.5-19.3c0.2-1,0-2.1-0.7-3c-0.7-0.9-1.7-1.6-2.9-1.9l12.6-42.1l78.4,65C1375.2,480.1,1374.8,480.5,1374.6,481z
				 M1018.9,744.8c-0.3-0.1-0.7-0.2-1-0.2l5.8-36.1l7.1-44.1c0.5,0.1,1,0.1,1.6,0l39.5,74.9l-49.3,8.5c-0.2-0.7-0.7-1.3-1.3-1.9
				C1020.5,745.4,1019.8,745,1018.9,744.8z M1086.7,445.2c0-1-0.5-2.1-1.3-2.8l35.6-29.5l55.2,37.5c-0.3,0.3-0.5,0.7-0.7,1.1
				c-0.1,0.2-0.1,0.4-0.2,0.6L1086.7,445.2z M1115.7,323.4c0.3-0.6,0.3-1.2,0.3-1.9l80.4-13.1l-72.7,20.5l-8.4-4.7
				C1115.4,323.9,1115.5,323.7,1115.7,323.4z M1082.2,182.1l72.8-68.7l51,25.9c-0.1,0.2-0.2,0.4-0.3,0.6c-0.4,0.9-0.4,1.8,0,2.7
				l-122.5,40.6C1082.9,182.8,1082.6,182.4,1082.2,182.1L1082.2,182.1z M975.6,53.4l31.2-46.6l37.3,48.2c-0.8,0.5-1.5,1.2-1.8,2
				c-0.1,0.3-0.2,0.5-0.2,0.8L978.1,57c0-0.7-0.3-1.4-0.7-2C977,54.3,976.4,53.8,975.6,53.4z M1007.4,6l55.1-82.3
				c0.1,0,0.2,0.1,0.4,0.1c0.2,0.1,0.5,0.1,0.7,0.1l-16.3,130.2c-0.8,0-1.6,0.2-2.3,0.5L1007.4,6z M935.6-91.3
				c0.1-0.2,0.1-0.3,0.2-0.5l123.5,11.4c0,0.7,0.2,1.5,0.6,2.1c0.4,0.6,1.1,1.2,1.8,1.6l-54.9,81.9l-73.1-94.4
				C934.6-89.7,935.2-90.5,935.6-91.3z M1339.5,227.1c-1-0.2-2.1-0.1-3.1,0.1l-33.2-56.5l66.6-22.5c0.6,0.8,1.5,1.5,2.6,1.9
				L1339.5,227.1z M1247.7,682.7c-0.4,1-0.4,2,0.1,3l-92.8,38c-0.3-0.3-0.6-0.6-0.9-0.9l78.2-82.5l18.3,39.9c-0.7,0.2-1.3,0.6-1.7,1
				C1248.3,681.7,1247.9,682.2,1247.7,682.7z M1221.3,625.7l-68.7,96.4c-0.2-0.1-0.3-0.1-0.5-0.2c-0.9-0.2-1.9-0.3-2.8-0.1
				l-29.3-78.5l99.3-19.7C1219.7,624.4,1220.4,625.1,1221.3,625.7z M1154.6,720.9l67.6-94.8c0.2,0.1,0.3,0.1,0.5,0.2
				c1,0.3,2.1,0.3,3.1,0.1l6,13.1L1154.6,720.9z M1219.3,620.7c-0.1,0.2-0.1,0.3-0.2,0.5l-105.8-9.2c0-0.8-0.2-1.5-0.7-2.1l67-35.1
				l41.1,44.2C1220.1,619.4,1219.6,620,1219.3,620.7z M1117.3,506.4c0.2-0.1,0.4-0.3,0.5-0.4l89.3,49.3c-0.2,0.2-0.3,0.5-0.4,0.7
				c-0.2,0.6-0.3,1.2-0.3,1.7c0.1,0.6,0.3,1.2,0.6,1.7l-27.2,14.2L1117.3,506.4z M1207.7,554.6l-89.3-49.2c0.3-0.3,0.5-0.6,0.6-1
				c0.3-0.7,0.4-1.4,0.2-2.1l70.4-17.6l20.5,68.6C1209.2,553.5,1208.4,554,1207.7,554.6z M1182.4,457c0.8-0.2,1.5-0.6,2.1-1
				c0.6-0.5,1-1,1.3-1.7c0.1-0.2,0.1-0.4,0.2-0.6l91.4,7.2c0,0.3,0,0.6,0.1,0.9l-87.1,21.8L1182.4,457z M1163.7,175.4l49.2-12.5
				l4.5,31.7c-0.7,0.1-1.4,0.4-2.1,0.7c-0.6,0.3-1.1,0.8-1.5,1.3l-50-18.9C1164,177,1164,176.2,1163.7,175.4z M1217.7,21.7
				c0.1-0.3,0.2-0.6,0.3-0.9l56.6-0.2l-0.1,28.1c-0.7,0.1-1.4,0.2-2.1,0.5s-1.2,0.7-1.7,1.1l-53.4-27.8
				C1217.4,22.2,1217.5,21.9,1217.7,21.7z M1275.7-18.8c1.1-0.1,2.1-0.4,3-1l45.8,36.9c-0.4,0.4-0.8,0.9-1,1.4
				c-0.1,0.3-0.2,0.7-0.3,1l-47.7,0.2L1275.7-18.8z M1323.3,20.3c0.1,0.7,0.4,1.3,0.8,1.9L1278.9,50c-0.6-0.5-1.4-0.9-2.2-1.2
				c-0.4-0.1-0.8-0.2-1.2-0.2l0.1-28.1L1323.3,20.3z M1333.3,229.5l-109.6-29.6c0.2-0.8,0.2-1.6-0.1-2.3l78.7-26.6l33.3,56.6
				C1334.5,228,1333.8,228.7,1333.3,229.5z M1182.4,448.8c-0.4-0.1-0.8-0.2-1.2-0.2l0.3-82.3c0.5,0,1,0,1.5-0.1l41.5,39.7
				l-40.9,43.4C1183.2,449,1182.8,448.9,1182.4,448.8z M1277.6,459.5c-0.1,0.2-0.1,0.4-0.2,0.6l-19-1.5l-72.3-5.7
				c0-0.6-0.2-1.2-0.5-1.8c-0.3-0.6-0.8-1.1-1.3-1.5l40.8-43.2l53.8,51.4C1278.4,458.4,1277.9,458.9,1277.6,459.5z M1225.1,405.2
				l-41.1-39.3c0.6-0.2,1.2-0.5,1.7-0.9l52,9.8l9.3,1.7c-0.1,0.7,0,1.4,0.3,2c0.3,0.7,0.8,1.2,1.4,1.7L1225.1,405.2z M1247.2,375.7
				l-60.8-11.4c0.2-0.3,0.4-0.6,0.6-1c0.2-0.6,0.3-1.1,0.3-1.7l42.1-16.9l19.9,28.7C1248.3,374,1247.6,374.8,1247.2,375.7z
				 M1206.7,310.3c0.9-0.5,1.5-1.2,1.9-2.1c0.1-0.3,0.2-0.7,0.3-1h0.1l116.2-2.9c0.1,0.4,0.2,0.7,0.3,1l-95.6,38.3L1206.7,310.3z
				 M1216.3,141.2c0-0.7-0.2-1.4-0.6-2c-0.4-0.6-1-1.1-1.7-1.5l19.9-27.4l48.7,31.1c-0.3,0.3-0.5,0.6-0.6,1c0,0.1-0.1,0.2-0.1,0.3
				L1216.3,141.2z M1222.6,196.1l61.1-49c0.5,0.3,1.1,0.6,1.7,0.8c1.1,0.3,2.2,0.3,3.3,0.1l13.2,22.4l-78.7,26.6
				C1223,196.6,1222.8,196.3,1222.6,196.1z M1369.4,144.7c-0.1,0.3-0.2,0.6-0.2,0.8l-28.4-0.8l-48.3-1.3c0-0.2-0.1-0.5-0.1-0.7
				l60.6-16.2l17.7,16.6C1370.1,143.6,1369.7,144.1,1369.4,144.7L1369.4,144.7z M1292.1,142c-0.4-0.8-1.1-1.4-2-1.9
				c-0.9-0.5-1.9-0.7-3-0.7l-11.1-82.2c0.7-0.1,1.4-0.4,2.1-0.7l74.3,69.4L1292.1,142z M1273.1,57.1c0.6,0.2,1.2,0.2,1.8,0.2
				l11.1,82.2c-1.1,0.2-2.1,0.6-2.8,1.2l-48.8-31.1l38.2-52.7C1272.8,57,1272.9,57,1273.1,57.1z M1282.8,146.3l-60.9,49.2
				c-1-0.7-2.3-1-3.5-1l-4.5-31.8l68.3-17.3C1282.3,145.7,1282.5,146,1282.8,146.3L1282.8,146.3z M1205.1,302.8l-0.2-0.1l8.2-60.4
				l5.3-39.1c1.1,0,2.3-0.3,3.2-0.8l62.7,58.8l-76.5,43.1C1207,303.6,1206.1,303.1,1205.1,302.8L1205.1,302.8z M1289.6,147.6
				c1.3-0.5,2.2-1.4,2.7-2.5c0.1-0.3,0.2-0.6,0.2-0.8l76.6,2.1c0,0.4,0.1,0.7,0.3,1.1l-66.6,22.5L1289.6,147.6z M1378.5,143.2
				c-0.9-0.8-2.1-1.2-3.4-1.3c-1.3-0.1-2.6,0.2-3.7,0.8l-17.5-16.3l87.7-23.4c0.1,0.2,0.2,0.4,0.4,0.6l-39.1,24.4L1378.5,143.2z
				 M1441.3,100.1c-0.2,0.7-0.2,1.4,0,2l-88,23.5L1278.8,56c0.4-0.3,0.8-0.8,1-1.2L1441.3,100.1z M1271.7,56.5l-38.1,52.6
				l-40.3-25.7c0.3-0.3,0.5-0.6,0.6-1c0.4-0.9,0.4-1.8,0.1-2.7l76.1-24.8C1270.5,55.6,1271,56.1,1271.7,56.5z M1192.7,84l40.4,25.8
				l-19.9,27.5c-0.2-0.1-0.3-0.1-0.5-0.2c-0.9-0.2-1.9-0.3-2.8-0.2l-19.1-52C1191.5,84.8,1192.2,84.5,1192.7,84z M1216,142.6
				c0.1-0.2,0.2-0.4,0.2-0.6l65.5,1.4c0,0.4,0,0.8,0.1,1.2l-68.1,17.3l-2.3-16.3c1-0.1,2-0.4,2.9-0.9
				C1215.1,144.1,1215.7,143.4,1216,142.6z M1205.8,310.7l23.1,33.3l-41.8,16.7c-0.2-0.6-0.6-1.2-1.2-1.7c-0.6-0.5-1.3-0.9-2.1-1.1
				l18.8-46.8C1203.7,311.3,1204.8,311.1,1205.8,310.7z M1279.7,457.4l-54-51.6l23.7-25.1c0.4,0.2,0.8,0.3,1.2,0.5
				c0.9,0.2,1.8,0.3,2.7,0.2l27.5,75.6C1280.4,457,1280.1,457.2,1279.7,457.4z M1254.1,373c-1.3-0.4-2.7-0.3-4,0.2l-19.9-28.7
				l95.5-38.3c0.2,0.3,0.5,0.5,0.7,0.7l-71.1,66.6C1255,373.3,1254.6,373.1,1254.1,373L1254.1,373z M1325.3,302.5
				c-0.2,0.4-0.2,0.7-0.3,1.1l-116.2,2.9c-0.1-0.5-0.2-1-0.5-1.5l76.7-43.2l41.6,39C1325.9,301.3,1325.5,301.9,1325.3,302.5z
				 M1222.3,201.9c0.4-0.4,0.8-0.8,1.1-1.3l109.6,29.6c-0.3,1.1-0.1,2.2,0.6,3.2l-48.5,27.3L1222.3,201.9z M1441.7,99.2l-0.3,0.1
				L1280.1,54c0.3-0.9,0.2-1.9-0.3-2.8l57.5-24.8l104.8,72.1C1442,98.8,1441.8,99,1441.7,99.2L1441.7,99.2z M1280.1,50.2l44.6-27.4
				c0.6,0.5,1.4,0.9,2.2,1.1c0.9,0.3,2,0.3,2.9,0.1c1-0.2,1.9-0.6,2.6-1.1l4.1,2.8L1280.1,50.2z M1273.5-19c0.4,0.1,0.8,0.2,1.2,0.2
				l-0.2,38.5l-56.6,0.2c-0.1-0.8-0.4-1.6-1-2.2l54.6-37.7C1272.1-19.5,1272.8-19.2,1273.5-19z M1216.6,23.1l46.2,24.1l-51-22.6
				c0.9,0.1,1.8,0,2.6-0.2C1215.3,24.1,1216,23.7,1216.6,23.1z M1269.9,51.2c-0.1,0.1-0.1,0.2-0.2,0.4c-0.4,0.9-0.4,1.8,0,2.7
				L1193.6,79c-0.7-1-1.8-1.7-3.1-2.1c-1.2-0.3-2.4-0.3-3.6,0l-48.2-81.7c0.7-0.3,1.3-0.8,1.7-1.3L1269.9,51.2z M1132.2-5.2
				c0.5,0.4,1.2,0.7,1.9,0.9c1.2,0.3,2.6,0.3,3.8-0.1l48.2,81.7c-0.3,0.2-0.6,0.3-0.9,0.5l-83.4-60L1132.2-5.2z M1184.4,78.4
				c-0.3,0.4-0.6,0.8-0.8,1.2c0,0.1,0,0.1-0.1,0.2l-130.7-20.9c0.1-0.6,0-1.1-0.2-1.7c-0.2-0.5-0.6-1.1-1-1.5l49.4-37.3L1184.4,78.4
				z M1050.9,55.1c-0.5-0.3-1.1-0.6-1.7-0.7l19.5-54.8c0.8,0.1,1.7,0.1,2.5-0.1c0.8-0.2,1.6-0.5,2.2-1l26.8,19.3L1050.9,55.1z
				 M1067.8-0.7l-19.5,54.5l16.2-129L1069-9c-1,0.1-1.9,0.4-2.7,1c-0.8,0.5-1.3,1.2-1.7,1.9c-0.5,1.1-0.4,2.2,0.2,3.2
				C1065.4-1.9,1066.5-1.1,1067.8-0.7z M1052.6,59.8c0-0.1,0-0.1,0.1-0.2l130.7,20.9c-0.1,0.6,0,1.3,0.3,1.9
				c0.3,0.6,0.7,1.2,1.3,1.6l-30.1,28.4l-102.6-52C1052.4,60.2,1052.5,60,1052.6,59.8z M1185.7,84.6c0.4,0.2,0.9,0.4,1.4,0.5
				c0.9,0.2,1.9,0.3,2.8,0.1l19.1,52c-0.9,0.3-1.7,0.8-2.3,1.4l-50.9-25.8L1185.7,84.6z M1207,144.3c0.6,0.5,1.3,0.9,2.2,1.1
				c0.4,0.1,0.8,0.2,1.3,0.2l2.3,16.6l-49.4,12.5c-0.1-0.2-0.3-0.5-0.5-0.7L1207,144.3z M1163.4,178.5l49.9,18.9l0,0.1
				c-0.5,1.1-0.4,2.3,0.3,3.3c0.6,1,1.8,1.8,3.1,2.2c0.2,0.1,0.4,0.1,0.7,0.1l-13.5,99.5c-0.4,0-0.7,0-1.1,0l-42.2-122
				C1161.8,180.2,1162.8,179.4,1163.4,178.5L1163.4,178.5z M1198.4,308.7c0.3,0.5,0.7,1,1.3,1.4c0.5,0.4,1.2,0.7,1.9,0.9h0.1
				l-18.8,46.7c-0.9-0.1-1.9-0.1-2.8,0.2c-0.9,0.3-1.7,0.7-2.3,1.3l-53-29.7L1198.4,308.7z M1177.1,359.8c-0.2,0.2-0.3,0.5-0.4,0.8
				c-0.1,0.2-0.2,0.5-0.2,0.7l-135.6-7.2c0-0.3-0.1-0.6-0.2-1l82.8-23.3L1177.1,359.8z M1040.6,355.5c0.1-0.2,0.2-0.5,0.2-0.7
				l135.6,7.2c0,1,0.5,2,1.3,2.7l-56.8,47l-81.1-55.1C1040.2,356.3,1040.4,355.9,1040.6,355.5z M1178.5,365.3c0.5,0.3,1,0.6,1.6,0.7
				l0.4,0.1l-0.3,82.4c-1.2,0.1-2.4,0.5-3.3,1.2l-55.2-37.5L1178.5,365.3z M1177.1,456.2c0.5,0.4,1.2,0.7,1.8,0.8
				c0.8,0.2,1.7,0.3,2.5,0.2l8,26.7l-70.4,17.6c-0.2-0.4-0.4-0.8-0.7-1.1L1177.1,456.2z M1116.4,506.8l62.6,67.3l-67,35.1
				c-0.6-0.6-1.5-1.1-2.4-1.3c-0.4-0.1-0.7-0.2-1.1-0.2l5.5-100.3C1114.9,507.3,1115.7,507.1,1116.4,506.8z M1113,613.3
				c0.1-0.2,0.1-0.4,0.2-0.5L1219,622c0,0.2,0,0.5,0.1,0.7l-99.3,19.7l-9.9-26.5c0.7-0.2,1.4-0.6,2-1
				C1112.4,614.5,1112.8,614,1113,613.3z M1148.4,722c-0.8,0.3-1.6,0.7-2.2,1.2l-110.5-60.6c0.4-0.4,0.7-0.8,0.9-1.3
				c0.2-0.5,0.3-1.1,0.3-1.7l82.1-16.3L1148.4,722z M1033.3,664.1c0.6-0.2,1.2-0.4,1.7-0.8l110.6,60.6c-0.2,0.2-0.3,0.5-0.4,0.7
				c-0.3,0.6-0.3,1.3-0.2,1.9l-72.2,12.5L1033.3,664.1z M1145.2,727.4c0.3,0.7,0.8,1.3,1.4,1.8l-48.9,48.7c-0.2-0.1-0.5-0.2-0.7-0.2
				c-1.3-0.3-2.6-0.3-3.8,0.1l-20-37.9L1145.2,727.4z M1098.8,778.4c-0.1-0.1-0.2-0.1-0.3-0.2l48.9-48.6c0.4,0.2,0.8,0.4,1.2,0.5
				c1.1,0.3,2.4,0.3,3.5,0l6.4,11.5L1098.8,778.4z M1153,729.8c1.2-0.5,2.1-1.4,2.5-2.4c0.4-1,0.4-2-0.1-3l92.8-37.9l-88.8,54.7
				L1153,729.8z M1251.4,679.9l-18.5-40.4l15.1-16c0.3,0.2,0.7,0.3,1.1,0.4c0.4,0.1,0.9,0.2,1.4,0.2l1.6,55.7
				C1252,679.9,1251.7,679.9,1251.4,679.9L1251.4,679.9z M1247.3,623.1l-14.8,15.6l-5.8-12.6c0.9-0.4,1.7-0.9,2.3-1.6
				c0.6-0.7,0.8-1.5,0.8-2.4l15.7-1.3C1245.8,621.6,1246.4,622.4,1247.3,623.1L1247.3,623.1z M1221.6,618.4l-41.1-44.1l27.1-14.2
				c0.6,0.6,1.5,1.1,2.5,1.4c0.7,0.2,1.4,0.3,2.1,0.2l10.9,56.2C1222.6,618,1222.1,618.2,1221.6,618.4L1221.6,618.4z M1213.6,553.3
				c-0.8-0.2-1.7-0.3-2.5-0.2l-20.5-68.6l87.2-21.9c0.4,0.7,1,1.4,1.8,1.8l-65.4,89C1214,553.4,1213.8,553.3,1213.6,553.3
				L1213.6,553.3z M1283.5,456.7c-0.6-0.1-1.2-0.1-1.8,0l-27.5-75.6c0.5-0.2,1-0.4,1.5-0.7l40.6,33.6L1283.5,456.7z M1256.5,379.9
				c0.9-0.8,1.4-1.9,1.3-3c-0.1-1.1-0.6-2.1-1.6-2.9l71.1-66.6c0.3,0.2,0.6,0.3,0.9,0.4l-31.6,105.3L1256.5,379.9z M1327.3,300.3
				l-41.6-39l48.4-27.3c0.6,0.6,1.5,1,2.4,1.3c0.3,0.1,0.5,0.1,0.8,0.2l-6.9,64C1329.3,299.5,1328.2,299.8,1327.3,300.3z
				 M1340.5,227.3l32.6-76.4l19.5,14.3l-51.8,62.2C1340.7,227.4,1340.6,227.4,1340.5,227.3z M1373.8,150.4c1,0.1,2.1,0,3-0.4
				s1.7-0.9,2.3-1.6c0.6-0.7,0.9-1.5,0.9-2.3c0-0.8-0.3-1.6-0.9-2.3l63.6-39.7c0.2,0.1,0.3,0.3,0.5,0.4l-50,60.1L1373.8,150.4z
				 M1445.2,96.9c-0.9,0.2-1.7,0.6-2.4,1.1L1338.3,26l80.4-34.7c0.7,0.8,1.6,1.4,2.8,1.7c0.7,0.2,1.4,0.3,2.1,0.2L1445.2,96.9z
				 M1414.8-7.8l-77.2,33.3l-4.4-3c0.3-0.3,0.6-0.7,0.7-1.1c0.4-0.9,0.4-1.8,0-2.7L1414.8-7.8z M1207.3,19c-0.3,0.7-0.3,1.4-0.2,2.1
				c0.2,0.7,0.6,1.4,1.2,1.9l-58.2-25.8L1207.3,19z M1130.4-7.8c0.1,0.8,0.5,1.5,1.1,2.1L1101,17.3l-26.9-19.3
				c0.3-0.4,0.6-0.8,0.8-1.2c0.2-0.4,0.3-0.9,0.3-1.3L1130.4-7.8z M932.1-88.5c0.3-0.1,0.5-0.1,0.7-0.2L1006.2,6l-31.5,47l-0.3-0.1
				c-0.9-0.2-1.8-0.3-2.7-0.2L932.1-88.5z M1048.8,62.6c1.2-0.2,2.2-0.8,2.9-1.5l102.4,51.9l-72.7,68.6c-0.4-0.2-0.9-0.4-1.4-0.5
				c-0.7-0.2-1.5-0.3-2.3-0.2L1048.8,62.6z M1083.7,184.2c0-0.1-0.1-0.2-0.1-0.3l122.5-40.6c0.1,0.1,0.2,0.2,0.3,0.4l-44.3,29.8
				c-0.5-0.4-1.2-0.7-1.9-0.9c-0.7-0.2-1.4-0.3-2.1-0.2c-0.7,0-1.4,0.2-2,0.4c-0.6,0.3-1.2,0.6-1.7,1c-0.5,0.4-0.8,0.9-1.1,1.5
				c-0.2,0.5-0.3,1-0.3,1.6L1083.7,184.2z M1157.2,180.8c0.8,0.2,1.7,0.2,2.5,0l42.1,121.9c-1.2,0.3-2.3,0.9-3,1.8
				c-0.7,0.8-1,1.9-0.9,2.9l-82.2,13.4c-0.2-0.6-0.7-1.2-1.3-1.7c-0.6-0.5-1.3-0.9-2.1-1.1L1157.2,180.8z M1108.8,326.1
				c1,0.3,2.1,0.3,3.2,0.1c1-0.2,2-0.7,2.7-1.4l7.9,4.4l-81.1,22.8l64.5-27.6C1106.6,325.2,1107.6,325.8,1108.8,326.1L1108.8,326.1z
				 M1037.9,358c0.5-0.2,0.9-0.4,1.3-0.7l81,55.1l-35.6,29.5c-0.5-0.3-1-0.6-1.6-0.7c-1.1-0.3-2.2-0.3-3.3,0L1037.9,358z M1084,449
				c1.2-0.5,2.1-1.4,2.5-2.4c0.1-0.2,0.1-0.4,0.2-0.6l88.6,6.9c0,1,0.4,1.9,1.2,2.7l-58.8,44.3c-0.6-0.4-1.2-0.7-2-0.9
				c-1.1-0.3-2.4-0.3-3.5,0L1084,449z M1103.9,614.9c0.6,0.5,1.4,0.9,2.3,1.2c0.9,0.2,1.8,0.3,2.7,0.2l9.9,26.5l-82,16.3
				c-0.1-0.4-0.4-0.8-0.7-1.2L1103.9,614.9z M1021.9,750.9c0.1-0.2,0.3-0.4,0.4-0.7c0.2-0.5,0.3-1.1,0.3-1.7l49.6-8.6l20.1,38.1
				c-0.7,0.3-1.2,0.8-1.6,1.3L1021.9,750.9z M1100.5,780.7c-0.2-0.6-0.5-1.2-1-1.6l59.5-36.6l16.2,29c-1.2,0.5-2.1,1.4-2.5,2.4
				c-0.2,0.5-0.3,0.9-0.3,1.4L1100.5,780.7z M1180.4,771.3c-0.3-0.1-0.5-0.2-0.8-0.3c-1.1-0.3-2.4-0.3-3.5,0l-16.3-29.1l89.1-54.8
				c0.2,0.2,0.4,0.3,0.6,0.4L1180.4,771.3z M1248.1,616.2c-0.8,0.4-1.5,0.9-1.9,1.6c-0.4,0.7-0.7,1.4-0.7,2.1l-15.7,1.3
				c-0.3-1-1-1.9-2-2.6c-1-0.6-2.3-1-3.6-0.9l-10.9-56.2c0.2,0,0.4-0.1,0.6-0.2L1248.1,616.2z M1216.3,554.9c-0.4-0.4-0.8-0.8-1.3-1
				l65.5-89c0.2,0.1,0.4,0.1,0.6,0.2c1.3,0.4,2.8,0.3,4.1-0.2c1.3-0.5,2.3-1.3,2.8-2.4l86.5,19.3c-0.2,0.9-0.1,1.7,0.4,2.5
				L1216.3,554.9z M1376.3,479.2l-78.9-65.4l31.2-104.1l49.3,168.7C1377.4,478.6,1376.8,478.9,1376.3,479.2z M1343.1,229.3
				c-0.3-0.5-0.8-1-1.4-1.3l51.7-62.1l44,32.2L1343.1,229.3z M1437.8,197.3l-43.9-32.1l50.1-60.2c0.3,0.1,0.5,0.2,0.8,0.3
				c0.3,0.1,0.6,0.1,0.9,0.2L1437.8,197.3z M1438.9,196.4l7.8-91c1.1,0,2.2-0.3,3.1-0.9c0.9-0.5,1.6-1.3,1.9-2.1
				c0.3-0.9,0.4-1.8,0-2.6c-0.3-0.9-1-1.6-1.9-2.1l72.1-21.2c0.4,0.7,1,1.2,1.8,1.7L1438.9,196.4z"/>
		</g>
		<path class="st3" d="M1505.2-54.7c-0.2-0.4-0.4-0.8-0.8-1.1c-0.3-0.3-0.8-0.6-1.2-0.8c-0.5-0.2-1-0.3-1.5-0.3c-0.5,0-1,0-1.5,0.2
			c-0.8,0.2-1.5,0.6-2,1.2c-0.5,0.6-0.7,1.2-0.7,1.9l-90.8,8.4c0-0.1-0.1-0.2-0.1-0.4c-0.2-0.4-0.4-0.8-0.8-1.1
			c-0.3-0.3-0.8-0.6-1.2-0.8c-0.5-0.2-1-0.3-1.5-0.3c-0.5,0-1,0-1.5,0.2c-0.5,0.1-1,0.3-1.4,0.6c-0.4,0.3-0.7,0.6-1,1
			c-0.2,0.4-0.4,0.8-0.4,1.2c0,0.4,0,0.8,0.2,1.2c0.2,0.6,0.7,1,1.2,1.4c0.6,0.4,1.3,0.6,2,0.7l-3.3,49.3c-0.4,0-0.8,0.1-1.1,0.2
			c-0.7,0.2-1.3,0.5-1.8,1c-0.5,0.4-0.8,1-0.9,1.5l-40.7-2.4c0-0.3-0.1-0.6-0.2-0.9c-0.2-0.4-0.4-0.8-0.8-1.1
			c-0.3-0.3-0.8-0.6-1.2-0.8c-0.5-0.2-1-0.3-1.5-0.3c-0.5,0-1.1,0-1.5,0.2c-1,0.3-1.8,0.8-2.3,1.6c-0.5,0.8-0.5,1.6-0.2,2.4
			l-49.1,18.6c-0.5-0.7-1.2-1.2-2.1-1.4c-0.9-0.3-1.9-0.3-2.7,0c-0.6,0.1-1.1,0.4-1.5,0.7L1251-0.6c0.4-0.4,0.6-0.9,0.7-1.4
			c0.1-0.5,0-1-0.2-1.5c-0.2-0.4-0.4-0.8-0.8-1.1c-0.3-0.3-0.8-0.6-1.2-0.8c-0.5-0.2-1-0.3-1.5-0.3c-0.5,0-1.1,0-1.5,0.2
			c-0.5,0.1-1,0.3-1.4,0.6c-0.4,0.3-0.7,0.6-0.9,1c-0.2,0.4-0.4,0.8-0.4,1.2c0,0.4,0,0.8,0.2,1.2c0.2,0.4,0.4,0.7,0.7,1L1211,26.7
			c-0.5-0.3-1.2-0.6-1.8-0.7c-0.7-0.1-1.4-0.1-2,0.1c-1,0.3-1.8,0.8-2.3,1.5l-62.3-20.4c0.2-0.6,0.2-1.3,0-2
			c-0.2-0.4-0.4-0.8-0.8-1.1c-0.3-0.3-0.8-0.6-1.2-0.8c-0.5-0.2-1-0.3-1.5-0.3c-0.5,0-1.1,0-1.5,0.2c-0.5,0.1-1,0.3-1.4,0.6
			s-0.7,0.6-0.9,1c-0.2,0.4-0.4,0.8-0.4,1.2c0,0.4,0,0.8,0.2,1.2c0.2,0.5,0.6,0.9,1.1,1.3c0.5,0.4,1.1,0.6,1.7,0.8L1122,85.7
			c-0.5,0-1.1,0-1.6,0.2c-0.1,0-0.2,0.1-0.3,0.1l-53.7-15.8c0.2-0.6,0.2-1.3-0.1-1.8c-0.2-0.4-0.4-0.8-0.8-1.1
			c-0.3-0.3-0.8-0.6-1.2-0.8c-0.5-0.2-1-0.3-1.5-0.3c-0.5,0-1.1,0-1.5,0.2c-0.5,0.1-1,0.3-1.4,0.6s-0.7,0.6-0.9,1
			c-0.2,0.4-0.4,0.8-0.4,1.2c0,0.4,0,0.8,0.2,1.2c0.3,0.8,1.1,1.5,2,1.8c1,0.4,2,0.4,3.1,0.2c0.1,0,0.3-0.1,0.4-0.1l63.1,88
			l-0.2,0.2l0.4,0.1l0.7,1l-0.1-0.8l69.3,23c-0.3,0.6-0.3,1.3,0,2c0.3,0.6,0.8,1.2,1.4,1.6c0.7,0.4,1.5,0.6,2.3,0.6l5.1,47.1
			c-0.5,0.1-1,0.2-1.5,0.4c-0.5,0.2-0.9,0.5-1.2,0.9c-0.3,0.4-0.5,0.8-0.6,1.2c-0.1,0.4-0.1,0.9,0,1.3c0.1,0.4,0.3,0.8,0.6,1.2
			c0.3,0.4,0.7,0.7,1.2,0.9c0.5,0.2,1,0.4,1.5,0.5c0.5,0.1,1.1,0,1.6-0.1l-36.6,125.2c-0.6-0.1-1.2,0-1.8,0.1
			c-0.5,0.1-1,0.3-1.4,0.6s-0.7,0.6-1,1c-0.2,0.4-0.4,0.8-0.4,1.2c0,0.4,0,0.8,0.2,1.2c0.2,0.4,0.4,0.8,0.8,1.1
			c0.3,0.3,0.8,0.6,1.2,0.8c0.5,0.2,1,0.3,1.5,0.3c0.5,0,1.1,0,1.5-0.2c0.8-0.2,1.5-0.6,2-1.2l116.5,52c-0.4,0.7-0.5,1.5-0.2,2.3
			c0.3,0.7,0.9,1.4,1.7,1.8l-25.2,40.3c-0.5-0.2-1.1-0.2-1.7-0.2c-0.6,0-1.1,0.1-1.6,0.4c-0.5,0.2-0.9,0.5-1.3,0.9
			c-0.4,0.4-0.6,0.8-0.7,1.2c-0.1,0.4-0.2,0.9-0.1,1.3c0.1,0.4,0.3,0.9,0.7,1.2c0.3,0.4,0.7,0.7,1.2,0.9c0.5,0.2,1,0.4,1.6,0.4
			l-1.2,41c-0.6,0-1.1,0.2-1.6,0.4c-0.5,0.2-0.9,0.5-1.2,0.9c-0.3,0.4-0.6,0.8-0.7,1.2c-0.1,0.4-0.1,0.9,0,1.3
			c0.1,0.4,0.3,0.9,0.7,1.2c0.3,0.4,0.7,0.7,1.2,0.9c0.5,0.2,1,0.4,1.6,0.4c0.6,0.1,1.1,0,1.7-0.1c0.2-0.1,0.4-0.1,0.6-0.2
			l50.8,61.6c-0.5,0.3-0.9,0.7-1.2,1.2c-0.3,0.5-0.4,1-0.3,1.5c0,0.5,0.2,1,0.6,1.4c0.3,0.4,0.8,0.8,1.4,1.1
			c0.6,0.3,1.2,0.4,1.8,0.5c0.6,0,1.3-0.1,1.9-0.3c0.6-0.2,1.1-0.5,1.5-0.9c0.4-0.4,0.7-0.9,0.8-1.4l52.8,4.1c0,0.4,0,0.8,0.2,1.2
			c0.3,0.8,1.1,1.5,2,1.8c1,0.4,2.1,0.4,3.1,0.2c1-0.3,1.8-0.9,2.3-1.6c0.5-0.8,0.5-1.6,0.2-2.4c0,0,0-0.1-0.1-0.1l50.6-21
			c0.4,0.4,1,0.7,1.6,0.9c0.6,0.2,1.3,0.3,2,0.2c0.7-0.1,1.3-0.2,1.9-0.5c0.6-0.3,1-0.7,1.3-1.2c0.3-0.5,0.5-1,0.4-1.5
			c0-0.5-0.2-1.1-0.5-1.5c-0.3-0.5-0.8-0.8-1.4-1.1c-0.6-0.3-1.2-0.4-1.9-0.5l-9.5-59.1h0c0.6-0.2,1.1-0.4,1.5-0.8
			c0.4-0.3,0.8-0.8,1-1.2c0.2-0.5,0.3-0.9,0.2-1.4c-0.1-0.5-0.3-0.9-0.6-1.3c-0.3-0.4-0.8-0.7-1.3-1c-0.5-0.2-1.1-0.4-1.7-0.4
			c-0.6,0-1.2,0-1.8,0.2c-0.6,0.2-1.1,0.5-1.5,0.8l-49.9-31.5c0.4-0.5,0.6-1,0.6-1.6c0-0.5-0.1-1.1-0.4-1.6
			c-0.3-0.5-0.8-0.9-1.4-1.2c-0.6-0.3-1.2-0.5-1.9-0.5l-4.1-73.8c0.6-0.1,1.1-0.2,1.6-0.5c0.5-0.3,0.9-0.6,1.2-1
			c0.3-0.4,0.5-0.8,0.6-1.3c0.1-0.5,0-0.9-0.2-1.4c-0.3-0.7-1-1.4-1.8-1.7l20.7-36.8c1,0.3,2,0.2,2.9-0.1c0.9-0.3,1.6-0.9,2-1.7
			c0.4-0.7,0.4-1.6,0.1-2.3c-0.3-0.8-1-1.4-1.9-1.7l30.8-61.1c0.7,0.2,1.5,0.2,2.2,0c0.7-0.2,1.4-0.5,1.9-0.9c0.5-0.4,0.9-1,1-1.5
			s0.1-1.2-0.2-1.7c-0.3-0.6-0.7-1-1.3-1.4c-0.6-0.4-1.3-0.6-2-0.7c-0.7-0.1-1.5,0-2.2,0.3c-0.7,0.2-1.2,0.6-1.7,1.1l-48.2-20.6
			c0.3-0.5,0.4-1.1,0.3-1.7c-0.1-0.6-0.4-1.1-0.8-1.5c-0.4-0.4-1-0.8-1.7-1c-0.7-0.2-1.4-0.3-2.1-0.2l-33-100.9l-0.4,0.1
			c0.6-0.2,1.2-0.5,1.7-0.9c0.5-0.4,0.8-0.9,0.9-1.4l51,5.4c0,0.5,0.1,0.9,0.3,1.4c0.2,0.4,0.6,0.8,1,1.1c0.4,0.3,1,0.5,1.5,0.7
			c0.6,0.1,1.2,0.2,1.7,0.1c0.6-0.1,1.1-0.2,1.6-0.5c0.5-0.3,0.9-0.6,1.2-1c0.3-0.4,0.5-0.8,0.6-1.3c0.1-0.5,0-0.9-0.2-1.4
			c-0.2-0.5-0.6-0.9-1-1.3c-0.5-0.4-1-0.6-1.6-0.8l21.3-87c0.5,0,1.1,0,1.6-0.2c0.5-0.1,1-0.4,1.4-0.6c0.4-0.3,0.7-0.6,1-1
			c0.2-0.4,0.4-0.8,0.4-1.2l47.1-0.7c0,0.2,0.1,0.3,0.2,0.5c0.2,0.5,0.6,1,1.1,1.3c0.5,0.4,1.1,0.6,1.8,0.8s1.3,0.1,2,0
			c0.7-0.1,1.2-0.4,1.7-0.8c0.5-0.4,0.8-0.8,1.1-1.3c0.2-0.5,0.2-1.1,0.1-1.6c-0.1-0.5-0.4-1-0.9-1.4c-0.4-0.4-1-0.7-1.6-0.9
			l29.2-104c0.6,0.1,1.2,0,1.8-0.1c0.5-0.1,1-0.3,1.4-0.6c0.4-0.3,0.7-0.6,1-1c0.2-0.4,0.4-0.8,0.4-1.2
			C1505.5-53.9,1505.4-54.3,1505.2-54.7z M1466.3,56.4l-47,0.7c0-0.2-0.1-0.4-0.2-0.6c-0.3-0.6-0.7-1.1-1.3-1.5l27.4-35.5l23,34.2
			c-0.6,0.3-1,0.7-1.3,1.1C1466.5,55.3,1466.3,55.9,1466.3,56.4z M1389,149.2l-90.2-29.9c0.2-0.4,0.2-0.8,0.2-1.2
			c0-0.4-0.2-0.8-0.4-1.2l37.5-19l53.6,50.5C1389.5,148.7,1389.2,148.9,1389,149.2z M1365.1,252.4c0.1,0.2,0.2,0.4,0.3,0.6l-6.2,3.5
			l-53.5-15l59.2,9.6C1364.9,251.5,1365,252,1365.1,252.4z M1386.4,342l-65.2,5.1c0-0.1-0.1-0.3-0.1-0.4c-0.1-0.3-0.3-0.6-0.5-0.8
			l40.6-27.6l26.2,21.7C1386.8,340.5,1386.4,341.3,1386.4,342z M1437.1,562.3c-0.3,0-0.5,0.1-0.8,0.1c-0.6,0.2-1.2,0.5-1.6,0.8
			c-0.4,0.4-0.8,0.9-0.9,1.4l-36.3-6.3l29-55.1c0.4,0,0.8,0,1.1,0l5.7,35.4L1437.1,562.3z M1174.6,368.4c-0.2-0.3-0.4-0.7-0.7-0.9
			l57.7-47.8l9.3,31c-0.9,0.2-1.7,0.7-2.2,1.4c-0.5,0.7-0.7,1.4-0.5,2.2L1174.6,368.4z M1294.4,32.6l-37.6,16.6l34-17.7
			c0.4,0.4,1,0.7,1.6,0.9C1293.1,32.6,1293.8,32.6,1294.4,32.6z M1351.6,11.3c0.5-0.1,1-0.4,1.4-0.6l22.4,16.9L1314,71.7
			c-0.2-0.2-0.4-0.3-0.7-0.4l35.5-60.1C1349.7,11.5,1350.7,11.5,1351.6,11.3z M1400.4,14c1-0.3,1.7-0.9,2.2-1.6
			c0.4-0.7,0.5-1.6,0.2-2.4c-0.2-0.6-0.7-1-1.2-1.4c-0.6-0.4-1.2-0.6-2-0.7l3.3-48.6l11.9,94.9L1400.4,14z M1396.2,13.4
			c0.5,0.3,1,0.6,1.6,0.7c0.6,0.1,1.2,0.2,1.8,0.1l14.4,40.3c-0.4,0.1-0.9,0.3-1.2,0.5l-36.3-27.4L1396.2,13.4z M1412.3,55.4
			c-0.3,0.3-0.6,0.7-0.8,1.1c-0.2,0.4-0.2,0.8-0.2,1.3l-96.2,15.4c0,0,0-0.1,0-0.1c-0.1-0.3-0.3-0.6-0.6-0.9l61.4-44.2L1412.3,55.4z
			 M1329.8,145.3l-36.8,13.9c-0.3-0.4-0.7-0.7-1.1-1c-0.5-0.3-1-0.4-1.5-0.5l3.3-23.3l36.2,9.2
			C1329.6,144.1,1329.6,144.7,1329.8,145.3z M1268,516.8c-0.2-0.4-0.4-0.8-0.8-1.1c-0.4-0.3-0.8-0.6-1.3-0.8l13.5-29.4l57.5,60.7
			c-0.3,0.2-0.5,0.4-0.7,0.6l-68.3-27.9C1268.3,518.3,1268.3,517.5,1268,516.8z M1286.4,475.2c0.1,0,0.2-0.1,0.4-0.1l49.7,69.8
			l-56.8-60l4.4-9.6C1284.9,475.4,1285.7,475.4,1286.4,475.2L1286.4,475.2z M1338.3,545.6c-0.1,0-0.2,0.1-0.4,0.1l-50.5-70.9
			c0.7-0.4,1.2-0.9,1.5-1.6l73.1,14.5l-21.6,57.8C1339.7,545.4,1339,545.4,1338.3,545.6L1338.3,545.6z M1366.9,464.7l-77.8,6.8
			c0-0.1-0.1-0.3-0.1-0.4c-0.2-0.5-0.6-1-1.1-1.3l30.3-32.5l49.3,25.8C1367,463.6,1366.8,464.2,1366.9,464.7L1366.9,464.7z
			 M1317.9,436.5l-20-10.5c0.3-0.5,0.5-1,0.5-1.5c0-0.5-0.2-1.1-0.5-1.5l65.7-36.2c0.1,0.1,0.3,0.2,0.4,0.3L1317.9,436.5z
			 M1362.6,385.6c0.1,0.3,0.3,0.5,0.4,0.7l-65.7,36.2c-0.5-0.4-1.1-0.8-1.8-1l15.1-50.5l51.8,13
			C1362.4,384.6,1362.4,385.1,1362.6,385.6L1362.6,385.6z M1310.1,370.3l-64.1-16c0.1-0.2,0.1-0.5,0.1-0.7l67.2-5.3
			c0,0.1,0.1,0.3,0.1,0.4c0.2,0.5,0.5,0.9,1,1.2c0.4,0.3,1,0.6,1.5,0.8L1310.1,370.3z M1176.3,124.9c0.8-0.3,1.5-0.8,1.9-1.4
			l49,16.5l-24.5,41.6c-0.7-0.2-1.5-0.2-2.3-0.1L1176.3,124.9z M1247.4,0.7l0.1,28.3l-35.1-0.1c0-0.3-0.1-0.5-0.2-0.7
			c-0.2-0.4-0.4-0.7-0.7-1L1245.2,0C1245.8,0.4,1246.6,0.6,1247.4,0.7z M1212.4,29.5l35.1,0.1l0.1,20.7c-0.3,0-0.6,0.1-0.9,0.2
			c-0.6,0.2-1.2,0.5-1.6,0.8l-33.3-20.4C1212.1,30.4,1212.3,30,1212.4,29.5L1212.4,29.5z M1289.9,29.8c0,0.2,0.1,0.4,0.2,0.6
			c0.1,0.2,0.2,0.4,0.3,0.6l-39.3,20.5c-0.3-0.3-0.8-0.6-1.2-0.8c-0.5-0.2-1-0.3-1.5-0.4l-0.1-20.7L1289.9,29.8z M1307.6,75.1
			c0.1,0.3,0.3,0.5,0.4,0.7l-29.7,18.9l-28-38.7c0.5-0.3,0.9-0.7,1.2-1.1l56,18.2C1307.3,73.8,1307.3,74.5,1307.6,75.1z
			 M1291.1,118.4l-48.2,1c0-0.1-0.1-0.2-0.1-0.2c-0.1-0.3-0.3-0.5-0.5-0.7l35.8-22.8l14.6,20.2c-0.5,0.3-0.9,0.7-1.2,1.1
			C1291.2,117.4,1291.1,117.9,1291.1,118.4L1291.1,118.4z M1316,344.7c-0.3,0.1-0.6,0.2-0.8,0.3l-30.1-31.9l30.5-29.2
			c0.4,0.1,0.7,0.1,1.1,0.1l0.2,60.6C1316.6,344.5,1316.3,344.6,1316,344.7z M1268.5,291.5l10.2-1.9l34.9-6.5
			c0.4,0.3,0.8,0.5,1.3,0.7l-30.2,28.9l-17.3-18.4c0.5-0.3,0.8-0.8,1-1.3C1268.5,292.5,1268.6,292,1268.5,291.5z M1314.6,345.3
			c-0.4,0.3-0.8,0.7-1,1.1c-0.2,0.4-0.3,0.9-0.3,1.3l-53,4.2l-14.2,1.1c0-0.1-0.1-0.3-0.1-0.4c-0.2-0.5-0.5-0.9-0.9-1.3l39.6-37.8
			L1314.6,345.3z M1312.6,281.8c0.1,0.2,0.3,0.5,0.4,0.7l-44.7,8.4c-0.3-0.6-0.8-1.2-1.5-1.6l14.6-21.1l31,12.4
			C1312.4,281,1312.5,281.4,1312.6,281.8z M1281.2,267.4l-70.3-28.2c0.1-0.2,0.2-0.5,0.2-0.8l78,1.9l7.5,0.2c0,0.4,0.2,0.9,0.5,1.3
			c0.3,0.4,0.6,0.7,1.1,1L1281.2,267.4z M1205,183.3c-0.3-0.6-0.9-1.1-1.6-1.4l24.5-41.6l57.9,19.5c-0.2,0.6-0.3,1.1-0.1,1.7
			L1205,183.3z M1125,90.6c0.1-0.1,0.2-0.3,0.3-0.4l64.5,17.2l-12.8,12c-0.5-0.3-1.1-0.5-1.7-0.5c-0.6-0.1-1.3,0-1.9,0.1
			c-0.6,0.2-1.2,0.4-1.6,0.8l-14.5-9.1L1125,90.6z M1240.3,123.3c0.4-0.1,0.9-0.3,1.2-0.6l44.9,36.1c-0.2,0.2-0.3,0.3-0.5,0.5
			l-57.8-19.5l9.7-16.5C1238.7,123.5,1239.5,123.5,1240.3,123.3L1240.3,123.3z M1239.8,117.1l8.2-60.5c0.5,0,0.9,0,1.3-0.2
			c0.1,0,0.3-0.1,0.4-0.1l28.1,38.8l-35.9,22.9C1241.3,117.6,1240.6,117.2,1239.8,117.1L1239.8,117.1z M1245.7,56.1
			c0.4,0.3,1,0.4,1.5,0.5L1239,117c-0.5,0-0.9,0.1-1.3,0.2c-0.5,0.1-1,0.4-1.4,0.7c-0.4,0.3-0.7,0.7-1,1.1l-44.3-11.8L1245.7,56.1z
			 M1235.1,119.5c-0.1,0.2-0.1,0.3-0.1,0.5l-34.1,1l-22.2,0.6c0-0.2-0.1-0.4-0.2-0.6c-0.2-0.4-0.5-0.9-0.9-1.2l13-12.2L1235.1,119.5
			z M1178.7,122.2l56.4-1.6c0,0.2,0.1,0.4,0.2,0.6c0.3,0.8,1,1.4,2,1.8l-9.7,16.5l-49-16.6C1178.6,122.7,1178.6,122.5,1178.7,122.2z
			 M1287.3,163.4c0.7,0.4,1.5,0.6,2.4,0.6l3.8,28.1l6.1,45.1l-0.2,0c-0.8,0.2-1.4,0.6-1.9,1.1l-56.3-31.7L1287.3,163.4z
			 M1288.3,157.8c-0.5,0.1-0.9,0.3-1.2,0.6l-44.8-36.2c0.2-0.2,0.4-0.4,0.5-0.7l50.2,12.7l-3.3,23.4
			C1289.2,157.6,1288.7,157.7,1288.3,157.8L1288.3,157.8z M1244.4,54.8c0.2,0.3,0.5,0.6,0.8,0.9l-54.8,51.2l-64.8-17.3
			c0.2-0.5,0.2-1,0-1.5L1244.4,54.8z M1205.3,183.9l80.6-21.8c0.2,0.3,0.5,0.7,0.8,0.9l-46.2,43.3l-35.7-20.1
			C1205.3,185.5,1205.5,184.7,1205.3,183.9z M1240.6,207.1l56.4,31.8c-0.2,0.3-0.3,0.7-0.4,1.1l-85.5-2.1c0-0.3-0.1-0.6-0.2-0.8
			c-0.2-0.4-0.5-0.9-0.9-1.2L1240.6,207.1z M1210.5,239.7l70.3,28.1l-14.6,21.1c-0.9-0.3-2-0.4-2.9-0.1c-0.3,0.1-0.7,0.2-0.9,0.4
			l-52.3-49C1210.2,240.1,1210.4,239.9,1210.5,239.7z M1265.8,294.9c0.3-0.1,0.6-0.2,0.9-0.3l17.4,18.5l-39.7,37.9
			c-0.3-0.1-0.5-0.3-0.8-0.3l20.2-55.6C1264.5,295.1,1265.2,295.1,1265.8,294.9z M1312.6,279.9l-30.7-12.3l17-24.5
			c0.7,0.3,1.5,0.4,2.3,0.3l13.8,34.4c-0.6,0.2-1.1,0.5-1.5,0.8C1313,279,1312.7,279.5,1312.6,279.9z M1293,133.6l-50.1-12.7
			c0.1-0.3,0.1-0.6,0.1-0.9l48.2-1c0,0.2,0.1,0.3,0.1,0.5c0.2,0.6,0.7,1.1,1.3,1.5c0.6,0.4,1.3,0.6,2.1,0.7L1293,133.6z
			 M1293.8,115.4c-0.1,0-0.3,0.1-0.4,0.1l-14.7-20.3l29.7-19c0.4,0.3,0.9,0.6,1.4,0.8l-14,38.2
			C1295.1,115.2,1294.4,115.2,1293.8,115.4L1293.8,115.4z M1348.2,11l-35.5,60.1c-0.9-0.3-1.9-0.3-2.8,0c-0.9,0.3-1.6,0.8-2.1,1.5
			l-56-18.2c0.2-0.6,0.2-1.3,0-2c0-0.1-0.1-0.2-0.1-0.3l95.3-42.2C1347.2,10.4,1347.7,10.7,1348.2,11z M1289.9,29.2l-41.6-0.2
			l-0.1-28.3c0.3,0,0.6-0.1,0.9-0.1c0.6-0.1,1.1-0.4,1.5-0.7l40.1,27.7C1290.2,28,1289.9,28.6,1289.9,29.2z M1209.7,32.2
			c0.6-0.2,1.2-0.5,1.6-0.8l32.8,20.2l-41.5-17.9l3-2.1c0.5,0.4,1.2,0.7,1.9,0.8C1208.3,32.4,1209,32.4,1209.7,32.2z M1244.3,52.2
			c-0.3,0.6-0.4,1.4-0.2,2l-118.6,33.3l-0.3-0.1c-0.1-0.2-0.2-0.3-0.3-0.5l77.1-53L1244.3,52.2z M1124.5,91.1l46.8,29.2
			c-0.3,0.4-0.5,0.9-0.6,1.3c-0.1,0.5,0,1,0.2,1.4c0.3,0.7,0.9,1.3,1.7,1.7c0.8,0.4,1.7,0.5,2.7,0.4l-14.2,10.4l-36.8-44.2
			C1124.3,91.3,1124.4,91.2,1124.5,91.1z M1175.8,125.5l24,56.2l-0.3,0.1l-38.1-45.8L1175.8,125.5z M1202.7,187.7
			c0.7-0.2,1.3-0.5,1.8-0.9l35.6,20.1l-30.6,28.7c-0.7-0.4-1.5-0.6-2.3-0.6l-5.1-47.1C1202.3,187.7,1202.5,187.7,1202.7,187.7
			L1202.7,187.7z M1261.7,289.6c-0.5,0.4-0.9,0.9-1.1,1.5c-0.2,0.6-0.1,1.2,0.1,1.8c0.2,0.4,0.4,0.8,0.8,1.1l-29.5,24.5l-23.2-77.5
			c0.2-0.1,0.5-0.2,0.7-0.3L1261.7,289.6z M1262.1,294.4c0.3,0.2,0.7,0.4,1.1,0.5l-20.2,55.6c-0.4-0.1-0.9-0.1-1.3,0l-9.4-31.3
			L1262.1,294.4z M1245.9,354.8l64.2,16.1l-15.1,50.5c-0.6-0.1-1.3,0-1.8,0.1c-0.1,0-0.3,0.1-0.4,0.1l-48.2-65.5
			C1245.1,355.9,1245.6,355.4,1245.9,354.8z M1295.6,427.6c0.7-0.2,1.4-0.6,1.8-1l19.9,10.5l-30.2,32.5c-0.3-0.2-0.7-0.3-1.1-0.4
			l8-41.3C1294.6,427.8,1295.1,427.7,1295.6,427.6z M1281.3,473.2c0.2,0.4,0.4,0.8,0.8,1.1c0.4,0.3,0.8,0.6,1.3,0.8l-4.2,9.3
			l-10.9-11.5c0.6-0.5,1.1-1.1,1.2-1.7l11.6,1C1281.1,472.5,1281.2,472.9,1281.3,473.2z M1266.9,473.5c0.3-0.1,0.6-0.2,0.8-0.3
			l11.1,11.8l-13.6,29.7c-0.2,0-0.4-0.1-0.6-0.1l1.2-41C1266.2,473.7,1266.6,473.6,1266.9,473.5z M1335.9,547.4
			c-0.4,0.7-0.4,1.5-0.1,2.3c0.3,0.7,1,1.3,1.8,1.7l-4.7,8.4l-65.3-40.2L1335.9,547.4z M1338.3,551.7c0.8,0.2,1.7,0.2,2.6,0
			c0.3-0.1,0.6-0.2,0.9-0.4l35.9,35.8l-0.2,0.1l-44-27.1L1338.3,551.7z M1378.9,586.6c-0.2,0-0.4,0.1-0.5,0.2l-36-35.8
			c0.5-0.4,0.8-0.8,1-1.3l53,9.2l-14.7,27.9C1380.8,586.3,1379.8,586.3,1378.9,586.6z M1343.6,549c0.1-0.5,0-1-0.2-1.4
			c-0.1-0.2-0.2-0.4-0.3-0.5l81.4-44.6c0.4,0.3,0.8,0.5,1.3,0.6l-29,55.1L1343.6,549z M1423.3,501.1c0.1,0.3,0.4,0.7,0.6,0.9
			l-81.3,44.6c-0.4-0.4-1-0.7-1.6-0.9l21.6-57.8l60.4,12C1423.1,500.3,1423.1,500.7,1423.3,501.1z M1362.2,487.2l-73.1-14.5
			c0-0.2,0.1-0.4,0.1-0.5l77.8-6.8c0,0.1,0.1,0.3,0.1,0.4c0.2,0.4,0.5,0.8,0.9,1.2c0.4,0.3,0.9,0.6,1.5,0.8L1362.2,487.2z
			 M1369.6,461.7c-0.7,0.2-1.3,0.5-1.8,1l-49.3-25.8l46.1-49.5c0.5,0.2,1.1,0.4,1.8,0.4l4.1,73.8
			C1370.1,461.6,1369.8,461.6,1369.6,461.7L1369.6,461.7z M1362.7,383.5l-51.8-13l5.9-19.7c0.6,0.1,1.2,0,1.7-0.1
			c0.6-0.1,1.1-0.4,1.5-0.7l43.3,32.6C1363,382.9,1362.8,383.2,1362.7,383.5z M1320.1,345.4c-0.7-0.5-1.5-0.8-2.4-0.9l-0.2-60.7
			c0.1,0,0.2,0,0.3-0.1c0.4-0.1,0.8-0.3,1.2-0.5l41.7,34.5L1320.1,345.4z M1319.5,282.9c0.6-0.6,0.9-1.3,1-2l99.8-5.3
			c0,0.2,0.1,0.3,0.2,0.5c0.1,0.3,0.3,0.6,0.5,0.8l-59.6,40.6L1319.5,282.9z M1420.1,275l-99.8,5.3c0-0.2-0.1-0.4-0.2-0.5
			c-0.1-0.2-0.2-0.4-0.3-0.6l39.4-22.1l60.9,17.1C1420.2,274.5,1420.2,274.7,1420.1,275z M1319.5,278.7c-0.5-0.4-1.1-0.8-1.7-0.9
			c-0.7-0.2-1.4-0.2-2.1-0.1l-13.8-34.4h0c0.5-0.1,1-0.4,1.4-0.6c0.4-0.3,0.7-0.6,1-1l54.3,15.3L1319.5,278.7z M1300.2,237.1
			l-9.9-73.2c0.2,0,0.3-0.1,0.5-0.1c0.5-0.1,1-0.3,1.4-0.6s0.7-0.6,0.9-1c0.2-0.4,0.4-0.8,0.4-1.2c0-0.4,0-0.8-0.2-1.2
			c0,0,0,0,0-0.1l36.7-13.9c0.4,0.7,1.1,1.2,2,1.5l-31,89.7C1300.8,237.1,1300.5,237.1,1300.2,237.1z M1330.1,143l-36.4-9.2
			l1.7-12.2c0.3,0,0.6-0.1,0.9-0.2c0.6-0.2,1.1-0.4,1.6-0.8l32.5,21.9C1330.3,142.7,1330.2,142.8,1330.1,143z M1298.2,116.5
			c-0.4-0.5-1-0.8-1.7-1l14-38.2c0.5,0.1,1.1,0.1,1.6,0c0.5-0.1,1-0.3,1.5-0.5l22.1,20.8L1298.2,116.5z M1314.2,76.3
			c0.4-0.3,0.7-0.7,0.9-1.2c0.2-0.4,0.3-0.9,0.2-1.4l96.2-15.4c0,0.1,0,0.1,0.1,0.2c0.1,0.1,0.1,0.3,0.2,0.4l-75.5,38.2L1314.2,76.3
			z M1417.1,54.7c-0.5-0.2-1.1-0.3-1.7-0.4l-12-95.8c0.2,0,0.4-0.1,0.5-0.1l0.3-0.1l40.6,60.6L1417.1,54.7z M1404.9-41.9
			c0.6-0.3,1-0.7,1.3-1.2c0.3-0.5,0.5-1,0.5-1.6l90.8-8.4c0,0.1,0.1,0.2,0.1,0.4c0.3,0.6,0.7,1.1,1.4,1.5l-53.8,69.5L1404.9-41.9z
			 M1395.1,12.1c0.1,0.3,0.3,0.6,0.6,0.9l-19.8,14.2l-22.5-17c0.4-0.4,0.7-1,0.8-1.5l40.7,2.4C1394.9,11.4,1395,11.8,1395.1,12.1z
			 M1297,31.4c0.4-0.4,0.7-0.9,0.8-1.4c0.1-0.5,0.1-1.1-0.1-1.6l42.1-16L1297,31.4z M1204.6,30.2c0.1,0.3,0.3,0.6,0.5,0.8l-3.3,2.2
			l-56.8-24.5l59.5,19.5C1204.3,28.9,1204.4,29.5,1204.6,30.2z M1138.5,9.5c0.5,0,1.1,0,1.6-0.2c0.8-0.2,1.6-0.7,2-1.3l59.2,25.5
			l-76.9,52.9c-0.5-0.4-1.1-0.7-1.8-0.8L1138.5,9.5z M1064.9,71.9c0.6-0.3,1-0.7,1.3-1.2l53.1,15.6c-0.7,0.4-1.2,1-1.4,1.6
			c-0.2,0.6-0.2,1.3,0,2c0.3,0.6,0.8,1.2,1.4,1.5c0.7,0.4,1.5,0.6,2.3,0.6l5.8,67L1064.9,71.9z M1128.1,159.6l-5.8-67.6
			c0.2,0,0.4-0.1,0.6-0.1c0.2-0.1,0.4-0.1,0.6-0.2l36.9,44.3L1128.1,159.6z M1128.5,160.2l32.3-23.7l38,45.7c-0.4,0.3-0.8,0.6-1,1
			L1128.5,160.2z M1208.4,242.3l23,76.6l-58,48.1c-0.4-0.2-0.8-0.4-1.2-0.5L1208.4,242.3z M1174.5,370.8c0.3-0.6,0.4-1.2,0.3-1.9
			l63.6-14.2c0.4,0.8,1.1,1.4,2,1.7c0.9,0.3,2,0.4,3,0.1c0.1,0,0.3-0.1,0.4-0.1L1292,422c-0.4,0.2-0.7,0.5-1,0.8L1174.5,370.8z
			 M1292.9,427.5c0.2,0,0.3,0.1,0.5,0.1l-8,41.4c-0.5,0-1,0-1.5,0.2c-0.7,0.2-1.3,0.5-1.7,0.9c-0.5,0.4-0.8,0.9-0.9,1.5l-11.6-1
			c0-0.4-0.1-0.7-0.2-1.1c-0.3-0.7-0.9-1.3-1.7-1.7L1292.9,427.5z M1266.7,520.3c0.2-0.1,0.3-0.2,0.4-0.3l65.5,40.3l-12,21.4
			c-0.8-0.2-1.7-0.2-2.6,0c-0.2,0.1-0.4,0.1-0.6,0.2L1266.7,520.3z M1323.4,584.8c0-0.4-0.1-0.7-0.2-1c-0.3-0.7-1-1.4-1.8-1.8
			l11.9-21.3l43.8,27c-0.3,0.4-0.6,0.8-0.7,1.2L1323.4,584.8z M1383.6,587.9c-0.3-0.4-0.7-0.7-1.2-1l14.8-28l36.5,6.3
			c0,0.4,0,0.8,0.2,1.3c0.1,0.2,0.2,0.3,0.3,0.5L1383.6,587.9z M1423.7,498.4c-0.2,0.3-0.4,0.6-0.5,0.9l-60.3-12l7.3-19.5
			c0.7,0.1,1.4,0.1,2-0.1c0.6-0.2,1.2-0.5,1.7-0.9L1423.7,498.4z M1367.7,381.6c-0.7-0.2-1.4-0.2-2.1-0.1c-0.7,0.1-1.4,0.4-1.9,0.8
			l-43.3-32.6c0.6-0.6,0.9-1.3,0.9-2l65.2-5.1c0,0.1,0.1,0.3,0.1,0.4c0.3,0.7,1,1.4,1.8,1.7L1367.7,381.6z M1391.6,339
			c-0.6-0.1-1.3-0.2-1.9-0.1c-0.6,0.1-1.2,0.3-1.7,0.6l-26.2-21.7l59.6-40.5c0.3,0.2,0.6,0.4,1,0.6L1391.6,339z M1419.7,273.5
			l-59.7-16.8l5.8-3.2c0.5,0.5,1.2,0.8,2,1c0.8,0.2,1.6,0.1,2.4-0.1c0.8-0.2,1.6-0.7,2-1.3L1419.7,273.5z M1367.6,248.4
			c-0.6,0.2-1.1,0.4-1.5,0.8c-0.4,0.4-0.7,0.8-0.9,1.3l-60.5-9.9c0.1-0.5,0-0.9-0.2-1.4c-0.2-0.5-0.6-0.9-1-1.3
			c-0.5-0.4-1-0.6-1.6-0.8l31-89.7c0.6,0.1,1.2,0.1,1.8,0L1367.6,248.4z M1337.6,144.6c0-0.6-0.2-1.2-0.6-1.8c-0.4-0.5-1-1-1.7-1.2
			c-0.7-0.3-1.5-0.4-2.3-0.3c-0.8,0.1-1.5,0.4-2.1,0.8l-32.6-21.9c0.1-0.1,0.1-0.2,0.2-0.3l90.2,29.9c0,0.1-0.1,0.2-0.1,0.2
			L1337.6,144.6z M1393,147.5c-0.9-0.1-1.9,0.1-2.7,0.6l-53.5-50.5l75.4-38.2c0.5,0.6,1.3,1,2.2,1.1L1393,147.5z M1471,53.3
			c-0.7-0.1-1.4-0.1-2,0.1l-0.2,0.1l-23.2-34.6l54-69.8c0.2,0.1,0.4,0.1,0.5,0.2L1471,53.3z"/>
		<g>
			
				<radialGradient id="SVGID_2_" cx="292.0716" cy="725.5796" r="1" gradientTransform="matrix(-6.6004 -2.8243 -2.4497 5.7249 5126.6069 -3204.353)" gradientUnits="userSpaceOnUse">
				<stop  offset="0" style="stop-color:#000000"/>
				<stop  offset="1" style="stop-color:#000000"/>
			</radialGradient>
			<path class="st4" d="M1413.2,140.2c0.7-1,1.8-1.9,3.1-2.4c1.3-0.6,2.8-0.8,4.3-0.7c1.5,0.1,2.9,0.6,4,1.3c1.1,0.8,2,1.8,2.4,2.9
				c0.4,1.1,0.4,2.3,0,3.5c-0.4,1.1-1.3,2.1-2.4,2.9c-1.2,0.7-2.6,1.2-4,1.3c-1.5,0.1-3-0.1-4.3-0.7c-1.7-0.8-3-2-3.6-3.5
				C1412,143.2,1412.2,141.5,1413.2,140.2z"/>
		</g>
		<g>
			
				<radialGradient id="SVGID_3_" cx="292.0716" cy="725.5796" r="1" gradientTransform="matrix(-6.6004 -2.8243 -2.4497 5.7249 5074.5767 -3111.6331)" gradientUnits="userSpaceOnUse">
				<stop  offset="0" style="stop-color:#000000"/>
				<stop  offset="1" style="stop-color:#000000"/>
			</radialGradient>
			<path class="st5" d="M1360.8,232.6c0.7-1,1.8-1.9,3.1-2.4c1.3-0.6,2.8-0.8,4.3-0.7c1.5,0.1,2.9,0.6,4,1.3c1.1,0.8,2,1.8,2.4,2.9
				s0.4,2.3,0,3.5c-0.4,1.1-1.3,2.1-2.5,2.9c-1.2,0.7-2.6,1.2-4,1.3c-1.5,0.1-3-0.1-4.3-0.7c-1.7-0.8-3-2-3.6-3.5
				C1359.6,235.6,1359.8,234,1360.8,232.6z"/>
		</g>
		<g>
			
				<radialGradient id="SVGID_4_" cx="292.1823" cy="725.3757" r="1" gradientTransform="matrix(-6.5922 -2.8451 -2.4707 5.7247 5133.3452 -2928.7285)" gradientUnits="userSpaceOnUse">
				<stop  offset="0" style="stop-color:#000000"/>
				<stop  offset="1" style="stop-color:#000000"/>
			</radialGradient>
			<path class="st6" d="M1407.6,399.4c3.4-1.8,4.4-5.5,2.1-8.3c-2.3-2.7-6.9-3.5-10.4-1.6c-3.4,1.8-4.4,5.5-2.1,8.3
				C1399.5,400.5,1404.2,401.2,1407.6,399.4z"/>
		</g>
		<g>
			
				<radialGradient id="SVGID_5_" cx="292.0716" cy="725.5796" r="1" gradientTransform="matrix(-6.6004 -2.8243 -2.4497 5.7249 4930.7539 -3274.2581)" gradientUnits="userSpaceOnUse">
				<stop  offset="0" style="stop-color:#000000"/>
				<stop  offset="1" style="stop-color:#000000"/>
			</radialGradient>
			<path class="st7" d="M1217.9,69.8c0.7-1,1.8-1.9,3.1-2.4c1.3-0.6,2.8-0.8,4.3-0.7c1.5,0.1,2.9,0.6,4,1.3c1.1,0.8,2,1.8,2.4,2.9
				c0.4,1.1,0.4,2.3,0,3.5c-0.4,1.1-1.3,2.1-2.4,2.9c-1.2,0.7-2.6,1.2-4,1.3c-1.5,0.1-3-0.1-4.3-0.7c-1.7-0.8-3-2-3.6-3.5
				S1216.9,71.2,1217.9,69.8z"/>
		</g>
		<g>
			
				<radialGradient id="SVGID_6_" cx="292.1823" cy="725.3757" r="1" gradientTransform="matrix(-6.5922 -2.8451 -2.4707 5.7247 4982.8438 -3082.2051)" gradientUnits="userSpaceOnUse">
				<stop  offset="0" style="stop-color:#000000"/>
				<stop  offset="1" style="stop-color:#000000"/>
			</radialGradient>
			<path class="st8" d="M1254.5,247.2c4.1-0.5,6.8-3.6,6.2-6.9c-0.7-3.2-4.5-5.4-8.6-4.9c-4.1,0.5-6.8,3.6-6.2,6.9
				C1246.6,245.6,1250.4,247.8,1254.5,247.2z"/>
		</g>
		<g>
			
				<radialGradient id="SVGID_7_" cx="292.0716" cy="725.5795" r="1" gradientTransform="matrix(-6.6004 -2.8243 -2.4497 5.7249 4988.3218 -2965.9302)" gradientUnits="userSpaceOnUse">
				<stop  offset="0" style="stop-color:#000000"/>
				<stop  offset="1" style="stop-color:#000000"/>
			</radialGradient>
			<path class="st9" d="M1274,377.9c0.7-1,1.8-1.9,3.1-2.4c1.3-0.6,2.8-0.8,4.3-0.7c1.5,0.1,2.9,0.6,4,1.3c1.1,0.8,2,1.8,2.4,2.9
				s0.4,2.3,0,3.5c-0.4,1.1-1.3,2.1-2.5,2.9c-1.2,0.7-2.6,1.2-4,1.3c-1.5,0.1-3-0.1-4.3-0.7c-1.7-0.8-3-2-3.6-3.5
				C1272.8,380.9,1273,379.2,1274,377.9z"/>
		</g>
		<g>
			
				<radialGradient id="SVGID_8_" cx="292.0716" cy="725.5796" r="1" gradientTransform="matrix(-6.6004 -2.8243 -2.4497 5.7249 5195.4009 -3288.2271)" gradientUnits="userSpaceOnUse">
				<stop  offset="0" style="stop-color:#000000"/>
				<stop  offset="1" style="stop-color:#000000"/>
			</radialGradient>
			<path class="st10" d="M1482.3,56.6c0.7-1,1.8-1.9,3.1-2.4s2.8-0.8,4.3-0.7c1.5,0.1,2.9,0.6,4,1.3c1.1,0.8,2,1.8,2.4,2.9
				c0.4,1.1,0.4,2.3,0,3.5s-1.3,2.1-2.5,2.9c-1.2,0.7-2.6,1.2-4,1.3c-1.5,0.1-3-0.1-4.3-0.7c-1.7-0.8-3-2-3.6-3.5
				C1481.1,59.6,1481.3,58,1482.3,56.6z"/>
		</g>
		<g>
			
				<radialGradient id="SVGID_9_" cx="292.0716" cy="725.5796" r="1" gradientTransform="matrix(-6.6004 -2.8243 -2.4497 5.7249 4981.4287 -3155.405)" gradientUnits="userSpaceOnUse">
				<stop  offset="0" style="stop-color:#000000"/>
				<stop  offset="1" style="stop-color:#000000"/>
			</radialGradient>
			<path class="st11" d="M1267.9,188.6c0.7-1,1.8-1.9,3.1-2.4c1.3-0.6,2.8-0.8,4.3-0.7c1.5,0.1,2.9,0.6,4,1.3c1.1,0.8,2,1.8,2.4,2.9
				c0.4,1.1,0.4,2.3,0,3.5c-0.4,1.1-1.3,2.1-2.5,2.9c-1.2,0.7-2.6,1.2-4,1.3c-1.5,0.1-3-0.1-4.3-0.7c-1.7-0.8-3-2-3.6-3.5
				C1266.8,191.6,1267,190,1267.9,188.6z"/>
		</g>
	</g>
</mask>
<g class="st12">
	<rect x="939" class="st13" width="382" height="741"/>
</g>
</svg>
