<?xml version="1.0" encoding="utf-8"?>
<!-- Generator: Adobe Illustrator 21.0.0, SVG Export Plug-In . SVG Version: 6.00 Build 0)  -->
<svg version="1.1" id="Layer_1" xmlns="http://www.w3.org/2000/svg" xmlns:xlink="http://www.w3.org/1999/xlink" x="0px" y="0px"
	 viewBox="0 0 193 429.1" style="enable-background:new 0 0 193 429.1;" xml:space="preserve">
<style type="text/css">
	.st0{opacity:0.5;fill:#FFFFFF;}
</style>
<path class="st0" d="M-98.1-41.8c0,0.3,0.1,0.6,0.2,0.9c0.1,0.3,0.3,0.5,0.6,0.7c0.2,0.2,0.5,0.4,0.8,0.5c0.3,0.1,0.7,0.2,1.1,0.1
	L-78,38.5c-0.4,0.1-0.7,0.4-1,0.7c-0.3,0.3-0.4,0.7-0.5,1.1c-0.1,0.4-0.1,0.8,0.1,1.2c0.1,0.4,0.3,0.7,0.6,1c0.3,0.3,0.6,0.5,1,0.6
	c0.4,0.1,0.8,0.1,1.2,0c0.4-0.1,0.8-0.3,1-0.6c0.3-0.3,0.5-0.6,0.6-1c0-0.1,0.1-0.2,0.1-0.4l28.1,0.5c0,0.3,0.1,0.6,0.2,0.9
	c0.1,0.3,0.3,0.5,0.6,0.8c0.2,0.2,0.5,0.4,0.8,0.5c0.3,0.1,0.6,0.1,0.9,0.1l12.7,65.3c-0.4,0.1-0.7,0.3-1,0.6
	c-0.3,0.3-0.5,0.6-0.6,1c-0.1,0.3-0.2,0.7-0.1,1c0,0.3,0.2,0.7,0.3,1c0.2,0.3,0.4,0.6,0.7,0.7c0.3,0.2,0.6,0.3,1,0.4
	c0.3,0.1,0.7,0,1-0.1c0.3-0.1,0.6-0.3,0.9-0.5s0.5-0.5,0.6-0.8c0.1-0.3,0.2-0.7,0.2-1l30.5-4.1c0.1,0.4,0.3,0.8,0.6,1.1
	c0.3,0.3,0.6,0.5,1,0.7l-0.2-0.1l-19.7,75.7c-0.4-0.1-0.9,0-1.3,0.1c-0.4,0.2-0.7,0.4-1,0.7c-0.3,0.3-0.4,0.7-0.5,1.2
	c-0.1,0.4,0,0.9,0.2,1.2l-28.8,15.5c-0.2-0.4-0.6-0.7-1-0.8c-0.4-0.2-0.8-0.3-1.3-0.2c-0.4,0.1-0.9,0.2-1.2,0.5
	c-0.3,0.3-0.6,0.6-0.8,1.1c-0.2,0.4-0.2,0.9-0.1,1.3c0.1,0.4,0.3,0.8,0.6,1.2c0.3,0.3,0.7,0.6,1.1,0.7c0.4,0.1,0.9,0.1,1.3,0
	l18.4,45.9c-0.5,0.3-0.9,0.7-1.1,1.3s-0.2,1.2,0.1,1.7c0.2,0.6,0.7,1,1.2,1.2c0.5,0.2,1.2,0.3,1.7,0.1l12.4,27.6
	c-0.5,0.3-0.9,0.8-1.1,1.3c-0.1,0.3-0.2,0.7-0.1,1s0.2,0.7,0.3,1c0.2,0.3,0.4,0.6,0.7,0.7c0.3,0.2,0.6,0.3,1,0.4l-2.4,55.4
	c-0.4,0-0.8,0.2-1.2,0.4c-0.3,0.2-0.6,0.5-0.8,0.9c-0.2,0.4-0.3,0.8-0.3,1.2c0,0.4,0.1,0.8,0.4,1.2L-49.5,372
	c-0.2-0.3-0.6-0.5-0.9-0.6c-0.3-0.1-0.7-0.2-1.1-0.2c-0.4,0-0.7,0.1-1,0.3c-0.3,0.2-0.6,0.4-0.8,0.7c-0.2,0.3-0.3,0.7-0.4,1
	c0,0.4,0,0.7,0.1,1.1c0.1,0.3,0.3,0.7,0.6,0.9c0.3,0.3,0.6,0.5,0.9,0.6h0l-5.7,44.4c-0.4,0-0.8,0.1-1.1,0.3
	c-0.3,0.2-0.6,0.5-0.8,0.8c-0.2,0.3-0.3,0.7-0.3,1.1c0,0.4,0.1,0.8,0.3,1.1c0.2,0.4,0.4,0.7,0.8,0.9c0.3,0.2,0.7,0.4,1.1,0.4
	c0.4,0,0.8,0,1.2-0.2c0.4-0.2,0.7-0.4,0.9-0.7l30.2,15.8c0,0,0,0.1,0,0.1c-0.2,0.6-0.2,1.3,0.1,1.8c0.3,0.6,0.8,1,1.4,1.2
	c0.6,0.2,1.3,0.2,1.8-0.1c0.6-0.3,1-0.8,1.2-1.4c0.1-0.3,0.1-0.6,0.1-0.9l31.6-3c0.1,0.4,0.2,0.7,0.5,1c0.2,0.3,0.5,0.5,0.9,0.7
	c0.4,0.2,0.7,0.2,1.1,0.2c0.4,0,0.8-0.1,1.1-0.3c0.3-0.2,0.6-0.5,0.8-0.8c0.2-0.3,0.3-0.7,0.3-1.1c0-0.4,0-0.8-0.2-1.1
	c-0.2-0.4-0.4-0.7-0.7-0.9L44.9,389c0.1,0.1,0.2,0.1,0.3,0.2c0.3,0.1,0.7,0.1,1,0.1c0.3,0,0.7-0.1,0.9-0.3c0.3-0.2,0.5-0.4,0.7-0.7
	c0.2-0.3,0.3-0.6,0.4-0.9c0.1-0.3,0.1-0.7,0-1c-0.1-0.3-0.2-0.6-0.4-0.9c-0.2-0.3-0.5-0.5-0.7-0.7c-0.3-0.2-0.6-0.3-0.9-0.3
	l-0.7-30.7c0.3,0,0.7-0.1,1-0.3c0.3-0.2,0.5-0.4,0.7-0.7c0.2-0.3,0.3-0.6,0.4-0.9c0.1-0.3,0.1-0.7,0-1c-0.1-0.3-0.2-0.6-0.4-0.9
	c-0.2-0.3-0.5-0.5-0.8-0.6c-0.3-0.2-0.6-0.2-1-0.3c-0.3,0-0.7,0-1,0.2l-15-30.2c0.5-0.3,0.9-0.8,1-1.3c0.2-0.6,0.1-1.2-0.1-1.7
	l69.6-39c0.3,0.4,0.7,0.7,1.2,0.9c0.3,0.1,0.6,0.1,0.9,0.1c0.3,0,0.6-0.1,0.9-0.2c0.3-0.1,0.5-0.3,0.7-0.6c0.2-0.2,0.4-0.5,0.5-0.8
	c0.1-0.3,0.1-0.6,0.1-0.9c0-0.3-0.1-0.6-0.2-0.9c-0.1-0.3-0.3-0.5-0.6-0.7c-0.2-0.2-0.5-0.4-0.8-0.5c-0.4-0.1-0.7-0.2-1.1-0.1
	l-21.9-94c0.3,0.1,0.6,0.1,1,0c0.3-0.1,0.6-0.2,0.9-0.3c0.3-0.2,0.5-0.4,0.7-0.7c0.2-0.3,0.3-0.6,0.4-0.9c0.1-0.3,0.1-0.6,0-1
	c-0.1-0.3-0.2-0.6-0.4-0.9c-0.2-0.3-0.4-0.5-0.7-0.7c-0.3-0.2-0.6-0.3-0.9-0.3l3.1-35.3c0.5,0,1-0.2,1.4-0.5
	c0.4-0.3,0.7-0.7,0.9-1.2c0.2-0.5,0.2-1,0-1.5l41.4-17.2l0,0.6l0.4-0.8l0.3-0.1l-0.1-0.1l37.7-66c0.1,0,0.1,0.1,0.2,0.1
	c0.6,0.2,1.3,0.2,1.8-0.1c0.6-0.3,1-0.8,1.2-1.4c0.1-0.3,0.1-0.6,0.1-0.9c0-0.3-0.1-0.6-0.2-0.9c-0.1-0.3-0.3-0.5-0.6-0.7
	c-0.2-0.2-0.5-0.4-0.8-0.5c-0.3-0.1-0.6-0.1-0.9-0.1c-0.3,0-0.6,0.1-0.9,0.2c-0.3,0.1-0.5,0.3-0.7,0.6s-0.4,0.5-0.5,0.8
	c-0.2,0.4-0.2,0.9,0,1.4l-32.1,11.9c-0.1,0-0.1-0.1-0.2-0.1c-0.3-0.1-0.6-0.1-0.9-0.1l-9.5-57.2c0.4-0.1,0.7-0.3,1-0.6
	c0.3-0.3,0.5-0.6,0.6-1c0.1-0.3,0.1-0.6,0.1-0.9c0-0.3-0.1-0.6-0.2-0.9c-0.1-0.3-0.3-0.5-0.6-0.7S122,1,121.7,0.9
	c-0.3-0.1-0.6-0.1-0.9-0.1c-0.3,0-0.6,0.1-0.9,0.2c-0.3,0.1-0.5,0.3-0.7,0.6c-0.2,0.2-0.4,0.5-0.5,0.8c-0.2,0.5-0.2,1,0,1.5
	L81.5,19.1c-0.3-0.5-0.8-1-1.3-1.2c-0.4-0.1-0.8-0.2-1.2-0.1c-0.4,0.1-0.8,0.2-1.1,0.5L57.7-2c0.2-0.2,0.3-0.5,0.4-0.8
	c0.1-0.3,0.1-0.6,0.1-0.9c0-0.3-0.1-0.6-0.2-0.9c-0.1-0.3-0.3-0.5-0.6-0.7c-0.2-0.2-0.5-0.4-0.8-0.5c-0.3-0.1-0.6-0.1-0.9-0.1
	c-0.3,0-0.6,0.1-0.9,0.2c-0.3,0.1-0.5,0.3-0.7,0.6c-0.2,0.2-0.4,0.5-0.5,0.8c-0.1,0.4-0.2,0.7-0.1,1.1c0.1,0.4,0.2,0.7,0.4,1
	L30,18.7c-0.3-0.2-0.6-0.4-0.9-0.5c-0.5-0.2-1.1-0.2-1.6,0c-0.5,0.2-1,0.6-1.2,1.1l-29.3-14C-2.9,4.7-3,4.1-3.3,3.5
	c-0.3-0.6-0.8-1-1.4-1.2c-0.3-0.1-0.6-0.1-0.9-0.1c-0.3,0-0.6,0.1-0.9,0.2C-6.7,2.6-7,2.8-7.2,3c-0.2,0.2-0.4,0.5-0.5,0.8
	C-7.7,4-7.8,4.2-7.8,4.5l-24.3,1.8c-0.1-0.4-0.3-0.8-0.5-1.2c-0.3-0.3-0.6-0.6-1.1-0.7c-0.2-0.1-0.4-0.1-0.7-0.1l-2-37
	c0.4-0.1,0.8-0.2,1.2-0.5c0.3-0.3,0.6-0.7,0.7-1.1c0.1-0.3,0.1-0.6,0.1-0.9c0-0.3-0.1-0.6-0.2-0.9c-0.1-0.3-0.3-0.5-0.6-0.7
	c-0.2-0.2-0.5-0.4-0.8-0.5c-0.3-0.1-0.6-0.1-0.9-0.1c-0.3,0-0.6,0.1-0.9,0.2c-0.3,0.1-0.5,0.3-0.7,0.6c-0.2,0.2-0.4,0.5-0.5,0.8
	c0,0.1-0.1,0.2-0.1,0.3l-54.3-6.3c0-0.5-0.1-1-0.4-1.4c-0.3-0.4-0.7-0.7-1.2-0.9c-0.3-0.1-0.6-0.1-0.9-0.1c-0.3,0-0.6,0.1-0.9,0.2
	c-0.3,0.1-0.5,0.3-0.7,0.6c-0.2,0.2-0.4,0.5-0.5,0.8C-98.1-42.4-98.1-42.1-98.1-41.8z M-75,39.5c-0.2-0.3-0.5-0.6-0.8-0.9L-62.1,13
	l16.4,26.6c-0.4,0.3-0.6,0.7-0.8,1.1c0,0.1-0.1,0.3-0.1,0.4l-28.1-0.5C-74.7,40.3-74.8,39.9-75,39.5z M-29,109.8l32-37.9l22.4,14.3
	c-0.1,0.3-0.2,0.6-0.3,0.9c0,0.3,0,0.6,0.1,0.9l-53.9,22.4C-28.7,110.1-28.8,109.9-29,109.8z M-14.2,186.7l35.4-7.2l-31.9,11.3
	l-3.7-2.6c0.1-0.1,0.1-0.3,0.2-0.4C-14.2,187.4-14.1,187.1-14.2,186.7z M-27.6,253.5l15.7-16.3l24.3,20.7c-0.1,0.2-0.2,0.4-0.3,0.6
	c0,0.1-0.1,0.2-0.1,0.3L-27,255C-27,254.4-27.2,253.9-27.6,253.5z M-55,402.5l3.4-26.5c0.2,0,0.5,0,0.7,0l17.3,41.4l-21.7,4.7
	c-0.1-0.4-0.3-0.7-0.6-1c-0.3-0.3-0.6-0.5-1-0.6c-0.1-0.1-0.3-0.1-0.5-0.1L-55,402.5z M61.6,264.1c0.1-0.6,0-1.1-0.3-1.6
	c-0.3-0.5-0.7-0.9-1.3-1.1l5.5-23.2l34.5,35.9c-0.2,0.2-0.3,0.4-0.4,0.7L61.6,264.1z M29.2,22.7c0.4-0.1,0.7-0.4,1-0.7l20.3,13.3
	L28,22.8C28.4,22.8,28.8,22.8,29.2,22.7z M-4.5,6.8l21.2,45.1c-0.1,0.1-0.3,0.2-0.4,0.3l-36.7-33.1L-7,6.4c0.2,0.2,0.5,0.4,0.8,0.5
	C-5.6,7-5,7-4.5,6.8z M-43.9,39l7.1-71.2l2,36.5c-0.4,0.1-0.8,0.3-1.2,0.5c-0.3,0.3-0.6,0.7-0.7,1.1c-0.2,0.6-0.2,1.2,0.1,1.8
	c0.3,0.6,0.7,1,1.3,1.2L-43.9,39z M-21,19.1l-21.7,20.6c-0.2-0.2-0.5-0.3-0.7-0.4L-34.9,9c0.4,0.1,0.7,0,1.1-0.1
	c0.4-0.1,0.7-0.3,1-0.5L-21,19.1z M-20.7,19.4L16,52.5c-0.2,0.2-0.3,0.4-0.3,0.7c0,0,0,0.1,0,0.1l-57.5-11.6c0-0.3,0-0.6-0.1-0.9
	c-0.1-0.3-0.3-0.6-0.5-0.8L-20.7,19.4z M6.8,106.1l21.6-6.9l2,17.5c-0.3,0.1-0.6,0.2-0.9,0.4c-0.3,0.2-0.5,0.4-0.7,0.7l-22-10.4
	C7,106.9,7,106.5,6.8,106.1z M43.8,387.8L3,408.8c-0.1-0.2-0.3-0.3-0.4-0.5L37,362.7l8,22c-0.3,0.1-0.5,0.3-0.8,0.6
	c-0.2,0.2-0.4,0.5-0.5,0.8C43.6,386.7,43.6,387.3,43.8,387.8z M32.8,354.9c0.4,0.1,0.9,0.2,1.4,0l2.6,7.2l-33.9,45l29.7-52.4
	C32.6,354.9,32.7,354.9,32.8,354.9L32.8,354.9z M1.8,407.8c-0.4-0.1-0.8-0.2-1.2-0.1l-12.9-43.4l43.6-10.9c0.2,0.5,0.5,0.9,0.9,1.2
	L2,407.9C1.9,407.8,1.8,407.8,1.8,407.8L1.8,407.8z M-15.3,347.1c0-0.4-0.1-0.8-0.3-1.2l29.5-19.4l18.1,24.4c-0.3,0.3-0.5,0.6-0.7,1
	c0,0.1-0.1,0.2-0.1,0.3L-15.3,347.1L-15.3,347.1z M-13.5,288.8c0.1-0.1,0.2-0.1,0.2-0.2L26,315.8c-0.2,0.3-0.3,0.7-0.3,1.1
	c0,0.4,0.1,0.8,0.3,1.2L14,325.9L-13.5,288.8z M-12.8,287.7c0.1-0.4,0.2-0.8,0.1-1.1l30.9-9.7l9,37.9c-0.4,0.1-0.8,0.4-1.1,0.7
	L-13,288.2C-12.9,288.1-12.8,287.9-12.8,287.7L-12.8,287.7z M15.1,261.5c0.3-0.1,0.7-0.3,0.9-0.6c0.3-0.3,0.5-0.6,0.6-0.9
	c0-0.1,0.1-0.2,0.1-0.3l40.2,4c0,0.2,0,0.3,0.1,0.5l-38.3,12L15.1,261.5z M84.1,134.6c-0.5-0.1-0.9-0.1-1.4,0.1l-14.6-31.2
	l29.3-12.4c0.3,0.5,0.6,0.8,1.1,1L84.1,134.6z M57.4-1.7l20.1,20.4c-0.2,0.2-0.3,0.5-0.4,0.8C77,19.6,77,19.8,77,20l-21,0.1
	l0.1-21.3C56.6-1.2,57-1.4,57.4-1.7z M77,20.5c0,0.4,0.2,0.7,0.4,1L57.5,36.9c-0.3-0.3-0.6-0.5-1-0.6c-0.2-0.1-0.4-0.1-0.5-0.1
	L56,20.6L77,20.5L77,20.5z M55.6,20.6l-0.1,15.5c-0.3,0-0.6,0.1-0.9,0.3c-0.3,0.2-0.5,0.4-0.7,0.6L30.4,21.6
	c0.1-0.1,0.2-0.3,0.2-0.4c0.1-0.2,0.1-0.3,0.1-0.5L55.6,20.6z M20.2,53.3l33.4-13.7c0.2,0.3,0.4,0.6,0.7,0.8l-16.8,29L19.9,55.3
	c0.1-0.2,0.2-0.4,0.3-0.5C20.3,54.2,20.3,53.7,20.2,53.3z M30,87.2c0-0.4-0.1-0.8-0.3-1.1c-0.2-0.3-0.4-0.6-0.7-0.8l8.7-15.1
	l21.4,17.1c-0.1,0.2-0.2,0.4-0.3,0.5c0,0.1-0.1,0.1-0.1,0.2L30,87.2L30,87.2z M14.5,256.9l0.1-45.5c0.2,0,0.4,0,0.6,0l18.2,21.9
	l-18,23.9c-0.2-0.1-0.3-0.2-0.5-0.2C14.9,256.9,14.7,256.9,14.5,256.9z M43.6,218.2c0.1,0.4,0.3,0.7,0.6,1l-10.4,13.8l-18.1-21.7
	c0.3-0.1,0.5-0.3,0.8-0.5l20.8,4.9l6.1,1.4C43.4,217.4,43.5,217.8,43.6,218.2z M33.9,233.6L57.5,262c-0.3,0.3-0.4,0.6-0.6,0.9
	c0,0.1-0.1,0.2-0.1,0.3l-8.5-0.8l-31.7-3.1c0-0.3-0.1-0.7-0.2-1c-0.1-0.3-0.3-0.6-0.6-0.8L33.9,233.6z M17.2,208.9l18.5-9.3
	l8.8,15.9c-0.4,0.3-0.7,0.7-0.9,1.2l-26.7-6.3c0.1-0.2,0.2-0.3,0.3-0.5C17.2,209.5,17.2,209.2,17.2,208.9z M25.7,180.5
	c0.3-0.2,0.5-0.5,0.6-0.7c0.2-0.3,0.3-0.6,0.3-0.9l4.5-0.1l46.6-1.4c0,0.2,0.1,0.4,0.1,0.6l-42,21.1L25.7,180.5z M33.2,119.6
	c0.1-0.4,0.1-0.9-0.1-1.3l34.6-14.7l14.6,31.2c-0.4,0.3-0.8,0.6-1,1.1L33.2,119.6z M109.9,81.5l-8.7,6.8c-0.3-0.3-0.6-0.5-1-0.6
	c-0.4-0.1-0.7-0.2-1.1-0.1c-0.4,0.1-0.7,0.2-1,0.4l-7.7-9L129,66c0.1,0.1,0.1,0.2,0.2,0.3L109.9,81.5z M60.3,90.8
	c0.5,0.2,1,0.2,1.4,0l5.8,12.4L33,117.9c-0.1-0.1-0.2-0.3-0.3-0.4l26.9-27.1C59.8,90.6,60.1,90.7,60.3,90.8L60.3,90.8z M60.6,86.2
	c-0.5,0.1-0.9,0.3-1.2,0.7L37.9,69.7l16.8-29.1c0.1,0,0.2,0.1,0.2,0.1c0.3,0.1,0.5,0.1,0.8,0.1L60.6,86.2L60.6,86.2z M89.7,78.7
	l-26.5,8.9c-0.1-0.3-0.3-0.6-0.6-0.8c-0.2-0.2-0.5-0.4-0.8-0.5c-0.3-0.1-0.5-0.1-0.8-0.1l-4.9-45.4c0.3-0.1,0.6-0.2,0.9-0.4
	L89.7,78.7z M90,79.1l7.8,9.1c-0.2,0.3-0.4,0.6-0.6,0.9c0,0.2-0.1,0.3-0.1,0.5l-13.3-0.5l-20.4-0.7c0-0.1,0-0.3-0.1-0.4L90,79.1z
	 M97.2,90.6L68,103.1l-5.8-12.4c0.6-0.3,1-0.8,1.2-1.4c0.1-0.2,0.1-0.3,0.1-0.5l33.7,1.2C97.2,90.2,97.2,90.4,97.2,90.6z
	 M59.8,153.4l-33.6,23.8c-0.3-0.4-0.7-0.7-1.2-0.8l-0.1,0l3.6-33.8l2.3-21.1c0.5,0,1-0.1,1.4-0.4L59.8,153.4z M31.7,116.7
	c-0.3-0.1-0.5-0.1-0.8-0.1l-2-17.6l30-9.6c0.1,0.2,0.2,0.3,0.3,0.5l-26.8,27.2C32.2,117,31.9,116.9,31.7,116.7L31.7,116.7z
	 M128.9,64.5c-0.1,0.4-0.1,0.8,0,1.1l-38.7,13L57.4,40.1c0.2-0.2,0.3-0.4,0.5-0.7L128.9,64.5z M81.5,138.1l-21.3,15.1l-27.6-32.5
	c0.2-0.2,0.4-0.4,0.5-0.7l48.2,16.4C81.1,137,81.2,137.6,81.5,138.1z M78.4,175.3c-0.2,0.3-0.4,0.6-0.6,0.9
	c-0.1,0.2-0.1,0.4-0.1,0.6l-51.1,1.6c0-0.3-0.1-0.6-0.2-0.8l33.7-23.8L78.4,175.3z M78.4,178.7l-31.2,36.7c-0.2-0.1-0.4-0.2-0.6-0.3
	c-0.6-0.2-1.2-0.2-1.8,0.1l-8.7-15.8l42-21.1C78.2,178.4,78.3,178.5,78.4,178.7z M46.2,219.8l12.1,41.7c-0.2,0.1-0.3,0.2-0.5,0.3
	l-23.7-28.5l10.4-13.9c0.2,0.1,0.3,0.2,0.5,0.3C45.5,219.8,45.9,219.8,46.2,219.8z M16.6,207.5c-0.2-0.3-0.6-0.5-0.9-0.6L24,181
	c0.5,0.1,1,0,1.4-0.2l10.2,18.4l-18.4,9.2C17,208.1,16.9,207.7,16.6,207.5z M27.8,89.6c0.5,0,0.9-0.2,1.3-0.5
	c0.4-0.3,0.6-0.7,0.8-1.1c0-0.1,0.1-0.2,0.1-0.3l28.8,0.8c0,0.2,0,0.4,0.1,0.7l-29.9,9.5L27.8,89.6z M28.4,85
	c-0.4-0.1-0.8-0.2-1.2-0.1l-8.4-28.7c0.3-0.1,0.6-0.3,0.8-0.6l17.8,14.2L28.6,85C28.5,85,28.4,85,28.4,85L28.4,85z M-3.4,5.8
	l56.9,31.7c0,0.1-0.1,0.1-0.1,0.2c-0.2,0.5-0.2,1,0,1.5L20,52.8c-0.3-0.5-0.7-0.9-1.3-1.1c-0.5-0.2-1.1-0.2-1.7,0L-4.1,6.6
	C-3.8,6.4-3.6,6.1-3.4,5.8z M30.2,19l24-20.8c0.3,0.2,0.6,0.4,0.9,0.5c0.2,0.1,0.4,0.1,0.5,0.1l-0.1,21.3l-24.9,0.1
	C30.7,19.8,30.5,19.4,30.2,19z M79.9,22.6c0.4-0.1,0.8-0.3,1.1-0.6l1.8,1.6L58,37l19.6-15.1c0.3,0.3,0.6,0.5,1,0.6
	C79,22.6,79.5,22.7,79.9,22.6z M83.2,23.8l46.1,39.8c-0.1,0.1-0.1,0.2-0.2,0.3l-0.1,0.1L58,39.1c0.1-0.5,0.1-1-0.1-1.5L83.2,23.8z
	 M129.7,66.9l-22,33.2l-8.5-7.8c0.6,0.1,1.1,0,1.6-0.3c0.5-0.3,0.8-0.7,1-1.3c0.1-0.3,0.2-0.7,0.1-1.1c0-0.4-0.2-0.7-0.4-1
	l27.9-21.9C129.6,66.8,129.6,66.8,129.7,66.9z M107.5,100.5l-22.8,34.3l-0.2-0.1l14.3-42.2L107.5,100.5z M82.8,139.2
	c0.1,0,0.2,0.1,0.3,0.1l-3,35.3c-0.5,0-1,0.2-1.4,0.4l-18.3-21.5l21.3-15.1C82.1,138.8,82.4,139,82.8,139.2L82.8,139.2z M78.8,178.9
	c0.1,0.1,0.3,0.2,0.4,0.2l-13.9,58.1L47.7,219c0.2-0.2,0.4-0.5,0.5-0.8c0.1-0.4,0.2-0.9,0.1-1.3c-0.1-0.4-0.3-0.8-0.7-1.1
	L78.8,178.9z M65.2,237.8l-5.6,23.5c-0.3,0-0.5,0-0.8,0l-12.1-41.7c0.2-0.1,0.5-0.2,0.7-0.4L65.2,237.8z M57.8,265.6L29,314.8
	c-0.1,0-0.2-0.1-0.2-0.1c-0.4-0.1-0.7-0.2-1.1-0.1l-9-37.9L57,264.6C57.2,265,57.5,265.4,57.8,265.6z M28.2,319.3l4.8,31
	c-0.2,0.1-0.5,0.2-0.7,0.3l-18.1-24.4l11.9-7.8c0.3,0.4,0.7,0.6,1.1,0.8C27.6,319.3,27.9,319.4,28.2,319.3z M35.9,352.7l6.9-0.7
	c0.1,0.5,0.4,1,0.7,1.3l-6.5,8.6l-2.5-7c0.3-0.1,0.5-0.3,0.8-0.6c0.2-0.2,0.4-0.5,0.5-0.8C35.9,353.2,35.9,352.9,35.9,352.7z
	 M45,353.8l0.7,30.7c-0.1,0-0.2,0-0.3,0.1l-8.1-22.3l6.7-8.8c0.2,0.1,0.3,0.2,0.5,0.2C44.6,353.8,44.8,353.8,45,353.8z M44,388.3
	L5,418.4l-2.8-6.3c0.5-0.3,0.9-0.7,1.1-1.3c0.2-0.6,0.2-1.2,0-1.7L44,388.3z M4.6,418.7L-21.7,439l-0.1-0.1l21.5-26.8
	c0.2,0.1,0.4,0.2,0.5,0.3c0.5,0.2,1,0.2,1.5,0L4.6,418.7z M-24.2,438.5l-8.8-20.9l31.7-6.9c0.1,0.4,0.3,0.7,0.6,1l-21.5,26.9
	c-0.1,0-0.2-0.1-0.3-0.1C-23,438.3-23.6,438.3-24.2,438.5z M-33.1,417.2l-17.4-41.4c0.3-0.1,0.5-0.3,0.8-0.5l48.6,33.5
	c-0.1,0.1-0.1,0.3-0.2,0.4c-0.1,0.3-0.2,0.7-0.1,1.1L-33.1,417.2z M-48.9,373.5l36.1-9l12.9,43.4c-0.4,0.1-0.7,0.4-0.9,0.7
	l-48.6-33.4c0.2-0.2,0.3-0.4,0.4-0.7C-48.9,374.1-48.9,373.8-48.9,373.5z M-16.8,349.3c0.3-0.1,0.6-0.3,0.9-0.6
	c0.2-0.3,0.4-0.6,0.5-0.9c0-0.1,0.1-0.2,0.1-0.3l46.5,5.1c0,0.1,0,0.3,0,0.4l-43.7,10.9L-16.8,349.3z M-16.9,344.8
	c-0.2-0.1-0.3-0.1-0.5-0.1l2.4-55.4c0.4,0,0.7-0.1,1.1-0.3l27.5,37.1l-29.5,19.4C-16.1,345.2-16.5,345-16.9,344.8L-16.9,344.8z
	 M-13.1,285.5l25.9-24.5c0.3,0.2,0.6,0.4,0.9,0.5c0.3,0.1,0.7,0.1,1,0.1l3.5,14.8l-30.9,9.7C-12.9,285.9-13,285.7-13.1,285.5z
	 M-11.6,236.8l24.9-25.9c0.2,0.2,0.5,0.3,0.7,0.4c0.1,0,0.1,0,0.2,0.1l-0.1,45.5c-0.5,0-1.1,0.3-1.5,0.7L-11.6,236.8z M-11.9,236.6
	l-35.6-30.4c0.1-0.2,0.2-0.4,0.3-0.6c0-0.1,0.1-0.3,0.1-0.4l59.6,4c0,0.5,0.2,1.1,0.6,1.5L-11.9,236.6z M-47.2,204.2l36.4-12.9
	l23.6,16.6c-0.1,0.1-0.1,0.3-0.2,0.4c0,0.1-0.1,0.3-0.1,0.4l-59.6-4C-47.1,204.5-47.2,204.3-47.2,204.2z M-10.3,191.1l32.4-11.5
	c0.1,0.3,0.3,0.6,0.6,0.8c0.2,0.2,0.5,0.4,0.8,0.5h0l-8.2,25.8c-0.4-0.1-0.8,0-1.2,0.1c-0.4,0.1-0.8,0.4-1,0.7L-10.3,191.1z
	 M24,176.3L5.5,108.9c0.5-0.2,0.9-0.6,1.2-1.1l22,10.4c0,0,0,0,0,0.1c-0.1,0.3-0.1,0.6-0.1,0.9c0,0.3,0.1,0.6,0.2,0.9
	c0.1,0.3,0.3,0.5,0.6,0.7c0.2,0.2,0.5,0.4,0.8,0.5c0.1,0,0.2,0.1,0.3,0.1l-5.9,54.9C24.4,176.3,24.2,176.3,24,176.3z M6.5,105.3
	l19.4-16.4c0.3,0.3,0.6,0.5,0.9,0.6c0.2,0.1,0.4,0.1,0.5,0.1l1,9.1l-21.7,6.9C6.6,105.5,6.5,105.4,6.5,105.3z M3.3,71.5l13.2-15.6
	c0.3,0.2,0.6,0.3,0.9,0.4c0.3,0.1,0.6,0.1,0.9,0L26.7,85c-0.4,0.2-0.7,0.4-1,0.8L3.3,71.5z M3,71.3l-45.1-28.7
	c0.1-0.1,0.1-0.2,0.1-0.3c0,0,0-0.1,0-0.1l57.4,11.6c0,0.4,0,0.7,0.1,1c0.1,0.3,0.3,0.6,0.6,0.9L3,71.3z M-61.9,12.6l24.2-45.4
	l0.2,0.1c0.1,0,0.2,0.1,0.3,0.1l-7.2,71.9c-0.4,0-0.7,0.1-1,0.3L-61.9,12.6z M-62.1,12.1L-94.3-40c0.4-0.3,0.7-0.7,0.8-1.1
	c0-0.1,0.1-0.2,0.1-0.3l54.3,6.3c0,0.4,0.1,0.8,0.3,1.2c0.2,0.4,0.5,0.7,0.8,0.9L-62.1,12.1z M-32,6.7l24.3-1.8
	C-7.7,5.3-7.5,5.7-7.3,6l-13.4,12.7L-32.5,8.1c0.2-0.2,0.3-0.4,0.3-0.7C-32.1,7.2-32.1,6.9-32,6.7z M0.9,7.7l25.2,12
	c-0.1,0.4-0.1,0.8-0.1,1.2c0.1,0.4,0.3,0.8,0.5,1.1L0.9,7.7z M81.7,19.5l35.6-14.6l-34,18.4l-1.9-1.7c0.1-0.2,0.2-0.4,0.3-0.6
	C81.8,20.5,81.8,20,81.7,19.5z M130.6,62.7c-0.4,0.1-0.8,0.3-1,0.6L83.6,23.6L119,4.4c0.3,0.4,0.7,0.8,1.2,0.9
	c0.3,0.1,0.6,0.1,0.9,0.1L130.6,62.7z M127.8,117.7l3.4-50.2c0.5,0,1-0.2,1.4-0.5c0.4-0.3,0.7-0.7,0.8-1.2c0.2-0.5,0.2-1,0-1.5
	c-0.1-0.5-0.4-0.9-0.8-1.2l31.7-11.7c0.2,0.4,0.4,0.7,0.8,0.9L127.8,117.7z M108,100.4l22-33.3c0.1,0.1,0.2,0.1,0.4,0.2
	c0.1,0,0.3,0.1,0.4,0.1l-3.5,50.8L108,100.4z M85.7,135.8c-0.2-0.3-0.4-0.5-0.6-0.7l22.7-34.3l19.3,17.8L85.7,135.8z M101,273.4
	c-0.3,0.1-0.5,0.2-0.7,0.4l-34.7-36.1l13.7-57.5L101,273.4z M30,315.6c-0.2-0.2-0.3-0.4-0.6-0.6l28.8-49.1c0.1,0,0.2,0.1,0.2,0.1
	c0.6,0.2,1.2,0.2,1.8-0.1c0.6-0.3,1-0.7,1.2-1.3l38,10.7c-0.1,0.5,0,1,0.2,1.4L30,315.6z M43.9,349.4c-0.5,0.3-0.8,0.7-1,1.3
	c-0.1,0.3-0.1,0.5-0.1,0.8l-6.9,0.7c-0.1-0.4-0.3-0.8-0.5-1.1c-0.3-0.3-0.6-0.6-1-0.7c-0.3-0.1-0.6-0.1-0.9-0.1l-4.8-31
	c0.1,0,0.2-0.1,0.3-0.1L43.9,349.4z M14.2,435.1c-0.1-0.1-0.2-0.1-0.4-0.2c-0.5-0.2-1-0.2-1.5,0l-7.2-16.1l39.1-30.3
	c0.1,0.1,0.2,0.2,0.3,0.2L14.2,435.1z M-20.9,440.2c-0.1-0.3-0.2-0.6-0.4-0.9l26.1-20.2l7.1,16c-0.5,0.3-0.9,0.8-1.1,1.3
	c-0.1,0.2-0.1,0.5-0.1,0.8L-20.9,440.2z M-55.5,423.8c0.1-0.1,0.1-0.2,0.2-0.4c0.1-0.3,0.1-0.6,0.1-0.9l21.8-4.7l8.8,21
	c-0.3,0.2-0.5,0.4-0.7,0.7L-55.5,423.8z M-19.4,348.7c0.3,0.3,0.6,0.5,1,0.6c0.4,0.1,0.8,0.2,1.2,0.1l4.3,14.6l-36.1,9
	c-0.1-0.2-0.2-0.5-0.3-0.7L-19.4,348.7z M-28.2,257.1c0.5-0.3,0.9-0.8,1.1-1.3c0-0.1,0.1-0.2,0.1-0.3l38.9,3.8
	c0,0.5,0.2,1.1,0.5,1.5l-25.8,24.4c-0.3-0.3-0.7-0.5-1.1-0.6c-0.4-0.1-0.9-0.1-1.3,0.1L-28.2,257.1z M-48.4,206.9
	c0.2-0.1,0.4-0.2,0.6-0.4l35.6,30.4l-15.6,16.3c-0.3-0.2-0.7-0.4-1-0.5c-0.4-0.1-0.8-0.1-1.1,0.1L-48.4,206.9z M-18.5,188.3
	c0.3,0.4,0.7,0.8,1.2,0.9c0.5,0.2,0.9,0.2,1.4,0c0.5-0.1,0.9-0.4,1.2-0.8l3.5,2.4l-35.6,12.6L-18.5,188.3z M4,109.1
	c0.4,0.1,0.7,0.1,1.1,0l18.5,67.3c-0.4,0.1-0.7,0.3-1,0.6c-0.3,0.3-0.5,0.6-0.6,1c-0.1,0.3-0.1,0.7-0.1,1l-36.1,7.4
	c-0.1-0.4-0.3-0.7-0.6-0.9c-0.3-0.3-0.6-0.5-0.9-0.6L4,109.1z M-28.3,110.9c0-0.1,0-0.1,0-0.2l53.9-22.4c0,0.1,0.1,0.1,0.1,0.2
	L6.2,105c-0.3-0.3-0.8-0.5-1.2-0.6c-0.5-0.1-0.9,0-1.4,0.2c-0.4,0.2-0.8,0.5-1,0.9s-0.4,0.9-0.3,1.3L-28.3,110.9z M-43.6,43.8
	c0.5-0.1,1-0.4,1.3-0.9l45,28.7l-32,37.9c-0.5-0.3-1-0.5-1.6-0.4L-43.6,43.8z M-95-39.7c0.1,0,0.2-0.1,0.3-0.1l32.3,52.4l-13.8,25.9
	l-0.1-0.1c-0.4-0.1-0.8-0.2-1.2-0.1L-95-39.7z"/>
</svg>
